<?xml version="1.0" standalone="no"?><!DOCTYPE svg PUBLIC "-//W3C//DTD SVG 1.1//EN" "http://www.w3.org/Graphics/SVG/1.1/DTD/svg11.dtd" ><svg version="1.1" xmlns="http://www.w3.org/2000/svg"><defs><font horiz-adv-x="0" id="font"><font-face ascent="785" bbox="-159 -279 1439 1140" cap-height="700" descent="-215" font-family="Copyright Klim Type Foundry" font-stretch="normal" font-style="normal" font-weight="600" units-per-em="1000" x-height="493" /><missing-glyph horiz-adv-x="500" /><glyph d="M457 498 278 245H504ZM211 9V0H18V9Q38 22 50.5 32Q63 42 74.5 53Q86 64 97.5 79Q109 94 126 118L560 724H565L693 118Q698 95 702.5 80Q707 65 712.5 53.5Q718 42 725.5 32Q733 22 746 9V0H471V9Q487 17 498 24.5Q509 32 516.5 40.5Q524 49 528 60Q532 71 532 84Q532 86 532 88.5Q532 91 531.5 93.5Q531 96 530 105L512 200H246L179 105Q175 100 172.5 95Q170 90 168.5 85Q167 80 166 75.5Q165 71 165 67Q165 60 168 52.5Q171 45 176.5 38Q182 31 190.5 24Q199 17 211 9Z" glyph-name="A" horiz-adv-x="762" unicode="A" /><glyph d="M405 408 253 202H449ZM197 9 198 0H24V9Q41 20 52.5 28Q64 36 74 45.5Q84 55 94.5 68Q105 81 121 101L505 616H509L635 101Q640 81 644.5 68.5Q649 56 654 46.5Q659 37 666 28Q673 19 684 9V0H422V9Q435 15 444.5 21Q454 27 461 34.5Q468 42 471.5 51Q475 60 475 71Q475 73 475 75.5Q475 78 474.5 80Q474 82 473 90L458 162H223L176 98Q172 93 169 88.5Q166 84 164 79Q162 74 161 69.5Q160 65 160 61Q160 55 162 48.5Q164 42 168.5 35.5Q173 29 180 22.5Q187 16 197 9Z" glyph-name="A.sc" horiz-adv-x="706" /><glyph d="M706 648 395 311H621ZM221 9V0H18V9Q40 23 55 33.5Q70 44 84.5 56Q99 68 115 83Q131 98 149 118L593 606Q598 610 601.5 614.5Q605 619 607.5 623.5Q610 628 611 632.5Q612 637 612 641Q612 647 609 653.5Q606 660 600.5 666Q595 672 587 678Q579 684 569 691V700H1136Q1147 700 1155.5 700.5Q1164 701 1171.5 702Q1179 703 1184.5 704Q1190 705 1198 706L1185 520H1176Q1157 564 1146 585Q1135 606 1118 622.5Q1101 639 1074.5 647Q1048 655 1006 655H864L796 384H897Q931 384 950 386.5Q969 389 985 398Q1001 407 1017 426Q1033 445 1057 480H1068L1008 243H997Q991 279 984.5 297.5Q978 316 967 325Q956 334 938.5 336.5Q921 339 887 339H785L712 45H877Q916 45 947.5 54Q979 63 1007 81.5Q1035 100 1062.5 127Q1090 154 1129 197H1142L1062 0H485V9Q510 24 522 32.5Q534 41 543.5 51.5Q553 62 560 77.5Q567 93 573 118L610 266H354L205 105Q198 98 193.5 92.5Q189 87 186 82Q183 77 181.5 72Q180 67 180 63Q180 57 182.5 51Q185 45 190 38.5Q195 32 202.5 25Q210 18 221 9Z" glyph-name="AE" horiz-adv-x="1121" unicode="&#198;" /><glyph d="M616 492 367 250H555ZM209 9 210 0H24V9Q41 19 55 29Q69 39 82.5 49.5Q96 60 111 72.5Q126 85 143 101L564 508Q568 513 571 516.5Q574 520 576 523.5Q578 527 579 530.5Q580 534 580 538Q580 543 576.5 548.5Q573 554 566.5 559.5Q560 565 553 570Q546 575 530 585V594H1023Q1032 594 1040.5 594.5Q1049 595 1055 595.5Q1061 596 1079 599L1068 436H1059Q1042 474 1032 492Q1022 510 1006.5 524Q991 538 967 545.5Q943 553 905 553H785L729 326H811Q842 326 858.5 328Q875 330 889.5 337.5Q904 345 919 361Q934 377 955 407H965L914 203H904Q898 233 891 249Q884 265 873.5 272.5Q863 280 847.5 282Q832 284 801 284H717L657 41H800Q834 41 862 49Q890 57 915 73Q940 89 965 112.5Q990 136 1024 173H1037L966 0H440V9Q463 22 473.5 29Q484 36 492.5 45Q501 54 507 67Q513 80 518 101L546 211H327L202 90Q196 84 192 79Q188 74 185.5 69.5Q183 65 181.5 61Q180 57 180 53Q180 48 182 43Q184 38 187.5 33Q191 28 196.5 22Q202 16 209 9Z" glyph-name="AE.sc" horiz-adv-x="1028" /><glyph d="M931 944H1095L862 763H831ZM706 648 395 311H621ZM221 9V0H18V9Q40 23 55 33.5Q70 44 84.5 56Q99 68 115 83Q131 98 149 118L593 606Q598 610 601.5 614.5Q605 619 607.5 623.5Q610 628 611 632.5Q612 637 612 641Q612 647 609 653.5Q606 660 600.5 666Q595 672 587 678Q579 684 569 691V700H1136Q1147 700 1155.5 700.5Q1164 701 1171.5 702Q1179 703 1184.5 704Q1190 705 1198 706L1185 520H1176Q1157 564 1146 585Q1135 606 1118 622.5Q1101 639 1074.5 647Q1048 655 1006 655H864L796 384H897Q931 384 950 386.5Q969 389 985 398Q1001 407 1017 426Q1033 445 1057 480H1068L1008 243H997Q991 279 984.5 297.5Q978 316 967 325Q956 334 938.5 336.5Q921 339 887 339H785L712 45H877Q916 45 947.5 54Q979 63 1007 81.5Q1035 100 1062.5 127Q1090 154 1129 197H1142L1062 0H485V9Q510 24 522 32.5Q534 41 543.5 51.5Q553 62 560 77.5Q567 93 573 118L610 266H354L205 105Q198 98 193.5 92.5Q189 87 186 82Q183 77 181.5 72Q180 67 180 63Q180 57 182.5 51Q185 45 190 38.5Q195 32 202.5 25Q210 18 221 9Z" glyph-name="AEacute" horiz-adv-x="1121" unicode="&#508;" /><glyph d="M862 857H1034L796 669H767ZM616 492 367 250H555ZM209 9 210 0H24V9Q41 19 55 29Q69 39 82.5 49.5Q96 60 111 72.5Q126 85 143 101L564 508Q568 513 571 516.5Q574 520 576 523.5Q578 527 579 530.5Q580 534 580 538Q580 543 576.5 548.5Q573 554 566.5 559.5Q560 565 553 570Q546 575 530 585V594H1023Q1032 594 1040.5 594.5Q1049 595 1055 595.5Q1061 596 1079 599L1068 436H1059Q1042 474 1032 492Q1022 510 1006.5 524Q991 538 967 545.5Q943 553 905 553H785L729 326H811Q842 326 858.5 328Q875 330 889.5 337.5Q904 345 919 361Q934 377 955 407H965L914 203H904Q898 233 891 249Q884 265 873.5 272.5Q863 280 847.5 282Q832 284 801 284H717L657 41H800Q834 41 862 49Q890 57 915 73Q940 89 965 112.5Q990 136 1024 173H1037L966 0H440V9Q463 22 473.5 29Q484 36 492.5 45Q501 54 507 67Q513 80 518 101L546 211H327L202 90Q196 84 192 79Q188 74 185.5 69.5Q183 65 181.5 61Q180 57 180 53Q180 48 182 43Q184 38 187.5 33Q191 28 196.5 22Q202 16 209 9Z" glyph-name="AEacute.sc" horiz-adv-x="1029" /><glyph d="M457 498 278 245H504ZM211 9V0H18V9Q38 22 50.5 32Q63 42 74.5 53Q86 64 97.5 79Q109 94 126 118L560 724H565L693 118Q698 95 702.5 80Q707 65 712.5 53.5Q718 42 725.5 32Q733 22 746 9V0H471V9Q487 17 498 24.5Q509 32 516.5 40.5Q524 49 528 60Q532 71 532 84Q532 86 532 88.5Q532 91 531.5 93.5Q531 96 530 105L512 200H246L179 105Q175 100 172.5 95Q170 90 168.5 85Q167 80 166 75.5Q165 71 165 67Q165 60 168 52.5Q171 45 176.5 38Q182 31 190.5 24Q199 17 211 9ZM637 944H801L568 763H537Z" glyph-name="Aacute" horiz-adv-x="762" unicode="&#193;" /><glyph d="M589 857H761L523 669H494ZM405 408 253 202H449ZM197 9 198 0H24V9Q41 20 52.5 28Q64 36 74 45.5Q84 55 94.5 68Q105 81 121 101L505 616H509L635 101Q640 81 644.5 68.5Q649 56 654 46.5Q659 37 666 28Q673 19 684 9V0H422V9Q435 15 444.5 21Q454 27 461 34.5Q468 42 471.5 51Q475 60 475 71Q475 73 475 75.5Q475 78 474.5 80Q474 82 473 90L458 162H223L176 98Q172 93 169 88.5Q166 84 164 79Q162 74 161 69.5Q160 65 160 61Q160 55 162 48.5Q164 42 168.5 35.5Q173 29 180 22.5Q187 16 197 9Z" glyph-name="Aacute.sc" horiz-adv-x="706" /><glyph d="M457 498 278 245H504ZM211 9V0H18V9Q38 22 50.5 32Q63 42 74.5 53Q86 64 97.5 79Q109 94 126 118L560 724H565L693 118Q698 95 702.5 80Q707 65 712.5 53.5Q718 42 725.5 32Q733 22 746 9V0H471V9Q487 17 498 24.5Q509 32 516.5 40.5Q524 49 528 60Q532 71 532 84Q532 86 532 88.5Q532 91 531.5 93.5Q531 96 530 105L512 200H246L179 105Q175 100 172.5 95Q170 90 168.5 85Q167 80 166 75.5Q165 71 165 67Q165 60 168 52.5Q171 45 176.5 38Q182 31 190.5 24Q199 17 211 9ZM495 949Q495 930 503 915.5Q511 901 525 892Q539 883 557 879Q575 875 595 875Q617 875 638.5 880Q660 885 679.5 895.5Q699 906 714.5 922.5Q730 939 740 961H768Q757 919 738 884Q719 849 694 823.5Q669 798 639.5 784Q610 770 577 770Q550 770 528.5 779Q507 788 492 805.5Q477 823 469 847Q461 871 461 901Q461 908 461.5 915Q462 922 462.5 929.5Q463 937 464.5 945Q466 953 468 961H495Z" glyph-name="Abreve" horiz-adv-x="762" unicode="&#258;" /><glyph d="M405 408 253 202H449ZM197 9 198 0H24V9Q41 20 52.5 28Q64 36 74 45.5Q84 55 94.5 68Q105 81 121 101L505 616H509L635 101Q640 81 644.5 68.5Q649 56 654 46.5Q659 37 666 28Q673 19 684 9V0H422V9Q435 15 444.5 21Q454 27 461 34.5Q468 42 471.5 51Q475 60 475 71Q475 73 475 75.5Q475 78 474.5 80Q474 82 473 90L458 162H223L176 98Q172 93 169 88.5Q166 84 164 79Q162 74 161 69.5Q160 65 160 61Q160 55 162 48.5Q164 42 168.5 35.5Q173 29 180 22.5Q187 16 197 9ZM443 856Q443 836 451 821.5Q459 807 473 798Q487 789 505 784.5Q523 780 543 780Q565 780 586.5 785Q608 790 627.5 801Q647 812 663 829Q679 846 689 869H716Q704 827 685 791.5Q666 756 641.5 730Q617 704 587 690Q557 676 524 676Q497 676 476 685Q455 694 440 711.5Q425 729 417 753Q409 777 409 806Q409 814 409.5 821.5Q410 829 411 836.5Q412 844 413.5 852.5Q415 861 417 869H444Q444 867 443.5 865.5Q443 864 443 862.5Q443 861 443 859.5Q443 858 443 856Z" glyph-name="Abreve.sc" horiz-adv-x="706" /><glyph d="M457 498 278 245H504ZM211 9V0H18V9Q38 22 50.5 32Q63 42 74.5 53Q86 64 97.5 79Q109 94 126 118L560 724H565L693 118Q698 95 702.5 80Q707 65 712.5 53.5Q718 42 725.5 32Q733 22 746 9V0H471V9Q487 17 498 24.5Q509 32 516.5 40.5Q524 49 528 60Q532 71 532 84Q532 86 532 88.5Q532 91 531.5 93.5Q531 96 530 105L512 200H246L179 105Q175 100 172.5 95Q170 90 168.5 85Q167 80 166 75.5Q165 71 165 67Q165 60 168 52.5Q171 45 176.5 38Q182 31 190.5 24Q199 17 211 9ZM623 961Q629 941 640.5 916.5Q652 892 667 866Q682 840 699 813.5Q716 787 736 757H698Q682 766 668 776Q654 786 641 796.5Q628 807 617 817Q606 827 592 841Q573 829 553 817.5Q533 806 511.5 795.5Q490 785 467 775Q444 765 420 757H382Q425 793 453.5 817Q482 841 510.5 866.5Q539 892 563.5 916.5Q588 941 605 961Z" glyph-name="Acircumflex" horiz-adv-x="762" unicode="&#194;" /><glyph d="M575 883Q581 862 592.5 834.5Q604 807 619 776.5Q634 746 651 716Q668 686 685 660H647Q631 670 617 681Q603 692 590.5 703.5Q578 715 566.5 727Q555 739 542 754Q523 741 502 728.5Q481 716 459 704.5Q437 693 415 681.5Q393 670 370 660H331Q362 686 394.5 716Q427 746 457 776Q487 806 513 833.5Q539 861 557 883ZM405 408 253 202H449ZM197 9 198 0H24V9Q41 20 52.5 28Q64 36 74 45.5Q84 55 94.5 68Q105 81 121 101L505 616H509L635 101Q640 81 644.5 68.5Q649 56 654 46.5Q659 37 666 28Q673 19 684 9V0H422V9Q435 15 444.5 21Q454 27 461 34.5Q468 42 471.5 51Q475 60 475 71Q475 73 475 75.5Q475 78 474.5 80Q474 82 473 90L458 162H223L176 98Q172 93 169 88.5Q166 84 164 79Q162 74 161 69.5Q160 65 160 61Q160 55 162 48.5Q164 42 168.5 35.5Q173 29 180 22.5Q187 16 197 9Z" glyph-name="Acircumflex.sc" horiz-adv-x="706" /><glyph d="M457 498 278 245H504ZM211 9V0H18V9Q38 22 50.5 32Q63 42 74.5 53Q86 64 97.5 79Q109 94 126 118L560 724H565L693 118Q698 95 702.5 80Q707 65 712.5 53.5Q718 42 725.5 32Q733 22 746 9V0H471V9Q487 17 498 24.5Q509 32 516.5 40.5Q524 49 528 60Q532 71 532 84Q532 86 532 88.5Q532 91 531.5 93.5Q531 96 530 105L512 200H246L179 105Q175 100 172.5 95Q170 90 168.5 85Q167 80 166 75.5Q165 71 165 67Q165 60 168 52.5Q171 45 176.5 38Q182 31 190.5 24Q199 17 211 9ZM694 764Q678 764 664 770Q650 776 639 786.5Q628 797 622 811.5Q616 826 616 841Q616 857 622 871.5Q628 886 639 897Q650 908 664 914.5Q678 921 694 921Q710 921 724 914.5Q738 908 749 897Q760 886 766 871.5Q772 857 772 841Q772 826 766 811.5Q760 797 749 786.5Q738 776 724 770Q710 764 694 764ZM485 764Q469 764 455 770Q441 776 430.5 786.5Q420 797 414 811Q408 825 408 841Q408 857 414 871.5Q420 886 430.5 897Q441 908 455 914.5Q469 921 485 921Q501 921 515 914.5Q529 908 540 897Q551 886 557 871.5Q563 857 563 841Q563 826 557 811.5Q551 797 540 786.5Q529 776 515 770Q501 764 485 764Z" glyph-name="Adieresis" horiz-adv-x="762" unicode="&#196;" /><glyph d="M436 672Q420 672 406 678Q392 684 381.5 694.5Q371 705 365 719Q359 733 359 749Q359 765 365 779.5Q371 794 381.5 805Q392 816 406 822.5Q420 829 436 829Q452 829 466.5 822.5Q481 816 491.5 805Q502 794 508 779.5Q514 765 514 749Q514 733 508 719Q502 705 491.5 694.5Q481 684 466.5 678Q452 672 436 672ZM645 672Q629 672 615 678Q601 684 590 694.5Q579 705 573 719.5Q567 734 567 749Q567 765 573 779.5Q579 794 590 805Q601 816 615 822.5Q629 829 645 829Q661 829 675.5 822.5Q690 816 700.5 805Q711 794 717 779.5Q723 765 723 749Q723 733 717 719Q711 705 700.5 694.5Q690 684 675.5 678Q661 672 645 672ZM405 408 253 202H449ZM197 9 198 0H24V9Q41 20 52.5 28Q64 36 74 45.5Q84 55 94.5 68Q105 81 121 101L505 616H509L635 101Q640 81 644.5 68.5Q649 56 654 46.5Q659 37 666 28Q673 19 684 9V0H422V9Q435 15 444.5 21Q454 27 461 34.5Q468 42 471.5 51Q475 60 475 71Q475 73 475 75.5Q475 78 474.5 80Q474 82 473 90L458 162H223L176 98Q172 93 169 88.5Q166 84 164 79Q162 74 161 69.5Q160 65 160 61Q160 55 162 48.5Q164 42 168.5 35.5Q173 29 180 22.5Q187 16 197 9Z" glyph-name="Adieresis.sc" horiz-adv-x="706" /><glyph d="M457 498 278 245H504ZM211 9V0H18V9Q38 22 50.5 32Q63 42 74.5 53Q86 64 97.5 79Q109 94 126 118L560 724H565L693 118Q698 95 702.5 80Q707 65 712.5 53.5Q718 42 725.5 32Q733 22 746 9V0H471V9Q487 17 498 24.5Q509 32 516.5 40.5Q524 49 528 60Q532 71 532 84Q532 86 532 88.5Q532 91 531.5 93.5Q531 96 530 105L512 200H246L179 105Q175 100 172.5 95Q170 90 168.5 85Q167 80 166 75.5Q165 71 165 67Q165 60 168 52.5Q171 45 176.5 38Q182 31 190.5 24Q199 17 211 9ZM420 944H582L594 763H570Z" glyph-name="Agrave" horiz-adv-x="762" unicode="&#192;" /><glyph d="M405 408 253 202H449ZM197 9 198 0H24V9Q41 20 52.5 28Q64 36 74 45.5Q84 55 94.5 68Q105 81 121 101L505 616H509L635 101Q640 81 644.5 68.5Q649 56 654 46.5Q659 37 666 28Q673 19 684 9V0H422V9Q435 15 444.5 21Q454 27 461 34.5Q468 42 471.5 51Q475 60 475 71Q475 73 475 75.5Q475 78 474.5 80Q474 82 473 90L458 162H223L176 98Q172 93 169 88.5Q166 84 164 79Q162 74 161 69.5Q160 65 160 61Q160 55 162 48.5Q164 42 168.5 35.5Q173 29 180 22.5Q187 16 197 9ZM370 857H532L543 669H521Z" glyph-name="Agrave.sc" horiz-adv-x="706" /><glyph d="M457 498 278 245H504ZM211 9V0H18V9Q38 22 50.5 32Q63 42 74.5 53Q86 64 97.5 79Q109 94 126 118L560 724H565L693 118Q698 95 702.5 80Q707 65 712.5 53.5Q718 42 725.5 32Q733 22 746 9V0H471V9Q487 17 498 24.5Q509 32 516.5 40.5Q524 49 528 60Q532 71 532 84Q532 86 532 88.5Q532 91 531.5 93.5Q531 96 530 105L512 200H246L179 105Q175 100 172.5 95Q170 90 168.5 85Q167 80 166 75.5Q165 71 165 67Q165 60 168 52.5Q171 45 176.5 38Q182 31 190.5 24Q199 17 211 9ZM725 783H426L446 861H745Z" glyph-name="Amacron" horiz-adv-x="762" unicode="&#256;" /><glyph d="M405 408 253 202H449ZM197 9 198 0H24V9Q41 20 52.5 28Q64 36 74 45.5Q84 55 94.5 68Q105 81 121 101L505 616H509L635 101Q640 81 644.5 68.5Q649 56 654 46.5Q659 37 666 28Q673 19 684 9V0H422V9Q435 15 444.5 21Q454 27 461 34.5Q468 42 471.5 51Q475 60 475 71Q475 73 475 75.5Q475 78 474.5 80Q474 82 473 90L458 162H223L176 98Q172 93 169 88.5Q166 84 164 79Q162 74 161 69.5Q160 65 160 61Q160 55 162 48.5Q164 42 168.5 35.5Q173 29 180 22.5Q187 16 197 9ZM676 691H377L397 769H696Z" glyph-name="Amacron.sc" horiz-adv-x="706" /><glyph d="M545 -131Q528 -157 508.5 -177Q489 -197 467 -211.5Q445 -226 418.5 -233.5Q392 -241 363 -241Q344 -241 328 -236Q312 -231 300.5 -222Q289 -213 282.5 -200Q276 -187 276 -171Q276 -145 291 -120Q306 -95 333.5 -72Q361 -49 398.5 -27.5Q436 -6 484 17Q496 23 505 29.5Q514 36 520 44Q526 52 529 62Q532 72 532 84Q532 86 532 88.5Q532 91 531.5 93.5Q531 96 530 105L513 200H247L179 105Q175 100 172.5 95Q170 90 168.5 85Q167 80 166 75.5Q165 71 165 67Q165 60 168 52.5Q171 45 176.5 38Q182 31 190.5 24Q199 17 211 9V0H18V9Q38 22 50.5 32Q63 42 74.5 53Q86 64 97.5 79Q109 94 126 118L560 724H565L693 118Q698 95 702.5 80Q707 65 712.5 53.5Q718 42 725.5 32Q733 22 746 9V0H506Q472 -19 448 -37.5Q424 -56 409 -73Q394 -90 387 -106Q380 -122 380 -137Q380 -146 383.5 -153Q387 -160 392.5 -164.5Q398 -169 406 -171.5Q414 -174 424 -174Q439 -174 452 -170Q465 -166 477.5 -159Q490 -152 502.5 -142Q515 -132 530 -117ZM457 498 278 245H505Z" glyph-name="Aogonek" horiz-adv-x="762" unicode="&#260;" /><glyph d="M496 -131Q479 -157 459.5 -177Q440 -197 417.5 -211.5Q395 -226 369 -233.5Q343 -241 313 -241Q294 -241 278.5 -236Q263 -231 251.5 -222Q240 -213 233.5 -200Q227 -187 227 -171Q227 -144 242.5 -119.5Q258 -95 286 -71.5Q314 -48 352 -26Q390 -4 439 19Q448 23 454.5 28.5Q461 34 465.5 40.5Q470 47 472.5 54.5Q475 62 475 71Q475 73 475 75.5Q475 78 474.5 80Q474 82 473 90L458 162H223L176 98Q172 93 169 88.5Q166 84 164 79Q162 74 161 69.5Q160 65 160 61Q160 55 162 48.5Q164 42 168.5 35.5Q173 29 180 22.5Q187 16 197 9L198 0H24V9Q41 20 52.5 28Q64 36 74 45.5Q84 55 94.5 68Q105 81 121 101L505 616H509L635 101Q640 81 644.5 68.5Q649 56 654 46.5Q659 37 666 28Q673 19 684 9V0H456Q422 -19 398 -37.5Q374 -56 359.5 -73Q345 -90 338 -106Q331 -122 331 -137Q331 -146 334.5 -153Q338 -160 343.5 -164.5Q349 -169 357 -171.5Q365 -174 375 -174Q390 -174 403 -170.5Q416 -167 428.5 -159.5Q441 -152 453 -142Q465 -132 481 -117ZM405 408 252 202H449Z" glyph-name="Aogonek.sc" horiz-adv-x="706" /><glyph d="M457 498 278 245H504ZM211 9V0H18V9Q38 22 50.5 32Q63 42 74.5 53Q86 64 97.5 79Q109 94 126 118L560 724H565L693 118Q698 95 702.5 80Q707 65 712.5 53.5Q718 42 725.5 32Q733 22 746 9V0H471V9Q487 17 498 24.5Q509 32 516.5 40.5Q524 49 528 60Q532 71 532 84Q532 86 532 88.5Q532 91 531.5 93.5Q531 96 530 105L512 200H246L179 105Q175 100 172.5 95Q170 90 168.5 85Q167 80 166 75.5Q165 71 165 67Q165 60 168 52.5Q171 45 176.5 38Q182 31 190.5 24Q199 17 211 9ZM483 855Q483 882 493.5 904.5Q504 927 522 944Q540 961 563 970Q586 979 610 979Q631 979 649 971.5Q667 964 680.5 950.5Q694 937 701.5 919Q709 901 709 880Q709 853 699 830Q689 807 671 790.5Q653 774 630 765Q607 756 583 756Q562 756 544 763.5Q526 771 512 784.5Q498 798 490.5 816Q483 834 483 855ZM652 874Q652 885 649 894Q646 903 639.5 910Q633 917 624 920.5Q615 924 604 924Q590 924 578.5 919.5Q567 915 558 906Q549 897 544.5 885.5Q540 874 540 861Q540 850 543 840.5Q546 831 552.5 824Q559 817 568.5 813.5Q578 810 589 810Q603 810 614.5 815Q626 820 634.5 828.5Q643 837 647.5 849Q652 861 652 874Z" glyph-name="Aring" horiz-adv-x="762" unicode="&#197;" /><glyph d="M435 766Q435 793 445.5 815.5Q456 838 474 855Q492 872 515 881Q538 890 562 890Q583 890 601 882.5Q619 875 632.5 861Q646 847 653.5 829Q661 811 661 791Q661 764 650.5 741Q640 718 622 701.5Q604 685 581.5 676Q559 667 535 667Q514 667 495.5 674.5Q477 682 463.5 695.5Q450 709 442.5 727Q435 745 435 766ZM604 785Q604 796 601 805Q598 814 591.5 821Q585 828 576 831.5Q567 835 556 835Q542 835 530.5 830.5Q519 826 510 817Q501 808 496.5 796.5Q492 785 492 772Q492 761 495 751.5Q498 742 504.5 735Q511 728 520.5 724.5Q530 721 541 721Q555 721 566.5 726Q578 731 586.5 739.5Q595 748 599.5 760Q604 772 604 785ZM405 408 253 202H449ZM197 9 198 0H24V9Q41 20 52.5 28Q64 36 74 45.5Q84 55 94.5 68Q105 81 121 101L505 616H509L635 101Q640 81 644.5 68.5Q649 56 654 46.5Q659 37 666 28Q673 19 684 9V0H422V9Q435 15 444.5 21Q454 27 461 34.5Q468 42 471.5 51Q475 60 475 71Q475 73 475 75.5Q475 78 474.5 80Q474 82 473 90L458 162H223L176 98Q172 93 169 88.5Q166 84 164 79Q162 74 161 69.5Q160 65 160 61Q160 55 162 48.5Q164 42 168.5 35.5Q173 29 180 22.5Q187 16 197 9Z" glyph-name="Aring.sc" horiz-adv-x="706" /><glyph d="M684 1140H848L642 988H610ZM482 842Q482 866 493 886.5Q504 907 522.5 922.5Q541 938 565 946Q589 954 614 954Q635 954 654 947Q673 940 687 928Q701 916 708.5 899.5Q716 883 716 864Q716 840 705.5 819Q695 798 676 783Q657 768 633 760Q609 752 584 752Q563 752 544.5 759Q526 766 512 778Q498 790 490 806.5Q482 823 482 842ZM657 859Q657 869 654 877Q651 885 644 891Q637 897 627.5 900Q618 903 607 903Q593 903 581 899Q569 895 560.5 887Q552 879 547 869Q542 859 542 847Q541 837 544.5 828.5Q548 820 555 814Q562 808 571.5 804.5Q581 801 593 801Q607 801 619 805.5Q631 810 639.5 817.5Q648 825 652.5 836Q657 847 657 859ZM457 498 278 245H504ZM211 9V0H18V9Q38 22 50.5 32Q63 42 74.5 53Q86 64 97.5 79Q109 94 126 118L560 724H565L693 118Q698 95 702.5 80Q707 65 712.5 53.5Q718 42 725.5 32Q733 22 746 9V0H471V9Q487 17 498 24.5Q509 32 516.5 40.5Q524 49 528 60Q532 71 532 84Q532 86 532 88.5Q532 91 531.5 93.5Q531 96 530 105L512 200H246L179 105Q175 100 172.5 95Q170 90 168.5 85Q167 80 166 75.5Q165 71 165 67Q165 60 168 52.5Q171 45 176.5 38Q182 31 190.5 24Q199 17 211 9Z" glyph-name="Aringacute" horiz-adv-x="762" unicode="&#506;" /><glyph d="M790 1034 584 882H552L626 1034ZM556 848Q577 848 596 841Q615 834 629 821.5Q643 809 651 792.5Q659 776 659 758Q659 734 648.5 713Q638 692 619 677Q600 662 576 654Q552 646 527 646Q506 646 487 652.5Q468 659 454 671.5Q440 684 432.5 700.5Q425 717 425 736Q425 760 436 780.5Q447 801 465.5 816.5Q484 832 507.5 840Q531 848 556 848ZM549 797Q535 797 523 793Q511 789 502.5 781Q494 773 489 762.5Q484 752 484 740Q484 730 487 722Q490 714 497 708Q504 702 513.5 698.5Q523 695 535 695Q549 695 561 699.5Q573 704 581.5 711.5Q590 719 594.5 729.5Q599 740 599 752Q599 762 596 770.5Q593 779 586.5 785Q580 791 570.5 794Q561 797 549 797ZM405 408 253 202H449ZM197 9 198 0H24V9Q41 20 52.5 28Q64 36 74 45.5Q84 55 94.5 68Q105 81 121 101L505 616H509L635 101Q640 81 644.5 68.5Q649 56 654 46.5Q659 37 666 28Q673 19 684 9V0H422V9Q435 15 444.5 21Q454 27 461 34.5Q468 42 471.5 51Q475 60 475 71Q475 73 475 75.5Q475 78 474.5 80Q474 82 473 90L458 162H223L176 98Q172 93 169 88.5Q166 84 164 79Q162 74 161 69.5Q160 65 160 61Q160 55 162 48.5Q164 42 168.5 35.5Q173 29 180 22.5Q187 16 197 9Z" glyph-name="Aringacute.sc" horiz-adv-x="706" /><glyph d="M457 498 278 245H504ZM211 9V0H18V9Q38 22 50.5 32Q63 42 74.5 53Q86 64 97.5 79Q109 94 126 118L560 724H565L693 118Q698 95 702.5 80Q707 65 712.5 53.5Q718 42 725.5 32Q733 22 746 9V0H471V9Q487 17 498 24.5Q509 32 516.5 40.5Q524 49 528 60Q532 71 532 84Q532 86 532 88.5Q532 91 531.5 93.5Q531 96 530 105L512 200H246L179 105Q175 100 172.5 95Q170 90 168.5 85Q167 80 166 75.5Q165 71 165 67Q165 60 168 52.5Q171 45 176.5 38Q182 31 190.5 24Q199 17 211 9ZM413 773H385Q400 812 416.5 841.5Q433 871 451 891.5Q469 912 488 922.5Q507 933 527 933Q547 933 566.5 925Q586 917 613 901.5Q640 886 656 878.5Q672 871 689 871Q701 871 712.5 875.5Q724 880 734 888.5Q744 897 753.5 909Q763 921 773 937H801Q786 899 769.5 869.5Q753 840 735.5 819.5Q718 799 699 788.5Q680 778 660 778Q640 778 620.5 786Q601 794 574 809Q547 824 530.5 831.5Q514 839 497 839Q485 839 473.5 834.5Q462 830 452 821.5Q442 813 432.5 801Q423 789 413 773Z" glyph-name="Atilde" horiz-adv-x="762" unicode="&#195;" /><glyph d="M405 408 253 202H449ZM197 9 198 0H24V9Q41 20 52.5 28Q64 36 74 45.5Q84 55 94.5 68Q105 81 121 101L505 616H509L635 101Q640 81 644.5 68.5Q649 56 654 46.5Q659 37 666 28Q673 19 684 9V0H422V9Q435 15 444.5 21Q454 27 461 34.5Q468 42 471.5 51Q475 60 475 71Q475 73 475 75.5Q475 78 474.5 80Q474 82 473 90L458 162H223L176 98Q172 93 169 88.5Q166 84 164 79Q162 74 161 69.5Q160 65 160 61Q160 55 162 48.5Q164 42 168.5 35.5Q173 29 180 22.5Q187 16 197 9ZM364 679H335Q350 717 366.5 747Q383 777 401 797Q419 817 438 827.5Q457 838 477 838Q497 838 516.5 830Q536 822 563 807Q590 792 606 784.5Q622 777 639 777Q652 777 663 781.5Q674 786 684 794Q694 802 703.5 814Q713 826 723 842H752Q737 804 720.5 774.5Q704 745 686 724.5Q668 704 649.5 693.5Q631 683 611 683Q591 683 571 691Q551 699 524 714.5Q497 730 481 737.5Q465 745 448 745Q435 745 424 740.5Q413 736 403 727.5Q393 719 383.5 707Q374 695 364 679Z" glyph-name="Atilde.sc" horiz-adv-x="706" /><glyph d="M218 700H555Q603 700 642 691.5Q681 683 709.5 665Q738 647 753 618.5Q768 590 768 551Q768 509 750 475Q732 441 700.5 417.5Q669 394 629 381Q589 368 545 365V363Q580 361 611.5 351Q643 341 667.5 322Q692 303 706 276.5Q720 250 720 217Q720 162 693.5 120Q667 78 621.5 51.5Q576 25 520 12.5Q464 0 405 0H49V9Q74 24 86 32.5Q98 41 107.5 51.5Q117 62 124 77.5Q131 93 137 118L254 582Q256 592 257 597Q258 602 259 607.5Q260 613 260.5 618Q261 623 261 627Q261 638 258.5 646Q256 654 250.5 661Q245 668 238 674Q231 680 218 691ZM428 655 360 382H429Q470 382 505 394.5Q540 407 565 429.5Q590 452 603.5 483Q617 514 617 551Q617 577 609.5 596.5Q602 616 586.5 629Q571 642 549 648.5Q527 655 498 655ZM426 339H350L277 45H357Q402 45 440 56.5Q478 68 506 91.5Q534 115 549 149.5Q564 184 564 228Q564 258 554.5 279Q545 300 527.5 313.5Q510 327 484.5 333Q459 339 426 339Z" glyph-name="B" horiz-adv-x="716" unicode="B" /><glyph d="M197 594H519Q562 594 597.5 586Q633 578 658.5 562Q684 546 698 522Q712 498 712 466Q712 430 696 401.5Q680 373 652.5 353.5Q625 334 590 323Q555 312 516 310V309Q546 307 574.5 298Q603 289 625.5 273Q648 257 661.5 234Q675 211 675 183Q675 135 651 99.5Q627 64 586.5 42Q546 20 496 10Q446 0 393 0H55V9Q78 22 89 29Q100 36 108.5 45Q117 54 123 67Q129 80 134 101L231 493Q232 498 233 503.5Q234 509 235 513.5Q236 518 236 521.5Q236 525 236 529Q236 539 233.5 546Q231 553 226.5 559Q222 565 215.5 570.5Q209 576 197 585ZM400 553 343 325H396Q433 325 463 336Q493 347 514.5 366.5Q536 386 547 411.5Q558 437 558 467Q558 489 551 505Q544 521 531 532Q518 543 498.5 548Q479 553 454 553ZM393 284H333L273 41H334Q374 41 407 50.5Q440 60 464 79.5Q488 99 501 127.5Q514 156 514 194Q514 219 505.5 236.5Q497 254 481.5 264.5Q466 275 443.5 279.5Q421 284 393 284Z" glyph-name="B.sc" horiz-adv-x="679" /><glyph d="M730 466Q715 512 700 546.5Q685 581 664 607Q643 633 613.5 647.5Q584 662 545 662Q490 662 444 632.5Q398 603 364.5 551Q331 499 313 432Q295 365 295 293Q295 244 309 203.5Q323 163 349 134Q375 105 410.5 90Q446 75 488 75Q520 75 548.5 81.5Q577 88 605 104Q633 120 660 146.5Q687 173 714 213L731 206Q709 156 678 116Q647 76 607.5 48Q568 20 521 5Q474 -10 421 -10Q359 -10 305.5 10Q252 30 212 68.5Q172 107 150.5 161.5Q129 216 129 283Q129 370 160 448Q191 526 247 585Q303 644 378.5 677Q454 710 541 710Q568 710 593.5 705Q619 700 641 692Q663 684 681 673.5Q699 663 713 651L774 709H787L744 466Z" glyph-name="C" horiz-adv-x="701" unicode="C" /><glyph d="M496 559Q449 559 410 534Q371 509 343 465.5Q315 422 300 366.5Q285 311 285 252Q285 211 297.5 177Q310 143 333.5 119Q357 95 389 82.5Q421 70 458 70Q485 70 509 75.5Q533 81 557 93.5Q581 106 605.5 128Q630 150 654 183L668 176Q648 133 620.5 99Q593 65 558 41Q523 17 480.5 4.5Q438 -8 390 -8Q334 -8 285 8.5Q236 25 199.5 57.5Q163 90 142.5 136.5Q122 183 122 241Q122 315 149 381Q176 447 225.5 497Q275 547 343 575Q411 603 491 603Q515 603 538 599Q561 595 580.5 588Q600 581 616 572Q632 563 645 553L704 603H713L676 390H663Q650 429 635.5 458.5Q621 488 602 511Q583 534 556.5 546.5Q530 559 496 559Z" glyph-name="C.sc" horiz-adv-x="652" /><glyph d="M730 466Q715 512 700 546.5Q685 581 664 607Q643 633 613.5 647.5Q584 662 545 662Q490 662 444 632.5Q398 603 364.5 551Q331 499 313 432Q295 365 295 293Q295 244 309 203.5Q323 163 349 134Q375 105 410.5 90Q446 75 488 75Q520 75 548.5 81.5Q577 88 605 104Q633 120 660 146.5Q687 173 714 213L731 206Q709 156 678 116Q647 76 607.5 48Q568 20 521 5Q474 -10 421 -10Q359 -10 305.5 10Q252 30 212 68.5Q172 107 150.5 161.5Q129 216 129 283Q129 370 160 448Q191 526 247 585Q303 644 378.5 677Q454 710 541 710Q568 710 593.5 705Q619 700 641 692Q663 684 681 673.5Q699 663 713 651L774 709H787L744 466ZM633 944H797L564 763H533Z" glyph-name="Cacute" horiz-adv-x="701" unicode="&#262;" /><glyph d="M591 857H763L525 669H496ZM496 559Q449 559 410 534Q371 509 343 465.5Q315 422 300 366.5Q285 311 285 252Q285 211 297.5 177Q310 143 333.5 119Q357 95 389 82.5Q421 70 458 70Q485 70 509 75.5Q533 81 557 93.5Q581 106 605.5 128Q630 150 654 183L668 176Q648 133 620.5 99Q593 65 558 41Q523 17 480.5 4.5Q438 -8 390 -8Q334 -8 285 8.5Q236 25 199.5 57.5Q163 90 142.5 136.5Q122 183 122 241Q122 315 149 381Q176 447 225.5 497Q275 547 343 575Q411 603 491 603Q515 603 538 599Q561 595 580.5 588Q600 581 616 572Q632 563 645 553L704 603H713L676 390H663Q650 429 635.5 458.5Q621 488 602 511Q583 534 556.5 546.5Q530 559 496 559Z" glyph-name="Cacute.sc" horiz-adv-x="652" /><glyph d="M730 466Q715 512 700 546.5Q685 581 664 607Q643 633 613.5 647.5Q584 662 545 662Q490 662 444 632.5Q398 603 364.5 551Q331 499 313 432Q295 365 295 293Q295 244 309 203.5Q323 163 349 134Q375 105 410.5 90Q446 75 488 75Q520 75 548.5 81.5Q577 88 605 104Q633 120 660 146.5Q687 173 714 213L731 206Q709 156 678 116Q647 76 607.5 48Q568 20 521 5Q474 -10 421 -10Q359 -10 305.5 10Q252 30 212 68.5Q172 107 150.5 161.5Q129 216 129 283Q129 370 160 448Q191 526 247 585Q303 644 378.5 677Q454 710 541 710Q568 710 593.5 705Q619 700 641 692Q663 684 681 673.5Q699 663 713 651L774 709H787L744 466ZM562 756Q556 777 544.5 801Q533 825 518 851.5Q503 878 486 904.5Q469 931 449 960H488Q504 952 518 942Q532 932 544 922Q556 912 594 877Q613 889 633 900.5Q653 912 674 922.5Q695 933 718 942.5Q741 952 765 960H803Q765 928 735 902.5Q705 877 676 851Q647 825 622 800.5Q597 776 580 756Z" glyph-name="Ccaron" horiz-adv-x="701" unicode="&#268;" /><glyph d="M533 663H516Q509 684 497.5 711.5Q486 739 471 769.5Q456 800 439 830Q422 860 405 886H443Q458 876 472.5 865Q487 854 499.5 842.5Q512 831 523.5 819Q535 807 549 792Q568 805 588.5 817.5Q609 830 631 841.5Q653 853 675.5 864Q698 875 721 886H759Q728 860 695.5 830Q663 800 633 770Q603 740 577 712.5Q551 685 533 663ZM496 559Q449 559 410 534Q371 509 343 465.5Q315 422 300 366.5Q285 311 285 252Q285 211 297.5 177Q310 143 333.5 119Q357 95 389 82.5Q421 70 458 70Q485 70 509 75.5Q533 81 557 93.5Q581 106 605.5 128Q630 150 654 183L668 176Q648 133 620.5 99Q593 65 558 41Q523 17 480.5 4.5Q438 -8 390 -8Q334 -8 285 8.5Q236 25 199.5 57.5Q163 90 142.5 136.5Q122 183 122 241Q122 315 149 381Q176 447 225.5 497Q275 547 343 575Q411 603 491 603Q515 603 538 599Q561 595 580.5 588Q600 581 616 572Q632 563 645 553L704 603H713L676 390H663Q650 429 635.5 458.5Q621 488 602 511Q583 534 556.5 546.5Q530 559 496 559Z" glyph-name="Ccaron.sc" horiz-adv-x="652" /><glyph d="M218 -160 238 -141Q243 -150 250 -157Q257 -164 266.5 -169Q276 -174 286.5 -176.5Q297 -179 308 -179Q322 -179 334.5 -175Q347 -171 356.5 -163Q366 -155 371 -144.5Q376 -134 376 -122Q376 -111 370.5 -103Q365 -95 355 -90Q345 -85 331 -82Q317 -79 299 -78L360 -5Q332 0 305 10Q252 30 212 68.5Q172 107 150.5 161.5Q129 216 129 283Q129 370 160 448Q191 526 247 585Q303 644 378.5 677Q454 710 541 710Q568 710 593.5 705Q619 700 641 692Q663 684 681 673.5Q699 663 713 651L774 709H787L744 466H730Q715 512 700 546.5Q685 581 664 607Q643 633 613.5 647.5Q584 662 545 662Q490 662 444 632.5Q398 603 364.5 551Q331 499 313 432Q295 365 295 293Q295 244 309 203.5Q323 163 349 134Q375 105 410.5 90Q446 75 488 75Q520 75 548.5 81.5Q577 88 605 104Q633 120 660 146.5Q687 173 714 213L731 206Q709 156 678 116Q647 76 607.5 48Q568 20 521 5Q474 -10 421 -10Q409 -10 398 -9L362 -53Q387 -54 407.5 -59Q428 -64 443 -72.5Q458 -81 466 -94Q474 -107 474 -124Q474 -148 462 -167Q450 -186 430 -199Q410 -212 386 -218Q362 -224 337 -224Q312 -224 291.5 -218.5Q271 -213 256.5 -204Q242 -195 232.5 -184Q223 -173 218 -160Z" glyph-name="Ccedilla" horiz-adv-x="701" unicode="&#199;" /><glyph d="M198 -160 218 -141Q223 -150 230 -157Q237 -164 246.5 -169Q256 -174 266.5 -176.5Q277 -179 288 -179Q302 -179 314.5 -175Q327 -171 336.5 -163Q346 -155 351 -144.5Q356 -134 356 -122Q356 -111 350.5 -103Q345 -95 335 -90Q325 -85 311 -82Q297 -79 279 -78L340 -4Q311 0 285 8Q236 25 199.5 57.5Q163 90 142.5 136.5Q122 183 122 241Q122 315 149 381Q176 447 225.5 497Q275 547 343 575Q411 603 491 603Q515 603 538 599Q561 595 580.5 588Q600 581 616 572Q632 563 645 553L704 603H713L676 390H663Q650 429 635.5 458.5Q621 488 602 511Q583 534 556.5 546.5Q530 559 496 559Q449 559 410 534Q371 509 343 465.5Q315 422 300 366.5Q285 311 285 252Q285 211 297.5 177Q310 143 333.5 119Q357 95 389 82.5Q421 70 458 70Q485 70 509 75.5Q533 81 557 93.5Q581 106 605.5 128Q630 150 654 183L668 176Q648 133 620.5 99Q593 65 558 41Q523 17 480.5 4.5Q438 -8 390 -8H379L342 -53Q367 -54 387.5 -59Q408 -64 423 -72.5Q438 -81 446 -94Q454 -107 454 -124Q454 -148 442 -167Q430 -186 410 -199Q390 -212 366 -218Q342 -224 317 -224Q292 -224 271.5 -218.5Q251 -213 236.5 -204Q222 -195 212.5 -184Q203 -173 198 -160Z" glyph-name="Ccedilla.sc" horiz-adv-x="652" /><glyph d="M730 466Q715 512 700 546.5Q685 581 664 607Q643 633 613.5 647.5Q584 662 545 662Q490 662 444 632.5Q398 603 364.5 551Q331 499 313 432Q295 365 295 293Q295 244 309 203.5Q323 163 349 134Q375 105 410.5 90Q446 75 488 75Q520 75 548.5 81.5Q577 88 605 104Q633 120 660 146.5Q687 173 714 213L731 206Q709 156 678 116Q647 76 607.5 48Q568 20 521 5Q474 -10 421 -10Q359 -10 305.5 10Q252 30 212 68.5Q172 107 150.5 161.5Q129 216 129 283Q129 370 160 448Q191 526 247 585Q303 644 378.5 677Q454 710 541 710Q568 710 593.5 705Q619 700 641 692Q663 684 681 673.5Q699 663 713 651L774 709H787L744 466ZM620 961Q626 941 637.5 916.5Q649 892 664 866Q679 840 696 813.5Q713 787 733 757H695Q679 766 665 776Q651 786 638 796.5Q625 807 614 817Q603 827 589 841Q570 829 550 817.5Q530 806 508.5 795.5Q487 785 464 775Q441 765 417 757H379Q422 793 450.5 817Q479 841 507.5 866.5Q536 892 560.5 916.5Q585 941 602 961Z" glyph-name="Ccircumflex" horiz-adv-x="701" unicode="&#264;" /><glyph d="M577 883Q583 862 594.5 834.5Q606 807 621 776.5Q636 746 653 716Q670 686 687 660H649Q633 670 619 681Q605 692 592.5 703.5Q580 715 568.5 727Q557 739 544 754Q525 741 504 728.5Q483 716 461 704.5Q439 693 417 681.5Q395 670 372 660H333Q364 686 396.5 716Q429 746 459 776Q489 806 515 833.5Q541 861 559 883ZM496 559Q449 559 410 534Q371 509 343 465.5Q315 422 300 366.5Q285 311 285 252Q285 211 297.5 177Q310 143 333.5 119Q357 95 389 82.5Q421 70 458 70Q485 70 509 75.5Q533 81 557 93.5Q581 106 605.5 128Q630 150 654 183L668 176Q648 133 620.5 99Q593 65 558 41Q523 17 480.5 4.5Q438 -8 390 -8Q334 -8 285 8.5Q236 25 199.5 57.5Q163 90 142.5 136.5Q122 183 122 241Q122 315 149 381Q176 447 225.5 497Q275 547 343 575Q411 603 491 603Q515 603 538 599Q561 595 580.5 588Q600 581 616 572Q632 563 645 553L704 603H713L676 390H663Q650 429 635.5 458.5Q621 488 602 511Q583 534 556.5 546.5Q530 559 496 559Z" glyph-name="Ccircumflex.sc" horiz-adv-x="652" /><glyph d="M589 766Q571 766 554.5 772.5Q538 779 526 791Q514 803 507.5 818.5Q501 834 501 852Q501 870 507.5 886.5Q514 903 526 915Q538 927 554.5 933.5Q571 940 589 940Q607 940 623.5 933.5Q640 927 652 915Q664 903 671 886.5Q678 870 678 852Q678 834 671 818.5Q664 803 652 791Q640 779 623.5 772.5Q607 766 589 766ZM730 466Q715 512 700 546.5Q685 581 664 607Q643 633 613.5 647.5Q584 662 545 662Q490 662 444 632.5Q398 603 364.5 551Q331 499 313 432Q295 365 295 293Q295 244 309 203.5Q323 163 349 134Q375 105 410.5 90Q446 75 488 75Q520 75 548.5 81.5Q577 88 605 104Q633 120 660 146.5Q687 173 714 213L731 206Q709 156 678 116Q647 76 607.5 48Q568 20 521 5Q474 -10 421 -10Q359 -10 305.5 10Q252 30 212 68.5Q172 107 150.5 161.5Q129 216 129 283Q129 370 160 448Q191 526 247 585Q303 644 378.5 677Q454 710 541 710Q568 710 593.5 705Q619 700 641 692Q663 684 681 673.5Q699 663 713 651L774 709H787L744 466Z" glyph-name="Cdotaccent" horiz-adv-x="701" unicode="&#266;" /><glyph d="M496 559Q449 559 410 534Q371 509 343 465.5Q315 422 300 366.5Q285 311 285 252Q285 211 297.5 177Q310 143 333.5 119Q357 95 389 82.5Q421 70 458 70Q485 70 509 75.5Q533 81 557 93.5Q581 106 605.5 128Q630 150 654 183L668 176Q648 133 620.5 99Q593 65 558 41Q523 17 480.5 4.5Q438 -8 390 -8Q334 -8 285 8.5Q236 25 199.5 57.5Q163 90 142.5 136.5Q122 183 122 241Q122 315 149 381Q176 447 225.5 497Q275 547 343 575Q411 603 491 603Q515 603 538 599Q561 595 580.5 588Q600 581 616 572Q632 563 645 553L704 603H713L676 390H663Q650 429 635.5 458.5Q621 488 602 511Q583 534 556.5 546.5Q530 559 496 559ZM545 676Q527 676 510.5 682.5Q494 689 482 701Q470 713 463.5 729Q457 745 457 763Q457 781 463.5 797Q470 813 482 825Q494 837 510.5 843.5Q527 850 545 850Q563 850 579.5 843.5Q596 837 608 825Q620 813 627 797Q634 781 634 763Q634 745 627 729Q620 713 608 701Q596 689 579.5 682.5Q563 676 545 676Z" glyph-name="Cdotaccent.sc" horiz-adv-x="652" /><glyph d="M218 700H509Q581 700 642 681Q703 662 748 626.5Q793 591 817 540Q841 489 841 426Q841 332 807 253.5Q773 175 710 118Q647 61 559.5 30.5Q472 0 369 0H49V9Q74 24 86 32.5Q98 41 107.5 51.5Q117 62 124 77.5Q131 93 137 118L254 582Q256 589 257 595.5Q258 602 258.5 607.5Q259 613 259.5 618Q260 623 260 627Q260 638 257.5 646Q255 654 250 661Q245 668 238 674Q231 680 218 691ZM276 47H362Q439 47 499 79.5Q559 112 598.5 167.5Q638 223 658 290.5Q678 358 678 427Q678 478 667 519.5Q656 561 632.5 591Q609 621 573 637Q537 653 489 653H428Z" glyph-name="D" horiz-adv-x="793" unicode="D" /><glyph d="M197 594H466Q531 594 586.5 578Q642 562 683.5 532Q725 502 747.5 458.5Q770 415 771 361V356Q771 278 740.5 212Q710 146 653.5 98.5Q597 51 519 25.5Q441 0 348 0H54V9Q77 22 88 29Q99 36 107.5 45Q116 54 122 67Q128 80 133 101L231 493Q232 499 233 504Q234 509 234.5 513.5Q235 518 235.5 522Q236 526 236 530Q236 539 233.5 546Q231 553 226.5 559Q222 565 215.5 570.5Q209 576 197 585ZM273 42H339Q406 42 457.5 69.5Q509 97 542.5 143.5Q576 190 592.5 245.5Q609 301 609 357V362Q609 405 599 440Q589 475 569 500Q549 525 518.5 538.5Q488 552 446 552H400Z" glyph-name="D.sc" horiz-adv-x="742" /><glyph d="M543 756Q537 777 525.5 801Q514 825 499 851.5Q484 878 467 904.5Q450 931 430 960H469Q485 952 499 942Q513 932 525 922Q537 912 575 877Q594 889 614 900.5Q634 912 655 922.5Q676 933 699 942.5Q722 952 746 960H784Q746 928 716 902.5Q686 877 657 851Q628 825 603 800.5Q578 776 561 756ZM218 700H509Q581 700 642 681Q703 662 748 626.5Q793 591 817 540Q841 489 841 426Q841 332 807 253.5Q773 175 710 118Q647 61 559.5 30.5Q472 0 369 0H49V9Q74 24 86 32.5Q98 41 107.5 51.5Q117 62 124 77.5Q131 93 137 118L254 582Q256 589 257 595.5Q258 602 258.5 607.5Q259 613 259.5 618Q260 623 260 627Q260 638 257.5 646Q255 654 250 661Q245 668 238 674Q231 680 218 691ZM276 47H362Q439 47 499 79.5Q559 112 598.5 167.5Q638 223 658 290.5Q678 358 678 427Q678 478 667 519.5Q656 561 632.5 591Q609 621 573 637Q537 653 489 653H428Z" glyph-name="Dcaron" horiz-adv-x="793" unicode="&#270;" /><glyph d="M197 594H466Q531 594 586.5 578Q642 562 683.5 532Q725 502 747.5 458.5Q770 415 771 361V356Q771 278 740.5 212Q710 146 653.5 98.5Q597 51 519 25.5Q441 0 348 0H54V9Q77 22 88 29Q99 36 107.5 45Q116 54 122 67Q128 80 133 101L231 493Q232 499 233 504Q234 509 234.5 513.5Q235 518 235.5 522Q236 526 236 530Q236 539 233.5 546Q231 553 226.5 559Q222 565 215.5 570.5Q209 576 197 585ZM273 42H339Q406 42 457.5 69.5Q509 97 542.5 143.5Q576 190 592.5 245.5Q609 301 609 357V362Q609 405 599 440Q589 475 569 500Q549 525 518.5 538.5Q488 552 446 552H400ZM515 663H498Q491 684 479.5 711.5Q468 739 453 769.5Q438 800 421 830Q404 860 387 886H425Q440 876 454.5 865Q469 854 481.5 842.5Q494 831 505.5 819Q517 807 531 792Q550 805 570.5 817.5Q591 830 613 841.5Q635 853 657.5 864Q680 875 703 886H741Q710 860 677.5 830Q645 800 615 770Q585 740 559 712.5Q533 685 515 663Z" glyph-name="Dcaron.sc" horiz-adv-x="742" /><glyph d="M378 0H58V9Q83 24 95 32.5Q107 41 116.5 51.5Q126 62 133 77.5Q140 93 146 118L201 338H129L140 384H213L263 582Q265 589 266 595.5Q267 602 267.5 607.5Q268 613 268.5 618Q269 623 269 627Q269 638 266.5 646Q264 654 259 661Q254 668 247 674Q240 680 227 691V700H518Q590 700 651 681Q712 662 757 626.5Q802 591 826 540Q850 489 850 426Q850 332 816 253.5Q782 175 719 118Q656 61 568.5 30.5Q481 0 378 0ZM285 47H371Q448 47 508 79.5Q568 112 607.5 167.5Q647 223 667 290.5Q687 358 687 427Q687 478 676 519.5Q665 561 641.5 591Q618 621 582 637Q546 653 498 653H437L370 384H505L494 338H358Z" glyph-name="Dcroat" horiz-adv-x="802" unicode="&#272;" /><glyph d="M356 0H62V9Q85 22 96 29Q107 36 115.5 45Q124 54 130 67Q136 80 141 101L188 287H119L128 328H198L239 493Q240 499 241 504Q242 509 242.5 513.5Q243 518 243.5 522Q244 526 244 530Q244 539 241.5 546Q239 553 234.5 559Q230 565 223.5 570.5Q217 576 205 585V594H474Q539 594 594.5 578Q650 562 691.5 532Q733 502 755.5 458.5Q778 415 779 361V356Q779 278 748.5 212Q718 146 661.5 98.5Q605 51 527 25.5Q449 0 356 0ZM281 42H347Q414 42 465.5 69.5Q517 97 550.5 143.5Q584 190 600.5 245.5Q617 301 617 357V362Q617 405 607 440Q597 475 577 500Q557 525 526.5 538.5Q496 552 454 552H408L352 328H464L454 287H342Z" glyph-name="Dcroat.sc" horiz-adv-x="750" /><glyph d="M49 0V9Q74 24 86 32.5Q98 41 107.5 51.5Q117 62 124 77.5Q131 93 137 118L254 582Q256 592 257 597Q258 602 259 607.5Q260 613 260.5 618Q261 623 261 627Q261 638 258.5 646Q256 654 250.5 661Q245 668 238 674Q231 680 218 691V700H700Q711 700 719.5 700.5Q728 701 735.5 702Q743 703 748.5 704Q754 705 762 706L749 520H740Q721 564 710 585Q699 606 682 622.5Q665 639 638.5 647Q612 655 570 655H428L361 384H461Q495 384 514 386.5Q533 389 549 398Q565 407 581 426Q597 445 621 480H632L573 243H561Q555 279 548.5 297.5Q542 316 531 325Q520 334 502.5 336.5Q485 339 451 339H349L276 45H441Q480 45 511.5 54Q543 63 571 81.5Q599 100 626.5 127Q654 154 693 197H706L626 0Z" glyph-name="E" horiz-adv-x="684" unicode="E" /><glyph d="M55 0V9Q78 22 88.5 29Q99 36 107.5 45Q116 54 122 67Q128 80 133 101L231 493Q233 499 234 504.5Q235 510 235.5 514.5Q236 519 236.5 523Q237 527 237 530Q237 539 234.5 546Q232 553 227.5 559Q223 565 216 570.5Q209 576 197 585V594H638Q647 594 655.5 594.5Q664 595 670 595.5Q676 596 694 599L683 436H674Q657 474 647 492Q637 510 621.5 524Q606 538 582 545.5Q558 553 521 553H400L344 326H426Q457 326 474 328Q491 330 505 337.5Q519 345 534 361Q549 377 570 407H580L529 203H519Q513 233 506.5 249Q500 265 489.5 272.5Q479 280 463 282Q447 284 416 284H333L272 41H415Q450 41 478 49Q506 57 531 73Q556 89 580.5 112.5Q605 136 639 173H653L581 0Z" glyph-name="E.sc" horiz-adv-x="643" /><glyph d="M590 944H754L521 763H490ZM49 0V9Q74 24 86 32.5Q98 41 107.5 51.5Q117 62 124 77.5Q131 93 137 118L254 582Q256 592 257 597Q258 602 259 607.5Q260 613 260.5 618Q261 623 261 627Q261 638 258.5 646Q256 654 250.5 661Q245 668 238 674Q231 680 218 691V700H700Q711 700 719.5 700.5Q728 701 735.5 702Q743 703 748.5 704Q754 705 762 706L749 520H740Q721 564 710 585Q699 606 682 622.5Q665 639 638.5 647Q612 655 570 655H428L361 384H461Q495 384 514 386.5Q533 389 549 398Q565 407 581 426Q597 445 621 480H632L573 243H561Q555 279 548.5 297.5Q542 316 531 325Q520 334 502.5 336.5Q485 339 451 339H349L276 45H441Q480 45 511.5 54Q543 63 571 81.5Q599 100 626.5 127Q654 154 693 197H706L626 0Z" glyph-name="Eacute" horiz-adv-x="684" unicode="&#201;" /><glyph d="M554 857H726L488 669H459ZM55 0V9Q78 22 88.5 29Q99 36 107.5 45Q116 54 122 67Q128 80 133 101L231 493Q233 499 234 504.5Q235 510 235.5 514.5Q236 519 236.5 523Q237 527 237 530Q237 539 234.5 546Q232 553 227.5 559Q223 565 216 570.5Q209 576 197 585V594H638Q647 594 655.5 594.5Q664 595 670 595.5Q676 596 694 599L683 436H674Q657 474 647 492Q637 510 621.5 524Q606 538 582 545.5Q558 553 521 553H400L344 326H426Q457 326 474 328Q491 330 505 337.5Q519 345 534 361Q549 377 570 407H580L529 203H519Q513 233 506.5 249Q500 265 489.5 272.5Q479 280 463 282Q447 284 416 284H333L272 41H415Q450 41 478 49Q506 57 531 73Q556 89 580.5 112.5Q605 136 639 173H653L581 0Z" glyph-name="Eacute.sc" horiz-adv-x="643" /><glyph d="M447 949Q447 930 455 915.5Q463 901 477 892Q491 883 509 879Q527 875 547 875Q569 875 590.5 880Q612 885 631.5 895.5Q651 906 666.5 922.5Q682 939 692 961H720Q709 919 690 884Q671 849 646 823.5Q621 798 591.5 784Q562 770 529 770Q502 770 480.5 779Q459 788 444 805.5Q429 823 421 847Q413 871 413 901Q413 908 413.5 915Q414 922 414.5 929.5Q415 937 416.5 945Q418 953 420 961H447ZM49 0V9Q74 24 86 32.5Q98 41 107.5 51.5Q117 62 124 77.5Q131 93 137 118L254 582Q256 592 257 597Q258 602 259 607.5Q260 613 260.5 618Q261 623 261 627Q261 638 258.5 646Q256 654 250.5 661Q245 668 238 674Q231 680 218 691V700H700Q711 700 719.5 700.5Q728 701 735.5 702Q743 703 748.5 704Q754 705 762 706L749 520H740Q721 564 710 585Q699 606 682 622.5Q665 639 638.5 647Q612 655 570 655H428L361 384H461Q495 384 514 386.5Q533 389 549 398Q565 407 581 426Q597 445 621 480H632L573 243H561Q555 279 548.5 297.5Q542 316 531 325Q520 334 502.5 336.5Q485 339 451 339H349L276 45H441Q480 45 511.5 54Q543 63 571 81.5Q599 100 626.5 127Q654 154 693 197H706L626 0Z" glyph-name="Ebreve" horiz-adv-x="684" unicode="&#276;" /><glyph d="M55 0V9Q78 22 88.5 29Q99 36 107.5 45Q116 54 122 67Q128 80 133 101L231 493Q233 499 234 504.5Q235 510 235.5 514.5Q236 519 236.5 523Q237 527 237 530Q237 539 234.5 546Q232 553 227.5 559Q223 565 216 570.5Q209 576 197 585V594H638Q647 594 655.5 594.5Q664 595 670 595.5Q676 596 694 599L683 436H674Q657 474 647 492Q637 510 621.5 524Q606 538 582 545.5Q558 553 521 553H400L344 326H426Q457 326 474 328Q491 330 505 337.5Q519 345 534 361Q549 377 570 407H580L529 203H519Q513 233 506.5 249Q500 265 489.5 272.5Q479 280 463 282Q447 284 416 284H333L272 41H415Q450 41 478 49Q506 57 531 73Q556 89 580.5 112.5Q605 136 639 173H653L581 0ZM407 856Q407 836 415 821.5Q423 807 437 798Q451 789 469 784.5Q487 780 507 780Q529 780 550.5 785Q572 790 591.5 801Q611 812 627 829Q643 846 653 869H680Q668 827 649 791.5Q630 756 605.5 730Q581 704 551 690Q521 676 488 676Q461 676 440 685Q419 694 404 711.5Q389 729 381 753Q373 777 373 806Q373 814 373.5 821.5Q374 829 375 836.5Q376 844 377.5 852.5Q379 861 381 869H408Q408 867 407.5 865.5Q407 864 407 862.5Q407 861 407 859.5Q407 858 407 856Z" glyph-name="Ebreve.sc" horiz-adv-x="643" /><glyph d="M519 756Q513 777 501.5 801Q490 825 475 851.5Q460 878 443 904.5Q426 931 406 960H445Q461 952 475 942Q489 932 501 922Q513 912 551 877Q570 889 590 900.5Q610 912 631 922.5Q652 933 675 942.5Q698 952 722 960H760Q722 928 692 902.5Q662 877 633 851Q604 825 579 800.5Q554 776 537 756ZM49 0V9Q74 24 86 32.5Q98 41 107.5 51.5Q117 62 124 77.5Q131 93 137 118L254 582Q256 592 257 597Q258 602 259 607.5Q260 613 260.5 618Q261 623 261 627Q261 638 258.5 646Q256 654 250.5 661Q245 668 238 674Q231 680 218 691V700H700Q711 700 719.5 700.5Q728 701 735.5 702Q743 703 748.5 704Q754 705 762 706L749 520H740Q721 564 710 585Q699 606 682 622.5Q665 639 638.5 647Q612 655 570 655H428L361 384H461Q495 384 514 386.5Q533 389 549 398Q565 407 581 426Q597 445 621 480H632L573 243H561Q555 279 548.5 297.5Q542 316 531 325Q520 334 502.5 336.5Q485 339 451 339H349L276 45H441Q480 45 511.5 54Q543 63 571 81.5Q599 100 626.5 127Q654 154 693 197H706L626 0Z" glyph-name="Ecaron" horiz-adv-x="684" unicode="&#282;" /><glyph d="M495 663H478Q471 684 459.5 711.5Q448 739 433 769.5Q418 800 401 830Q384 860 367 886H405Q420 876 434.5 865Q449 854 461.5 842.5Q474 831 485.5 819Q497 807 511 792Q530 805 550.5 817.5Q571 830 593 841.5Q615 853 637.5 864Q660 875 683 886H721Q690 860 657.5 830Q625 800 595 770Q565 740 539 712.5Q513 685 495 663ZM55 0V9Q78 22 88.5 29Q99 36 107.5 45Q116 54 122 67Q128 80 133 101L231 493Q233 499 234 504.5Q235 510 235.5 514.5Q236 519 236.5 523Q237 527 237 530Q237 539 234.5 546Q232 553 227.5 559Q223 565 216 570.5Q209 576 197 585V594H638Q647 594 655.5 594.5Q664 595 670 595.5Q676 596 694 599L683 436H674Q657 474 647 492Q637 510 621.5 524Q606 538 582 545.5Q558 553 521 553H400L344 326H426Q457 326 474 328Q491 330 505 337.5Q519 345 534 361Q549 377 570 407H580L529 203H519Q513 233 506.5 249Q500 265 489.5 272.5Q479 280 463 282Q447 284 416 284H333L272 41H415Q450 41 478 49Q506 57 531 73Q556 89 580.5 112.5Q605 136 639 173H653L581 0Z" glyph-name="Ecaron.sc" horiz-adv-x="643" /><glyph d="M49 0V9Q74 24 86 32.5Q98 41 107.5 51.5Q117 62 124 77.5Q131 93 137 118L254 582Q256 592 257 597Q258 602 259 607.5Q260 613 260.5 618Q261 623 261 627Q261 638 258.5 646Q256 654 250.5 661Q245 668 238 674Q231 680 218 691V700H700Q711 700 719.5 700.5Q728 701 735.5 702Q743 703 748.5 704Q754 705 762 706L749 520H740Q721 564 710 585Q699 606 682 622.5Q665 639 638.5 647Q612 655 570 655H428L361 384H461Q495 384 514 386.5Q533 389 549 398Q565 407 581 426Q597 445 621 480H632L573 243H561Q555 279 548.5 297.5Q542 316 531 325Q520 334 502.5 336.5Q485 339 451 339H349L276 45H441Q480 45 511.5 54Q543 63 571 81.5Q599 100 626.5 127Q654 154 693 197H706L626 0ZM576 961Q582 941 593.5 916.5Q605 892 620 866Q635 840 652 813.5Q669 787 689 757H651Q635 766 621 776Q607 786 594 796.5Q581 807 570 817Q559 827 545 841Q526 829 506 817.5Q486 806 464.5 795.5Q443 785 420 775Q397 765 373 757H335Q378 793 406.5 817Q435 841 463.5 866.5Q492 892 516.5 916.5Q541 941 558 961Z" glyph-name="Ecircumflex" horiz-adv-x="684" unicode="&#202;" /><glyph d="M539 883Q545 862 556.5 834.5Q568 807 583 776.5Q598 746 615 716Q632 686 649 660H611Q595 670 581 681Q567 692 554.5 703.5Q542 715 530.5 727Q519 739 506 754Q487 741 466 728.5Q445 716 423 704.5Q401 693 379 681.5Q357 670 334 660H295Q326 686 358.5 716Q391 746 421 776Q451 806 477 833.5Q503 861 521 883ZM55 0V9Q78 22 88.5 29Q99 36 107.5 45Q116 54 122 67Q128 80 133 101L231 493Q233 499 234 504.5Q235 510 235.5 514.5Q236 519 236.5 523Q237 527 237 530Q237 539 234.5 546Q232 553 227.5 559Q223 565 216 570.5Q209 576 197 585V594H638Q647 594 655.5 594.5Q664 595 670 595.5Q676 596 694 599L683 436H674Q657 474 647 492Q637 510 621.5 524Q606 538 582 545.5Q558 553 521 553H400L344 326H426Q457 326 474 328Q491 330 505 337.5Q519 345 534 361Q549 377 570 407H580L529 203H519Q513 233 506.5 249Q500 265 489.5 272.5Q479 280 463 282Q447 284 416 284H333L272 41H415Q450 41 478 49Q506 57 531 73Q556 89 580.5 112.5Q605 136 639 173H653L581 0Z" glyph-name="Ecircumflex.sc" horiz-adv-x="643" /><glyph d="M647 764Q631 764 617 770Q603 776 592 786.5Q581 797 575 811.5Q569 826 569 841Q569 857 575 871.5Q581 886 592 897Q603 908 617 914.5Q631 921 647 921Q663 921 677 914.5Q691 908 702 897Q713 886 719 871.5Q725 857 725 841Q725 826 719 811.5Q713 797 702 786.5Q691 776 677 770Q663 764 647 764ZM438 764Q422 764 408 770Q394 776 383.5 786.5Q373 797 367 811Q361 825 361 841Q361 857 367 871.5Q373 886 383.5 897Q394 908 408 914.5Q422 921 438 921Q454 921 468 914.5Q482 908 493 897Q504 886 510 871.5Q516 857 516 841Q516 826 510 811.5Q504 797 493 786.5Q482 776 468 770Q454 764 438 764ZM49 0V9Q74 24 86 32.5Q98 41 107.5 51.5Q117 62 124 77.5Q131 93 137 118L254 582Q256 592 257 597Q258 602 259 607.5Q260 613 260.5 618Q261 623 261 627Q261 638 258.5 646Q256 654 250.5 661Q245 668 238 674Q231 680 218 691V700H700Q711 700 719.5 700.5Q728 701 735.5 702Q743 703 748.5 704Q754 705 762 706L749 520H740Q721 564 710 585Q699 606 682 622.5Q665 639 638.5 647Q612 655 570 655H428L361 384H461Q495 384 514 386.5Q533 389 549 398Q565 407 581 426Q597 445 621 480H632L573 243H561Q555 279 548.5 297.5Q542 316 531 325Q520 334 502.5 336.5Q485 339 451 339H349L276 45H441Q480 45 511.5 54Q543 63 571 81.5Q599 100 626.5 127Q654 154 693 197H706L626 0Z" glyph-name="Edieresis" horiz-adv-x="684" unicode="&#203;" /><glyph d="M400 672Q384 672 370 678Q356 684 345.5 694.5Q335 705 329 719Q323 733 323 749Q323 765 329 779.5Q335 794 345.5 805Q356 816 370 822.5Q384 829 400 829Q416 829 430.5 822.5Q445 816 455.5 805Q466 794 472 779.5Q478 765 478 749Q478 733 472 719Q466 705 455.5 694.5Q445 684 430.5 678Q416 672 400 672ZM609 672Q593 672 579 678Q565 684 554 694.5Q543 705 537 719.5Q531 734 531 749Q531 765 537 779.5Q543 794 554 805Q565 816 579 822.5Q593 829 609 829Q625 829 639.5 822.5Q654 816 664.5 805Q675 794 681 779.5Q687 765 687 749Q687 733 681 719Q675 705 664.5 694.5Q654 684 639.5 678Q625 672 609 672ZM55 0V9Q78 22 88.5 29Q99 36 107.5 45Q116 54 122 67Q128 80 133 101L231 493Q233 499 234 504.5Q235 510 235.5 514.5Q236 519 236.5 523Q237 527 237 530Q237 539 234.5 546Q232 553 227.5 559Q223 565 216 570.5Q209 576 197 585V594H638Q647 594 655.5 594.5Q664 595 670 595.5Q676 596 694 599L683 436H674Q657 474 647 492Q637 510 621.5 524Q606 538 582 545.5Q558 553 521 553H400L344 326H426Q457 326 474 328Q491 330 505 337.5Q519 345 534 361Q549 377 570 407H580L529 203H519Q513 233 506.5 249Q500 265 489.5 272.5Q479 280 463 282Q447 284 416 284H333L272 41H415Q450 41 478 49Q506 57 531 73Q556 89 580.5 112.5Q605 136 639 173H653L581 0Z" glyph-name="Edieresis.sc" horiz-adv-x="643" /><glyph d="M545 766Q527 766 510.5 772.5Q494 779 482 791Q470 803 463.5 818.5Q457 834 457 852Q457 870 463.5 886.5Q470 903 482 915Q494 927 510.5 933.5Q527 940 545 940Q563 940 579.5 933.5Q596 927 608 915Q620 903 627 886.5Q634 870 634 852Q634 834 627 818.5Q620 803 608 791Q596 779 579.5 772.5Q563 766 545 766ZM49 0V9Q74 24 86 32.5Q98 41 107.5 51.5Q117 62 124 77.5Q131 93 137 118L254 582Q256 592 257 597Q258 602 259 607.5Q260 613 260.5 618Q261 623 261 627Q261 638 258.5 646Q256 654 250.5 661Q245 668 238 674Q231 680 218 691V700H700Q711 700 719.5 700.5Q728 701 735.5 702Q743 703 748.5 704Q754 705 762 706L749 520H740Q721 564 710 585Q699 606 682 622.5Q665 639 638.5 647Q612 655 570 655H428L361 384H461Q495 384 514 386.5Q533 389 549 398Q565 407 581 426Q597 445 621 480H632L573 243H561Q555 279 548.5 297.5Q542 316 531 325Q520 334 502.5 336.5Q485 339 451 339H349L276 45H441Q480 45 511.5 54Q543 63 571 81.5Q599 100 626.5 127Q654 154 693 197H706L626 0Z" glyph-name="Edotaccent" horiz-adv-x="684" unicode="&#278;" /><glyph d="M509 676Q491 676 474.5 682.5Q458 689 446 701Q434 713 427.5 729Q421 745 421 763Q421 781 427.5 797Q434 813 446 825Q458 837 474.5 843.5Q491 850 509 850Q527 850 543.5 843.5Q560 837 572 825Q584 813 591 797Q598 781 598 763Q598 745 591 729Q584 713 572 701Q560 689 543.5 682.5Q527 676 509 676ZM55 0V9Q78 22 88.5 29Q99 36 107.5 45Q116 54 122 67Q128 80 133 101L231 493Q233 499 234 504.5Q235 510 235.5 514.5Q236 519 236.5 523Q237 527 237 530Q237 539 234.5 546Q232 553 227.5 559Q223 565 216 570.5Q209 576 197 585V594H638Q647 594 655.5 594.5Q664 595 670 595.5Q676 596 694 599L683 436H674Q657 474 647 492Q637 510 621.5 524Q606 538 582 545.5Q558 553 521 553H400L344 326H426Q457 326 474 328Q491 330 505 337.5Q519 345 534 361Q549 377 570 407H580L529 203H519Q513 233 506.5 249Q500 265 489.5 272.5Q479 280 463 282Q447 284 416 284H333L272 41H415Q450 41 478 49Q506 57 531 73Q556 89 580.5 112.5Q605 136 639 173H653L581 0Z" glyph-name="Edotaccent.sc" horiz-adv-x="643" /><glyph d="M373 944H535L547 763H523ZM49 0V9Q74 24 86 32.5Q98 41 107.5 51.5Q117 62 124 77.5Q131 93 137 118L254 582Q256 592 257 597Q258 602 259 607.5Q260 613 260.5 618Q261 623 261 627Q261 638 258.5 646Q256 654 250.5 661Q245 668 238 674Q231 680 218 691V700H700Q711 700 719.5 700.5Q728 701 735.5 702Q743 703 748.5 704Q754 705 762 706L749 520H740Q721 564 710 585Q699 606 682 622.5Q665 639 638.5 647Q612 655 570 655H428L361 384H461Q495 384 514 386.5Q533 389 549 398Q565 407 581 426Q597 445 621 480H632L573 243H561Q555 279 548.5 297.5Q542 316 531 325Q520 334 502.5 336.5Q485 339 451 339H349L276 45H441Q480 45 511.5 54Q543 63 571 81.5Q599 100 626.5 127Q654 154 693 197H706L626 0Z" glyph-name="Egrave" horiz-adv-x="684" unicode="&#200;" /><glyph d="M334 857H496L507 669H485ZM55 0V9Q78 22 88.5 29Q99 36 107.5 45Q116 54 122 67Q128 80 133 101L231 493Q233 499 234 504.5Q235 510 235.5 514.5Q236 519 236.5 523Q237 527 237 530Q237 539 234.5 546Q232 553 227.5 559Q223 565 216 570.5Q209 576 197 585V594H638Q647 594 655.5 594.5Q664 595 670 595.5Q676 596 694 599L683 436H674Q657 474 647 492Q637 510 621.5 524Q606 538 582 545.5Q558 553 521 553H400L344 326H426Q457 326 474 328Q491 330 505 337.5Q519 345 534 361Q549 377 570 407H580L529 203H519Q513 233 506.5 249Q500 265 489.5 272.5Q479 280 463 282Q447 284 416 284H333L272 41H415Q450 41 478 49Q506 57 531 73Q556 89 580.5 112.5Q605 136 639 173H653L581 0Z" glyph-name="Egrave.sc" horiz-adv-x="643" /><glyph d="M677 783H378L398 861H697ZM49 0V9Q74 24 86 32.5Q98 41 107.5 51.5Q117 62 124 77.5Q131 93 137 118L254 582Q256 592 257 597Q258 602 259 607.5Q260 613 260.5 618Q261 623 261 627Q261 638 258.5 646Q256 654 250.5 661Q245 668 238 674Q231 680 218 691V700H700Q711 700 719.5 700.5Q728 701 735.5 702Q743 703 748.5 704Q754 705 762 706L749 520H740Q721 564 710 585Q699 606 682 622.5Q665 639 638.5 647Q612 655 570 655H428L361 384H461Q495 384 514 386.5Q533 389 549 398Q565 407 581 426Q597 445 621 480H632L573 243H561Q555 279 548.5 297.5Q542 316 531 325Q520 334 502.5 336.5Q485 339 451 339H349L276 45H441Q480 45 511.5 54Q543 63 571 81.5Q599 100 626.5 127Q654 154 693 197H706L626 0Z" glyph-name="Emacron" horiz-adv-x="684" unicode="&#274;" /><glyph d="M640 691H341L361 769H660ZM55 0V9Q78 22 88.5 29Q99 36 107.5 45Q116 54 122 67Q128 80 133 101L231 493Q233 499 234 504.5Q235 510 235.5 514.5Q236 519 236.5 523Q237 527 237 530Q237 539 234.5 546Q232 553 227.5 559Q223 565 216 570.5Q209 576 197 585V594H638Q647 594 655.5 594.5Q664 595 670 595.5Q676 596 694 599L683 436H674Q657 474 647 492Q637 510 621.5 524Q606 538 582 545.5Q558 553 521 553H400L344 326H426Q457 326 474 328Q491 330 505 337.5Q519 345 534 361Q549 377 570 407H580L529 203H519Q513 233 506.5 249Q500 265 489.5 272.5Q479 280 463 282Q447 284 416 284H333L272 41H415Q450 41 478 49Q506 57 531 73Q556 89 580.5 112.5Q605 136 639 173H653L581 0Z" glyph-name="Emacron.sc" horiz-adv-x="643" /><glyph d="M483 -225Q457 -225 434 -218.5Q411 -212 393.5 -199.5Q376 -187 366 -168.5Q356 -150 356 -128Q356 -106 365.5 -90Q375 -74 390.5 -64Q406 -54 425 -49.5Q444 -45 464 -45Q470 -45 476 -45.5Q482 -46 487 -47Q492 -48 496 -49.5Q500 -51 502 -52Q495 -58 488.5 -66.5Q482 -75 478 -84.5Q474 -94 471.5 -105Q469 -116 469 -127Q469 -139 472 -148Q475 -157 480.5 -163Q486 -169 494 -172.5Q502 -176 513 -176Q528 -176 541 -169Q554 -162 565.5 -147Q577 -132 588 -106.5Q599 -81 609 -43L625 14L309 582L193 118Q192 114 191 109.5Q190 105 189.5 101.5Q189 98 189 94.5Q189 91 189 87Q189 73 193.5 63Q198 53 205.5 45Q213 37 228.5 25Q244 13 249 9V0H29V9Q86 42 99 52.5Q112 63 121.5 78.5Q131 94 137 118L254 582Q256 592 257 597Q258 602 259 607.5Q260 613 260.5 618Q261 623 261 627Q261 638 258.5 646Q256 654 250.5 661Q245 668 238 674Q231 680 218 691V700H419L677 227L765 582Q766 586 767 590.5Q768 595 768.5 598.5Q769 602 769 606Q769 610 769 613Q769 627 764.5 637Q760 647 752.5 655Q745 663 729.5 675.5Q714 688 710 691V700H930V691Q872 658 859 647.5Q846 637 836.5 621.5Q827 606 821 582L665 -44Q653 -92 638 -125Q623 -158 602 -180.5Q581 -203 551.5 -214Q522 -225 483 -225Z" glyph-name="Eng" horiz-adv-x="775" unicode="&#330;" /><glyph d="M606 -44Q594 -91 579 -124.5Q564 -158 543.5 -180.5Q523 -203 495 -214Q467 -225 430 -225Q403 -225 379 -218.5Q355 -212 336.5 -199.5Q318 -187 308 -168.5Q298 -150 298 -128Q298 -106 307 -90Q316 -74 331.5 -64Q347 -54 366 -49.5Q385 -45 405 -45Q411 -45 417.5 -45.5Q424 -46 429 -47Q434 -48 438 -49.5Q442 -51 444 -52Q437 -58 430.5 -66.5Q424 -75 420 -84.5Q416 -94 413.5 -105Q411 -116 411 -127Q411 -139 413.5 -148Q416 -157 421.5 -163Q427 -169 435.5 -172.5Q444 -176 455 -176Q470 -176 483.5 -169.5Q497 -163 509.5 -147.5Q522 -132 533.5 -106Q545 -80 554 -43L568 15L281 487L185 101Q184 97 183 93.5Q182 90 181.5 86.5Q181 83 181 80Q181 77 181 74Q181 62 185 53.5Q189 45 195.5 38.5Q202 32 233 9V0H40V9Q90 37 101 45.5Q112 54 120 67.5Q128 81 133 101L231 493Q232 498 233 503.5Q234 509 235 513.5Q236 518 236 521.5Q236 525 236 529Q236 539 233.5 546Q231 553 226.5 559Q222 565 215.5 570.5Q209 576 197 585V594H389L620 205L692 493Q693 497 693.5 500.5Q694 504 694.5 507Q695 510 695 513Q695 516 695 519Q695 531 691.5 540Q688 549 681.5 555.5Q675 562 660.5 573Q646 584 644 585V594H837V585Q787 557 776 548.5Q765 540 757 526.5Q749 513 744 493Z" glyph-name="Eng.sc" horiz-adv-x="720" /><glyph d="M301 -171Q301 -144 317 -118Q333 -92 363 -68Q393 -44 433 -21Q452 -10 473 0H49V9Q74 24 86 32.5Q98 41 107.5 51.5Q117 62 124 77.5Q131 93 137 118L254 582L257 597Q258 602 259 607.5Q260 613 260.5 618Q261 623 261 627Q261 638 258.5 646Q256 654 250.5 661Q245 668 238 674Q231 680 218 691V700H700Q711 700 719.5 700.5Q728 701 735.5 702Q743 703 748.5 704Q754 705 762 706L749 520H740Q721 564 710 585Q699 606 682 622.5Q665 639 638.5 647Q612 655 570 655H428L361 384H461Q495 384 514 386.5Q533 389 549 398Q565 407 581 426Q597 445 621 480H632L573 243H561Q555 279 548.5 297.5Q542 316 531 325Q520 334 502.5 336.5Q485 339 451 339H349L276 45H441Q480 45 511.5 54Q543 63 571 81.5Q599 100 626.5 127Q654 154 693 197H706L626 0H530Q499 -17 475 -35Q450 -54 434.5 -71.5Q419 -89 412 -105.5Q405 -122 405 -137Q405 -146 408.5 -153Q412 -160 417.5 -164.5Q423 -169 431 -171.5Q439 -174 449 -174Q464 -174 477 -170.5Q490 -167 502.5 -159.5Q515 -152 527 -142Q539 -132 555 -117L570 -131Q553 -157 533.5 -177Q514 -197 491.5 -211.5Q469 -226 443 -233.5Q417 -241 387 -241Q368 -241 352.5 -236Q337 -231 325.5 -222Q314 -213 307.5 -200Q301 -187 301 -171Z" glyph-name="Eogonek" horiz-adv-x="684" unicode="&#280;" /><glyph d="M273 -171Q273 -144 289 -118Q305 -92 335 -68Q365 -44 405.5 -21Q446 2 497 24L508 3Q473 -16 447.5 -35Q422 -54 406.5 -71.5Q391 -89 384 -105.5Q377 -122 377 -137Q377 -146 380.5 -153Q384 -160 389.5 -164.5Q395 -169 403 -171.5Q411 -174 421 -174Q436 -174 449 -170.5Q462 -167 474.5 -159.5Q487 -152 499 -142Q511 -132 527 -117L542 -131Q525 -157 505.5 -177Q486 -197 463.5 -211.5Q441 -226 415 -233.5Q389 -241 359 -241Q340 -241 324.5 -236Q309 -231 297.5 -222Q286 -213 279.5 -200Q273 -187 273 -171ZM55 0V9Q78 22 88.5 29Q99 36 107.5 45Q116 54 122 67Q128 80 133 101L231 493Q233 499 234 504.5Q235 510 235.5 514.5Q236 519 236.5 523Q237 527 237 530Q237 539 234.5 546Q232 553 227.5 559Q223 565 216 570.5Q209 576 197 585V594H638Q647 594 655.5 594.5Q664 595 670 595.5Q676 596 694 599L683 436H674Q657 474 647 492Q637 510 621.5 524Q606 538 582 545.5Q558 553 521 553H400L344 326H426Q457 326 474 328Q491 330 505 337.5Q519 345 534 361Q549 377 570 407H580L529 203H519Q513 233 506.5 249Q500 265 489.5 272.5Q479 280 463 282Q447 284 416 284H333L272 41H415Q450 41 478 49Q506 57 531 73Q556 89 580.5 112.5Q605 136 639 173H653L581 0Z" glyph-name="Eogonek.sc" horiz-adv-x="643" /><glyph d="M378 0H58V9Q83 24 95 32.5Q107 41 116.5 51.5Q126 62 133 77.5Q140 93 146 118L201 338H129L140 384H213L263 582Q265 589 266 595.5Q267 602 267.5 607.5Q268 613 268.5 618Q269 623 269 627Q269 638 266.5 646Q264 654 259 661Q254 668 247 674Q240 680 227 691V700H518Q590 700 651 681Q712 662 757 626.5Q802 591 826 540Q850 489 850 426Q850 332 816 253.5Q782 175 719 118Q656 61 568.5 30.5Q481 0 378 0ZM285 47H371Q448 47 508 79.5Q568 112 607.5 167.5Q647 223 667 290.5Q687 358 687 427Q687 478 676 519.5Q665 561 641.5 591Q618 621 582 637Q546 653 498 653H437L370 384H505L494 338H358Z" glyph-name="Eth" horiz-adv-x="802" unicode="&#208;" /><glyph d="M356 0H62V9Q85 22 96 29Q107 36 115.5 45Q124 54 130 67Q136 80 141 101L188 287H119L128 328H198L239 493Q240 499 241 504Q242 509 242.5 513.5Q243 518 243.5 522Q244 526 244 530Q244 539 241.5 546Q239 553 234.5 559Q230 565 223.5 570.5Q217 576 205 585V594H474Q539 594 594.5 578Q650 562 691.5 532Q733 502 755.5 458.5Q778 415 779 361V356Q779 278 748.5 212Q718 146 661.5 98.5Q605 51 527 25.5Q449 0 356 0ZM281 42H347Q414 42 465.5 69.5Q517 97 550.5 143.5Q584 190 600.5 245.5Q617 301 617 357V362Q617 405 607 440Q597 475 577 500Q557 525 526.5 538.5Q496 552 454 552H408L352 328H464L454 287H342Z" glyph-name="Eth.sc" horiz-adv-x="750" /><glyph d="M719 192Q698 142 668.5 104Q639 66 602.5 40.5Q566 15 524.5 2.5Q483 -10 439 -10Q380 -10 332.5 9.5Q285 29 253 65Q221 101 204.5 149Q188 197 188 254V274H95L105 315H191Q192 324 193.5 332.5Q195 341 196.5 350Q198 359 200 367.5Q202 376 204 386H124L134 427H217Q239 490 275.5 542Q312 594 360 631.5Q408 669 464.5 689Q521 709 582 709Q627 709 664.5 699Q702 689 728.5 670.5Q755 652 769.5 627Q784 602 784 573Q784 550 776.5 530.5Q769 511 755.5 496.5Q742 482 723.5 474.5Q705 467 685 467Q674 467 664.5 469Q655 471 647 474Q639 477 633 481.5Q627 486 622 491Q634 495 644 504.5Q654 514 661.5 527Q669 540 673 555.5Q677 571 677 588Q677 605 672.5 619.5Q668 634 657.5 644.5Q647 655 631 660.5Q615 666 594 666Q560 666 528 647.5Q496 629 468 595.5Q440 562 417.5 519Q395 476 379 427H556L536 386H367Q365 377 363 368Q361 359 359.5 350.5Q358 342 356.5 333Q355 324 354 315H499L478 274H350V254Q350 212 360.5 178.5Q371 145 391 121Q411 97 440 84.5Q469 72 504 72Q532 72 555.5 77.5Q579 83 602 97Q625 111 649 136.5Q673 162 700 201Z" glyph-name="Euro" horiz-adv-x="699" unicode="&#8364;" /><glyph d="M661 192Q642 142 615 104Q588 66 554.5 40.5Q521 15 483 2.5Q445 -10 405 -10Q351 -10 307.5 9.5Q264 29 234.5 65Q205 101 190 149Q175 197 175 254V274H98L107 315H178Q179 324 180.5 333Q182 342 183.5 351Q185 360 187 369Q189 378 191 386H126L137 427H203Q224 489 258.5 541Q293 593 338.5 631Q384 669 436.5 689Q489 709 544 709Q586 709 620 699Q654 689 678.5 670.5Q703 652 716 627Q729 602 729 573Q729 550 721.5 530.5Q714 511 700 496.5Q686 482 669 474.5Q652 467 633 467Q622 467 611.5 469Q601 471 592.5 474.5Q584 478 578 482.5Q572 487 568 492Q579 497 589 506.5Q599 516 607 528.5Q615 541 619.5 556.5Q624 572 624 588Q624 606 620 620Q616 634 607 644.5Q598 655 585 660.5Q572 666 555 666Q524 666 495 647.5Q466 629 441 595.5Q416 562 395.5 519Q375 476 361 427H556L536 386H351Q349 377 347.5 368Q346 359 344.5 350.5Q343 342 341.5 333Q340 324 339 315H499L479 274H336V254Q336 212 344.5 178.5Q353 145 370 121Q387 97 410.5 84.5Q434 72 464 72Q490 72 511.5 77.5Q533 83 554.5 97Q576 111 597.5 136.5Q619 162 643 202Z" glyph-name="Euro.lt" horiz-adv-x="640" /><glyph d="M697 172Q677 127 649 92.5Q621 58 587 35.5Q553 13 513.5 1.5Q474 -10 431 -10Q374 -10 328 7.5Q282 25 250.5 57.5Q219 90 203 133Q187 176 187 227Q187 231 187 233.5Q187 236 187 238.5Q187 241 187.5 244Q188 247 188 249H95L106 290H191Q192 298 193.5 305.5Q195 313 197 321Q199 329 201 336.5Q203 344 205 352H122L132 393H219Q241 447 276.5 492Q312 537 357.5 569.5Q403 602 456 619.5Q509 637 565 637Q608 637 643.5 627.5Q679 618 704.5 601Q730 584 743.5 561Q757 538 758 511Q758 490 751 473Q744 456 731 443.5Q718 431 700.5 424Q683 417 664 417Q653 417 643.5 418.5Q634 420 626 423Q618 426 612 429.5Q606 433 601 438Q612 442 622 450.5Q632 459 639 470.5Q646 482 650 496Q654 510 654 525Q654 541 650 553.5Q646 566 636.5 575Q627 584 612 589Q597 594 577 594Q545 594 515.5 578.5Q486 563 460 535Q434 507 412.5 471Q391 435 376 393H546L526 352H363Q360 338 358.5 333Q357 328 355.5 320.5Q354 313 353 305Q352 297 351 290H491L471 249H347Q347 246 346.5 244Q346 242 346 239.5Q346 237 346 234.5Q346 232 346 229Q346 191 356 161.5Q366 132 385 111.5Q404 91 430.5 80.5Q457 70 491 70Q518 70 540.5 75Q563 80 585 92Q607 104 630.5 127Q654 150 679 185Z" glyph-name="Euro.op" horiz-adv-x="685" /><glyph d="M649 172Q631 127 605.5 92.5Q580 58 548.5 35.5Q517 13 481 1.5Q445 -10 406 -10Q354 -10 312 7.5Q270 25 241.5 57.5Q213 90 198 133Q183 176 183 227Q183 231 183 233.5Q183 236 183 238.5Q183 241 183.5 244Q184 247 184 249H97L108 290H187Q188 298 189.5 305.5Q191 313 192.5 321Q194 329 196 336Q198 343 200 352H122L132 393H214Q236 447 270 492Q304 537 347.5 569.5Q391 602 440.5 619.5Q490 637 542 637Q581 637 614.5 627.5Q648 618 672.5 601Q697 584 710.5 561Q724 538 725 511Q725 491 718 473.5Q711 456 699 443.5Q687 431 671 424Q655 417 638 417Q628 417 618.5 418.5Q609 420 600.5 423Q592 426 586 430Q580 434 576 438Q586 442 594.5 450.5Q603 459 610 470.5Q617 482 620.5 496Q624 510 624 525Q624 541 620 553.5Q616 566 607.5 575Q599 584 585.5 589Q572 594 553 594Q524 594 496.5 578.5Q469 563 445 535Q421 507 402 471Q383 435 369 393H511L491 352H357Q355 344 353.5 336.5Q352 329 350.5 321Q349 313 347.5 305.5Q346 298 345 290H460L440 249H341V229Q341 190 348 160.5Q355 131 370 111Q385 91 407.5 80.5Q430 70 460 70Q485 70 505 75Q525 80 544.5 92Q564 104 585 126.5Q606 149 629 185Z" glyph-name="Euro.ot" horiz-adv-x="640" /><glyph d="M636 163Q618 121 593.5 88.5Q569 56 538 34Q507 12 471 1Q435 -10 395 -10Q341 -10 300 7.5Q259 25 232 56Q205 87 191.5 128.5Q178 170 178 217V233H99L107 270H181Q182 277 183 284.5Q184 292 185 299Q186 306 187.5 312.5Q189 319 191 328H122L131 364H202Q221 418 252.5 462Q284 506 325 538Q366 570 414.5 587Q463 604 515 604Q554 604 586.5 595Q619 586 642.5 570Q666 554 678.5 532Q691 510 691 485Q691 465 684.5 448Q678 431 665.5 418.5Q653 406 637 399.5Q621 393 603 393Q593 393 584 394.5Q575 396 567.5 399.5Q560 403 554 407.5Q548 412 544 417Q555 421 564 428.5Q573 436 580 447Q587 458 590.5 471.5Q594 485 594 500Q594 514 590 525.5Q586 537 578.5 545Q571 553 558.5 557.5Q546 562 529 562Q502 562 476 546.5Q450 531 428 503.5Q406 476 388 440.5Q370 405 357 364H498L480 328H348Q346 321 344.5 314Q343 307 342 300Q341 293 340 287.5Q339 282 337 270H451L433 233H334V217Q334 183 342 155Q350 127 366 107.5Q382 88 405 77.5Q428 67 457 67Q480 67 499.5 72Q519 77 538 89Q557 101 576.5 121Q596 141 616 171Z" glyph-name="Euro.sc" horiz-adv-x="633" /><glyph d="M636 163Q618 121 593.5 88.5Q569 56 538 34Q507 12 471 1Q435 -10 395 -10Q341 -10 300 7.5Q259 25 232 56Q205 87 191.5 128.5Q178 170 178 217V233H99L107 270H181Q182 277 183 284.5Q184 292 185 299Q186 306 187.5 312.5Q189 319 191 328H122L131 364H202Q221 418 252.5 462Q284 506 325 538Q366 570 414.5 587Q463 604 515 604Q554 604 586.5 595Q619 586 642.5 570Q666 554 678.5 532Q691 510 691 485Q691 465 684.5 448Q678 431 665.5 418.5Q653 406 637 399.5Q621 393 603 393Q593 393 584 394.5Q575 396 567.5 399.5Q560 403 554 407.5Q548 412 544 417Q555 421 564 428.5Q573 436 580 447Q587 458 590.5 471.5Q594 485 594 500Q594 514 590 525.5Q586 537 578.5 545Q571 553 558.5 557.5Q546 562 529 562Q502 562 476 546.5Q450 531 428 503.5Q406 476 388 440.5Q370 405 357 364H498L480 328H348Q346 321 344.5 314Q343 307 342 300Q341 293 340 287.5Q339 282 337 270H451L433 233H334V217Q334 183 342 155Q350 127 366 107.5Q382 88 405 77.5Q428 67 457 67Q480 67 499.5 72Q519 77 538 89Q557 101 576.5 121Q596 141 616 171Z" glyph-name="Euro.st" horiz-adv-x="640" /><glyph d="M352 0H49V9Q74 24 86 32.5Q98 41 107.5 51.5Q117 62 124 77.5Q131 93 137 118L254 582Q256 592 257 597Q258 602 259 607.5Q260 613 260.5 618Q261 623 261 627Q261 638 258.5 646Q256 654 250.5 661Q245 668 238 674Q231 680 218 691V700H695Q706 700 714.5 700.5Q723 701 730.5 702Q738 703 743.5 704Q749 705 757 706L744 520H735Q716 564 705 585Q694 606 677 622Q660 638 633.5 646.5Q607 655 565 655H428L357 368H453Q487 368 506 370.5Q525 373 540.5 382Q556 391 572 410Q588 429 612 464H623L564 227H553Q547 263 540.5 281.5Q534 300 522.5 309Q511 318 493.5 320.5Q476 323 442 323H346L295 118Q294 112 293 107.5Q292 103 291.5 99Q291 95 290.5 91Q290 87 290 83Q290 70 294 60Q298 50 306 42.5Q314 35 321.5 29.5Q329 24 352 9Z" glyph-name="F" horiz-adv-x="644" unicode="F" /><glyph d="M339 0H55V9Q78 22 88.5 29Q99 36 107.5 45Q116 54 122 67Q128 80 133 101L231 493Q233 499 234 504.5Q235 510 235.5 514.5Q236 519 236.5 523Q237 527 237 530Q237 539 234.5 546Q232 553 227.5 559Q223 565 216 570.5Q209 576 197 585V594H634Q643 594 651 594.5Q659 595 665.5 595.5Q672 596 680.5 597.5Q689 599 689 599L677 433H669Q649 475 640 491.5Q631 508 616 523Q601 538 577.5 545.5Q554 553 516 553H400L340 312H418Q449 312 465.5 314Q482 316 496 323.5Q510 331 525 347Q540 363 561 393H572L521 189H511Q505 219 498.5 235Q492 251 481.5 259Q471 267 455 269Q439 271 408 271H331L288 101Q288 101 287 95Q286 89 285.5 85.5Q285 82 284.5 79Q284 76 284 73Q284 61 288 52.5Q292 44 298.5 37.5Q305 31 311 27Q317 23 339 9Z" glyph-name="F.sc" horiz-adv-x="605" /><glyph d="M754 466Q740 510 723.5 545Q707 580 684 606.5Q661 633 630.5 647.5Q600 662 561 662Q503 662 454 634Q405 606 369.5 555Q334 504 315 435.5Q296 367 296 289Q296 236 309 193.5Q322 151 346.5 121.5Q371 92 405 76.5Q439 61 481 61Q496 61 509 63.5Q522 66 534 70.5Q546 75 558 82.5Q570 90 582 100L613 221Q615 228 616.5 234.5Q618 241 619 246.5Q620 252 620.5 257Q621 262 621 267Q621 277 618.5 285Q616 293 611 300Q606 307 599 313Q592 319 579 330V339H848V330Q824 316 811 307.5Q798 299 789 288Q780 277 773 261.5Q766 246 760 221L702 -8H682L610 74Q589 55 567.5 39.5Q546 24 521.5 13Q497 2 470.5 -4Q444 -10 415 -10Q352 -10 299 10Q246 30 207.5 68.5Q169 107 148 161.5Q127 216 127 283Q127 370 160.5 448Q194 526 254 585Q314 644 392 677Q470 710 557 710Q585 710 611.5 705Q638 700 662 692Q686 684 705 673Q724 662 737 651L798 709H812L768 466Z" glyph-name="G" horiz-adv-x="785" unicode="G" /><glyph d="M687 389Q674 427 658.5 457.5Q643 488 622.5 511Q602 534 574.5 546.5Q547 559 512 559Q462 559 420.5 536.5Q379 514 349 472.5Q319 431 303 375.5Q287 320 287 256V248Q287 203 299 167Q311 131 332.5 106Q354 81 384.5 68Q415 55 452 55Q462 55 471.5 56.5Q481 58 489.5 61Q498 64 506.5 68.5Q515 73 524 80L552 187Q554 193 555.5 198.5Q557 204 557.5 208.5Q558 213 558.5 217Q559 221 559 225Q559 234 556.5 241Q554 248 549.5 254Q545 260 538.5 265.5Q532 271 520 281V289H775V281Q752 268 741 260.5Q730 253 722 243.5Q714 234 708 221Q702 208 697 187L648 -6H631L556 59Q538 43 518.5 31Q499 19 477.5 10Q456 1 432.5 -3.5Q409 -8 384 -8Q328 -8 280 8.5Q232 25 196.5 57.5Q161 90 141 136.5Q121 183 120 241V244Q120 317 150 382.5Q180 448 233.5 497.5Q287 547 358 575Q429 603 507 603Q531 603 555 599Q579 595 600.5 588Q622 581 639.5 572Q657 563 669 553L727 603H736L698 389Z" glyph-name="G.sc" horiz-adv-x="732" /><glyph d="M515 949Q515 930 523 915.5Q531 901 545 892Q559 883 577 879Q595 875 615 875Q637 875 658.5 880Q680 885 699.5 895.5Q719 906 734.5 922.5Q750 939 760 961H788Q777 919 758 884Q739 849 714 823.5Q689 798 659.5 784Q630 770 597 770Q570 770 548.5 779Q527 788 512 805.5Q497 823 489 847Q481 871 481 901Q481 908 481.5 915Q482 922 482.5 929.5Q483 937 484.5 945Q486 953 488 961H515ZM754 466Q740 510 723.5 545Q707 580 684 606.5Q661 633 630.5 647.5Q600 662 561 662Q503 662 454 634Q405 606 369.5 555Q334 504 315 435.5Q296 367 296 289Q296 236 309 193.5Q322 151 346.5 121.5Q371 92 405 76.5Q439 61 481 61Q496 61 509 63.5Q522 66 534 70.5Q546 75 558 82.5Q570 90 582 100L613 221Q615 228 616.5 234.5Q618 241 619 246.5Q620 252 620.5 257Q621 262 621 267Q621 277 618.5 285Q616 293 611 300Q606 307 599 313Q592 319 579 330V339H848V330Q824 316 811 307.5Q798 299 789 288Q780 277 773 261.5Q766 246 760 221L702 -8H682L610 74Q589 55 567.5 39.5Q546 24 521.5 13Q497 2 470.5 -4Q444 -10 415 -10Q352 -10 299 10Q246 30 207.5 68.5Q169 107 148 161.5Q127 216 127 283Q127 370 160.5 448Q194 526 254 585Q314 644 392 677Q470 710 557 710Q585 710 611.5 705Q638 700 662 692Q686 684 705 673Q724 662 737 651L798 709H812L768 466Z" glyph-name="Gbreve" horiz-adv-x="785" unicode="&#286;" /><glyph d="M687 389Q674 427 658.5 457.5Q643 488 622.5 511Q602 534 574.5 546.5Q547 559 512 559Q462 559 420.5 536.5Q379 514 349 472.5Q319 431 303 375.5Q287 320 287 256V248Q287 203 299 167Q311 131 332.5 106Q354 81 384.5 68Q415 55 452 55Q462 55 471.5 56.5Q481 58 489.5 61Q498 64 506.5 68.5Q515 73 524 80L552 187Q554 193 555.5 198.5Q557 204 557.5 208.5Q558 213 558.5 217Q559 221 559 225Q559 234 556.5 241Q554 248 549.5 254Q545 260 538.5 265.5Q532 271 520 281V289H775V281Q752 268 741 260.5Q730 253 722 243.5Q714 234 708 221Q702 208 697 187L648 -6H631L556 59Q538 43 518.5 31Q499 19 477.5 10Q456 1 432.5 -3.5Q409 -8 384 -8Q328 -8 280 8.5Q232 25 196.5 57.5Q161 90 141 136.5Q121 183 120 241V244Q120 317 150 382.5Q180 448 233.5 497.5Q287 547 358 575Q429 603 507 603Q531 603 555 599Q579 595 600.5 588Q622 581 639.5 572Q657 563 669 553L727 603H736L698 389ZM462 856Q462 836 470 821.5Q478 807 492 798Q506 789 524 784.5Q542 780 562 780Q584 780 605.5 785Q627 790 646.5 801Q666 812 682 829Q698 846 708 869H735Q723 827 704 791.5Q685 756 660.5 730Q636 704 606 690Q576 676 543 676Q516 676 495 685Q474 694 459 711.5Q444 729 436 753Q428 777 428 806Q428 814 428.5 821.5Q429 829 430 836.5Q431 844 432.5 852.5Q434 861 436 869H463Q463 867 462.5 865.5Q462 864 462 862.5Q462 861 462 859.5Q462 858 462 856Z" glyph-name="Gbreve.sc" horiz-adv-x="732" /><glyph d="M754 466Q740 510 723.5 545Q707 580 684 606.5Q661 633 630.5 647.5Q600 662 561 662Q503 662 454 634Q405 606 369.5 555Q334 504 315 435.5Q296 367 296 289Q296 236 309 193.5Q322 151 346.5 121.5Q371 92 405 76.5Q439 61 481 61Q496 61 509 63.5Q522 66 534 70.5Q546 75 558 82.5Q570 90 582 100L613 221Q615 228 616.5 234.5Q618 241 619 246.5Q620 252 620.5 257Q621 262 621 267Q621 277 618.5 285Q616 293 611 300Q606 307 599 313Q592 319 579 330V339H848V330Q824 316 811 307.5Q798 299 789 288Q780 277 773 261.5Q766 246 760 221L702 -8H682L610 74Q589 55 567.5 39.5Q546 24 521.5 13Q497 2 470.5 -4Q444 -10 415 -10Q352 -10 299 10Q246 30 207.5 68.5Q169 107 148 161.5Q127 216 127 283Q127 370 160.5 448Q194 526 254 585Q314 644 392 677Q470 710 557 710Q585 710 611.5 705Q638 700 662 692Q686 684 705 673Q724 662 737 651L798 709H812L768 466ZM644 961Q650 941 661.5 916.5Q673 892 688 866Q703 840 720 813.5Q737 787 757 757H719Q703 766 689 776Q675 786 662 796.5Q649 807 638 817Q627 827 613 841Q594 829 574 817.5Q554 806 532.5 795.5Q511 785 488 775Q465 765 441 757H403Q446 793 474.5 817Q503 841 531.5 866.5Q560 892 584.5 916.5Q609 941 626 961Z" glyph-name="Gcircumflex" horiz-adv-x="785" unicode="&#284;" /><glyph d="M595 883Q601 862 612.5 834.5Q624 807 639 776.5Q654 746 671 716Q688 686 705 660H667Q651 670 637 681Q623 692 610.5 703.5Q598 715 586.5 727Q575 739 562 754Q543 741 522 728.5Q501 716 479 704.5Q457 693 435 681.5Q413 670 390 660H351Q382 686 414.5 716Q447 746 477 776Q507 806 533 833.5Q559 861 577 883ZM687 389Q674 427 658.5 457.5Q643 488 622.5 511Q602 534 574.5 546.5Q547 559 512 559Q462 559 420.5 536.5Q379 514 349 472.5Q319 431 303 375.5Q287 320 287 256V248Q287 203 299 167Q311 131 332.5 106Q354 81 384.5 68Q415 55 452 55Q462 55 471.5 56.5Q481 58 489.5 61Q498 64 506.5 68.5Q515 73 524 80L552 187Q554 193 555.5 198.5Q557 204 557.5 208.5Q558 213 558.5 217Q559 221 559 225Q559 234 556.5 241Q554 248 549.5 254Q545 260 538.5 265.5Q532 271 520 281V289H775V281Q752 268 741 260.5Q730 253 722 243.5Q714 234 708 221Q702 208 697 187L648 -6H631L556 59Q538 43 518.5 31Q499 19 477.5 10Q456 1 432.5 -3.5Q409 -8 384 -8Q328 -8 280 8.5Q232 25 196.5 57.5Q161 90 141 136.5Q121 183 120 241V244Q120 317 150 382.5Q180 448 233.5 497.5Q287 547 358 575Q429 603 507 603Q531 603 555 599Q579 595 600.5 588Q622 581 639.5 572Q657 563 669 553L727 603H736L698 389Z" glyph-name="Gcircumflex.sc" horiz-adv-x="732" /><glyph d="M388 -171Q384 -174 379 -176Q374 -178 369 -179.5Q364 -181 358.5 -181.5Q353 -182 347 -182Q335 -182 324.5 -178.5Q314 -175 306.5 -167.5Q299 -160 295 -150.5Q291 -141 291 -129Q291 -114 297.5 -101Q304 -88 315.5 -78.5Q327 -69 342.5 -63.5Q358 -58 376 -58Q394 -58 409 -64.5Q424 -71 435 -82.5Q446 -94 451.5 -109Q457 -124 457 -141Q457 -173 443 -199Q429 -225 402.5 -243Q376 -261 340 -270Q304 -279 260 -279L265 -248Q291 -247 312.5 -241.5Q334 -236 349.5 -226Q365 -216 375 -202Q385 -188 388 -171ZM754 466Q740 510 723.5 545Q707 580 684 606.5Q661 633 630.5 647.5Q600 662 561 662Q503 662 454 634Q405 606 369.5 555Q334 504 315 435.5Q296 367 296 289Q296 236 309 193.5Q322 151 346.5 121.5Q371 92 405 76.5Q439 61 481 61Q496 61 509 63.5Q522 66 534 70.5Q546 75 558 82.5Q570 90 582 100L613 221Q615 228 616.5 234.5Q618 241 619 246.5Q620 252 620.5 257Q621 262 621 267Q621 277 618.5 285Q616 293 611 300Q606 307 599 313Q592 319 579 330V339H848V330Q824 316 811 307.5Q798 299 789 288Q780 277 773 261.5Q766 246 760 221L702 -8H682L610 74Q589 55 567.5 39.5Q546 24 521.5 13Q497 2 470.5 -4Q444 -10 415 -10Q352 -10 299 10Q246 30 207.5 68.5Q169 107 148 161.5Q127 216 127 283Q127 370 160.5 448Q194 526 254 585Q314 644 392 677Q470 710 557 710Q585 710 611.5 705Q638 700 662 692Q686 684 705 673Q724 662 737 651L798 709H812L768 466Z" glyph-name="Gcommaaccent" horiz-adv-x="785" unicode="&#290;" /><glyph d="M361 -171Q357 -174 352 -176Q347 -178 342 -179.5Q337 -181 331.5 -181.5Q326 -182 320 -182Q308 -182 297.5 -178.5Q287 -175 279.5 -167.5Q272 -160 268 -150.5Q264 -141 264 -129Q264 -114 270.5 -101Q277 -88 288.5 -78.5Q300 -69 315.5 -63.5Q331 -58 349 -58Q367 -58 382 -64.5Q397 -71 408 -82.5Q419 -94 424.5 -109Q430 -124 430 -141Q430 -173 416 -199Q402 -225 375.5 -243Q349 -261 313 -270Q277 -279 233 -279L238 -248Q264 -247 285.5 -241.5Q307 -236 322.5 -226Q338 -216 348 -202Q358 -188 361 -171ZM687 389Q674 427 658.5 457.5Q643 488 622.5 511Q602 534 574.5 546.5Q547 559 512 559Q462 559 420.5 536.5Q379 514 349 472.5Q319 431 303 375.5Q287 320 287 256V248Q287 203 299 167Q311 131 332.5 106Q354 81 384.5 68Q415 55 452 55Q462 55 471.5 56.5Q481 58 489.5 61Q498 64 506.5 68.5Q515 73 524 80L552 187Q554 193 555.5 198.5Q557 204 557.5 208.5Q558 213 558.5 217Q559 221 559 225Q559 234 556.5 241Q554 248 549.5 254Q545 260 538.5 265.5Q532 271 520 281V289H775V281Q752 268 741 260.5Q730 253 722 243.5Q714 234 708 221Q702 208 697 187L648 -6H631L556 59Q538 43 518.5 31Q499 19 477.5 10Q456 1 432.5 -3.5Q409 -8 384 -8Q328 -8 280 8.5Q232 25 196.5 57.5Q161 90 141 136.5Q121 183 120 241V244Q120 317 150 382.5Q180 448 233.5 497.5Q287 547 358 575Q429 603 507 603Q531 603 555 599Q579 595 600.5 588Q622 581 639.5 572Q657 563 669 553L727 603H736L698 389Z" glyph-name="Gcommaaccent.sc" horiz-adv-x="732" /><glyph d="M613 766Q595 766 578.5 772.5Q562 779 550 791Q538 803 531.5 818.5Q525 834 525 852Q525 870 531.5 886.5Q538 903 550 915Q562 927 578.5 933.5Q595 940 613 940Q631 940 647.5 933.5Q664 927 676 915Q688 903 695 886.5Q702 870 702 852Q702 834 695 818.5Q688 803 676 791Q664 779 647.5 772.5Q631 766 613 766ZM754 466Q740 510 723.5 545Q707 580 684 606.5Q661 633 630.5 647.5Q600 662 561 662Q503 662 454 634Q405 606 369.5 555Q334 504 315 435.5Q296 367 296 289Q296 236 309 193.5Q322 151 346.5 121.5Q371 92 405 76.5Q439 61 481 61Q496 61 509 63.5Q522 66 534 70.5Q546 75 558 82.5Q570 90 582 100L613 221Q615 228 616.5 234.5Q618 241 619 246.5Q620 252 620.5 257Q621 262 621 267Q621 277 618.5 285Q616 293 611 300Q606 307 599 313Q592 319 579 330V339H848V330Q824 316 811 307.5Q798 299 789 288Q780 277 773 261.5Q766 246 760 221L702 -8H682L610 74Q589 55 567.5 39.5Q546 24 521.5 13Q497 2 470.5 -4Q444 -10 415 -10Q352 -10 299 10Q246 30 207.5 68.5Q169 107 148 161.5Q127 216 127 283Q127 370 160.5 448Q194 526 254 585Q314 644 392 677Q470 710 557 710Q585 710 611.5 705Q638 700 662 692Q686 684 705 673Q724 662 737 651L798 709H812L768 466Z" glyph-name="Gdotaccent" horiz-adv-x="785" unicode="&#288;" /><glyph d="M687 389Q674 427 658.5 457.5Q643 488 622.5 511Q602 534 574.5 546.5Q547 559 512 559Q462 559 420.5 536.5Q379 514 349 472.5Q319 431 303 375.5Q287 320 287 256V248Q287 203 299 167Q311 131 332.5 106Q354 81 384.5 68Q415 55 452 55Q462 55 471.5 56.5Q481 58 489.5 61Q498 64 506.5 68.5Q515 73 524 80L552 187Q554 193 555.5 198.5Q557 204 557.5 208.5Q558 213 558.5 217Q559 221 559 225Q559 234 556.5 241Q554 248 549.5 254Q545 260 538.5 265.5Q532 271 520 281V289H775V281Q752 268 741 260.5Q730 253 722 243.5Q714 234 708 221Q702 208 697 187L648 -6H631L556 59Q538 43 518.5 31Q499 19 477.5 10Q456 1 432.5 -3.5Q409 -8 384 -8Q328 -8 280 8.5Q232 25 196.5 57.5Q161 90 141 136.5Q121 183 120 241V244Q120 317 150 382.5Q180 448 233.5 497.5Q287 547 358 575Q429 603 507 603Q531 603 555 599Q579 595 600.5 588Q622 581 639.5 572Q657 563 669 553L727 603H736L698 389ZM563 676Q545 676 528.5 682.5Q512 689 500 701Q488 713 481.5 729Q475 745 475 763Q475 781 481.5 797Q488 813 500 825Q512 837 528.5 843.5Q545 850 563 850Q581 850 597.5 843.5Q614 837 626 825Q638 813 645 797Q652 781 652 763Q652 745 645 729Q638 713 626 701Q614 689 597.5 682.5Q581 676 563 676Z" glyph-name="Gdotaccent.sc" horiz-adv-x="732" /><glyph d="M49 0V9Q74 24 86 32.5Q98 41 107.5 51.5Q117 62 124 77.5Q131 93 137 118L254 582Q256 589 257 595.5Q258 602 258.5 607.5Q259 613 259.5 618Q260 623 260 627Q260 638 257.5 646Q255 654 250 661Q245 668 238 674Q231 680 218 691V700H499V691Q474 676 461.5 667.5Q449 659 439.5 648.5Q430 638 423 622.5Q416 607 410 582L361 384H685L734 582Q736 592 737 597Q738 602 739 607.5Q740 613 740.5 618Q741 623 741 627Q741 638 738.5 646Q736 654 730.5 661Q725 668 718.5 674Q712 680 699 691V700H980V691Q955 676 942.5 667.5Q930 659 920.5 648.5Q911 638 904 622.5Q897 607 891 582L775 118Q773 111 771.5 104.5Q770 98 769.5 92.5Q769 87 768.5 82.5Q768 78 768 73Q768 62 770.5 54Q773 46 778 39Q783 32 790.5 25.5Q798 19 811 9V0H530V9Q555 24 567 32.5Q579 41 588.5 51.5Q598 62 605 77.5Q612 93 618 118L673 338H349L294 118Q292 108 291 103Q290 98 289 92.5Q288 87 287.5 82Q287 77 287 73Q287 62 289.5 54Q292 46 297.5 39Q303 32 310 26Q317 20 330 9V0Z" glyph-name="H" horiz-adv-x="854" unicode="H" /><glyph d="M54 0V9Q77 22 88 29Q99 36 107.5 45Q116 54 122 67Q128 80 133 101L230 493Q232 499 233 504.5Q234 510 234.5 514.5Q235 519 235.5 523Q236 527 236 530Q236 539 233.5 546Q231 553 226.5 559Q222 565 216 570Q210 575 198 585L197 594H464V585Q441 572 430.5 565Q420 558 411.5 549Q403 540 397 527Q391 514 386 493L345 327H618L659 493Q661 499 662 504.5Q663 510 663.5 514.5Q664 519 664.5 523Q665 527 665 530Q665 539 662.5 546Q660 553 655.5 559Q651 565 644.5 570.5Q638 576 626 585V594H893V585Q870 572 859 565Q848 558 839.5 549Q831 540 825 527Q819 514 814 493L717 101Q715 95 714 89.5Q713 84 712.5 79.5Q712 75 711.5 71Q711 67 711 64Q711 55 713.5 48Q716 41 720.5 35Q725 29 731.5 23.5Q738 18 750 9V0H483V9Q506 22 517 29Q528 36 536.5 45Q545 54 551 67Q557 80 562 101L608 287H335L289 101Q287 95 286 89.5Q285 84 284.5 79.5Q284 75 283.5 71Q283 67 283 63Q283 54 285 47Q287 40 292 34Q297 28 303.5 22.5Q310 17 321 9V0Z" glyph-name="H.sc" horiz-adv-x="800" /><glyph d="M712 459H388L357 334H681ZM57 0V9Q82 23 94.5 32Q107 41 116.5 51.5Q126 62 133 77.5Q140 93 146 118L231 459H158L170 506H243L262 582Q264 592 265 597Q266 602 267 607.5Q268 613 268.5 618Q269 623 269 627Q269 638 266.5 646Q264 654 258.5 661Q253 668 246 674Q239 680 226 691V700H508V691Q483 677 470.5 668Q458 659 448.5 648.5Q439 638 432 622.5Q425 607 419 582L400 506H724L743 582Q745 592 746 597Q747 602 748 607.5Q749 613 749.5 618Q750 623 750 627Q750 638 747.5 646Q745 654 739.5 661Q734 668 727 674Q720 680 707 691V700H988V691Q963 676 951 667.5Q939 659 929.5 648.5Q920 638 913 622.5Q906 607 900 582L881 506H953L941 459H869L784 118Q782 111 780.5 104.5Q779 98 778.5 92.5Q778 87 777.5 82.5Q777 78 777 73Q777 62 779.5 54Q782 46 787 39Q792 32 799 26Q806 20 819 9V0H538V9Q563 24 575.5 32.5Q588 41 597.5 51.5Q607 62 614 77.5Q621 93 627 118L669 287H345L303 118Q301 111 299.5 104.5Q298 98 297.5 92.5Q297 87 296.5 82.5Q296 78 296 73Q296 62 298.5 54Q301 46 306 39Q311 32 318 26Q325 20 338 9V0Z" glyph-name="Hbar" horiz-adv-x="871" unicode="&#294;" /><glyph d="M641 386H367L342 288H616ZM62 0V9Q85 22 95.5 29Q106 36 114.5 45Q123 54 129 67Q135 80 140 101L211 386H143L153 427H222L238 493Q240 499 241 504.5Q242 510 242.5 514.5Q243 519 243.5 523Q244 527 244 530Q244 539 241.5 546Q239 553 234 559Q229 565 223.5 570Q218 575 205 585V594H471V585Q448 572 437.5 565Q427 558 418.5 549Q410 540 404 527Q398 514 393 493L377 427H651L667 493Q668 499 669 504Q670 509 671 513.5Q672 518 672 522Q672 526 672 530Q672 539 669.5 546Q667 553 662.5 559Q658 565 652 570Q646 575 634 585V594H900V585Q877 572 866.5 565Q856 558 847.5 549Q839 540 833 527Q827 514 822 493L806 427H874L864 386H796L725 101Q723 95 722 89.5Q721 84 720.5 79.5Q720 75 719.5 71Q719 67 719 64Q719 55 721.5 48Q724 41 728.5 35Q733 29 739 24Q745 19 757 9L758 0H491V9Q515 23 525 29.5Q535 36 543.5 45Q552 54 558.5 67Q565 80 570 101L606 248H332L296 101Q295 95 294 90Q293 85 292 80Q291 75 291 71Q291 67 291 63Q291 54 293 47Q295 40 300 34Q305 28 311.5 22.5Q318 17 329 9V0Z" glyph-name="Hbar.sc" horiz-adv-x="814" /><glyph d="M49 0V9Q74 24 86 32.5Q98 41 107.5 51.5Q117 62 124 77.5Q131 93 137 118L254 582Q256 589 257 595.5Q258 602 258.5 607.5Q259 613 259.5 618Q260 623 260 627Q260 638 257.5 646Q255 654 250 661Q245 668 238 674Q231 680 218 691V700H499V691Q474 676 461.5 667.5Q449 659 439.5 648.5Q430 638 423 622.5Q416 607 410 582L361 384H685L734 582Q736 592 737 597Q738 602 739 607.5Q740 613 740.5 618Q741 623 741 627Q741 638 738.5 646Q736 654 730.5 661Q725 668 718.5 674Q712 680 699 691V700H980V691Q955 676 942.5 667.5Q930 659 920.5 648.5Q911 638 904 622.5Q897 607 891 582L775 118Q773 111 771.5 104.5Q770 98 769.5 92.5Q769 87 768.5 82.5Q768 78 768 73Q768 62 770.5 54Q773 46 778 39Q783 32 790.5 25.5Q798 19 811 9V0H530V9Q555 24 567 32.5Q579 41 588.5 51.5Q598 62 605 77.5Q612 93 618 118L673 338H349L294 118Q292 108 291 103Q290 98 289 92.5Q288 87 287.5 82Q287 77 287 73Q287 62 289.5 54Q292 46 297.5 39Q303 32 310 26Q317 20 330 9V0ZM671 961Q677 941 688.5 916.5Q700 892 715 866Q730 840 747 813.5Q764 787 784 757H746Q730 766 716 776Q702 786 689 796.5Q676 807 665 817Q654 827 640 841Q621 829 601 817.5Q581 806 559.5 795.5Q538 785 515 775Q492 765 468 757H430Q473 793 501.5 817Q530 841 558.5 866.5Q587 892 611.5 916.5Q636 941 653 961Z" glyph-name="Hcircumflex" horiz-adv-x="853" unicode="&#292;" /><glyph d="M621 883Q627 862 638.5 834.5Q650 807 665 776.5Q680 746 697 716Q714 686 731 660H693Q677 670 663 681Q649 692 636.5 703.5Q624 715 612.5 727Q601 739 588 754Q569 741 548 728.5Q527 716 505 704.5Q483 693 461 681.5Q439 670 416 660H377Q408 686 440.5 716Q473 746 503 776Q533 806 559 833.5Q585 861 603 883ZM54 0V9Q77 22 88 29Q99 36 107.5 45Q116 54 122 67Q128 80 133 101L230 493Q232 499 233 504.5Q234 510 234.5 514.5Q235 519 235.5 523Q236 527 236 530Q236 539 233.5 546Q231 553 226.5 559Q222 565 216 570Q210 575 198 585L197 594H464V585Q441 572 430.5 565Q420 558 411.5 549Q403 540 397 527Q391 514 386 493L345 327H618L659 493Q661 499 662 504.5Q663 510 663.5 514.5Q664 519 664.5 523Q665 527 665 530Q665 539 662.5 546Q660 553 655.5 559Q651 565 644.5 570.5Q638 576 626 585V594H893V585Q870 572 859 565Q848 558 839.5 549Q831 540 825 527Q819 514 814 493L717 101Q715 95 714 89.5Q713 84 712.5 79.5Q712 75 711.5 71Q711 67 711 64Q711 55 713.5 48Q716 41 720.5 35Q725 29 731.5 23.5Q738 18 750 9V0H483V9Q506 22 517 29Q528 36 536.5 45Q545 54 551 67Q557 80 562 101L608 287H335L289 101Q287 95 286 89.5Q285 84 284.5 79.5Q284 75 283.5 71Q283 67 283 63Q283 54 285 47Q287 40 292 34Q297 28 303.5 22.5Q310 17 321 9V0Z" glyph-name="Hcircumflex.sc" horiz-adv-x="800" /><glyph d="M137 118 254 582Q256 592 257 597Q258 602 259 607.5Q260 613 260.5 618Q261 623 261 627Q261 638 258.5 646Q256 654 250.5 661Q245 668 238 674Q231 680 218 691V700H499V691Q474 676 461.5 667.5Q449 659 439.5 648.5Q430 638 423 622.5Q416 607 410 582L294 118Q292 108 291 103Q290 98 289 92.5Q288 87 287.5 82Q287 77 287 73Q287 62 289.5 54Q292 46 297.5 39Q303 32 310 26Q317 20 330 9V0H49V9Q74 24 86 32.5Q98 41 107.5 51.5Q117 62 124 77.5Q131 93 137 118Z" glyph-name="I" horiz-adv-x="373" unicode="I" /><glyph d="M133 101 231 493Q232 498 233 503.5Q234 509 235 513.5Q236 518 236 521.5Q236 525 236 529Q236 539 234 546Q232 553 227 559Q222 565 216 570.5Q210 576 198 585L197 594H464V585Q441 572 430 565Q419 558 411 549Q403 540 397 527Q391 514 386 493L288 101Q287 95 286 90Q285 85 284 80.5Q283 76 283 72Q283 68 283 64Q283 55 285 48Q287 41 292 35Q297 29 303 23.5Q309 18 321 9V0H54V9Q77 22 88 29Q99 36 107.5 45Q116 54 122 67Q128 80 133 101Z" glyph-name="I.sc" horiz-adv-x="371" /><glyph d="M137 118 254 582Q256 592 257 597Q258 602 259 607.5Q260 613 260.5 618Q261 623 261 627Q261 638 258.5 646Q256 654 250.5 661Q245 668 238 674Q231 680 218 691V700H499V691Q474 676 461.5 667.5Q449 659 439.5 648.5Q430 638 423 622.5Q416 607 410 582L294 118Q292 108 291 103Q290 98 289 92.5Q288 87 287.5 82Q287 77 287 73Q287 62 289.5 54Q292 46 297.5 39Q303 32 310 26Q317 20 330 9V0H49V9Q74 24 86 32.5Q98 41 107.5 51.5Q117 62 124 77.5Q131 93 137 118ZM444 944H608L375 763H344Z" glyph-name="Iacute" horiz-adv-x="372" unicode="&#205;" /><glyph d="M421 857H593L355 669H326ZM133 101 231 493Q232 498 233 503.5Q234 509 235 513.5Q236 518 236 521.5Q236 525 236 529Q236 539 234 546Q232 553 227 559Q222 565 216 570.5Q210 576 198 585L197 594H464V585Q441 572 430 565Q419 558 411 549Q403 540 397 527Q391 514 386 493L288 101Q287 95 286 90Q285 85 284 80.5Q283 76 283 72Q283 68 283 64Q283 55 285 48Q287 41 292 35Q297 29 303 23.5Q309 18 321 9V0H54V9Q77 22 88 29Q99 36 107.5 45Q116 54 122 67Q128 80 133 101Z" glyph-name="Iacute.sc" horiz-adv-x="371" /><glyph d="M137 118 254 582Q256 592 257 597Q258 602 259 607.5Q260 613 260.5 618Q261 623 261 627Q261 638 258.5 646Q256 654 250.5 661Q245 668 238 674Q231 680 218 691V700H499V691Q474 676 461.5 667.5Q449 659 439.5 648.5Q430 638 423 622.5Q416 607 410 582L294 118Q292 108 291 103Q290 98 289 92.5Q288 87 287.5 82Q287 77 287 73Q287 62 289.5 54Q292 46 297.5 39Q303 32 310 26Q317 20 330 9V0H49V9Q74 24 86 32.5Q98 41 107.5 51.5Q117 62 124 77.5Q131 93 137 118ZM302 949Q302 930 310 915.5Q318 901 332 892Q346 883 364 879Q382 875 402 875Q424 875 445.5 880Q467 885 486.5 895.5Q506 906 521.5 922.5Q537 939 547 961H575Q564 919 545 884Q526 849 501 823.5Q476 798 446.5 784Q417 770 384 770Q357 770 335.5 779Q314 788 299 805.5Q284 823 276 847Q268 871 268 901Q268 908 268.5 915Q269 922 269.5 929.5Q270 937 271.5 945Q273 953 275 961H302Z" glyph-name="Ibreve" horiz-adv-x="372" unicode="&#300;" /><glyph d="M133 101 231 493Q232 498 233 503.5Q234 509 235 513.5Q236 518 236 521.5Q236 525 236 529Q236 539 234 546Q232 553 227 559Q222 565 216 570.5Q210 576 198 585L197 594H464V585Q441 572 430 565Q419 558 411 549Q403 540 397 527Q391 514 386 493L288 101Q287 95 286 90Q285 85 284 80.5Q283 76 283 72Q283 68 283 64Q283 55 285 48Q287 41 292 35Q297 29 303 23.5Q309 18 321 9V0H54V9Q77 22 88 29Q99 36 107.5 45Q116 54 122 67Q128 80 133 101ZM274 856Q274 836 282 821.5Q290 807 304 798Q318 789 336 784.5Q354 780 374 780Q396 780 417.5 785Q439 790 458.5 801Q478 812 494 829Q510 846 520 869H547Q535 827 516 791.5Q497 756 472.5 730Q448 704 418 690Q388 676 355 676Q328 676 307 685Q286 694 271 711.5Q256 729 248 753Q240 777 240 806Q240 814 240.5 821.5Q241 829 242 836.5Q243 844 244.5 852.5Q246 861 248 869H275Q275 867 274.5 865.5Q274 864 274 862.5Q274 861 274 859.5Q274 858 274 856Z" glyph-name="Ibreve.sc" horiz-adv-x="371" /><glyph d="M137 118 254 582Q256 592 257 597Q258 602 259 607.5Q260 613 260.5 618Q261 623 261 627Q261 638 258.5 646Q256 654 250.5 661Q245 668 238 674Q231 680 218 691V700H499V691Q474 676 461.5 667.5Q449 659 439.5 648.5Q430 638 423 622.5Q416 607 410 582L294 118Q292 108 291 103Q290 98 289 92.5Q288 87 287.5 82Q287 77 287 73Q287 62 289.5 54Q292 46 297.5 39Q303 32 310 26Q317 20 330 9V0H49V9Q74 24 86 32.5Q98 41 107.5 51.5Q117 62 124 77.5Q131 93 137 118ZM430 961Q436 941 447.5 916.5Q459 892 474 866Q489 840 506 813.5Q523 787 543 757H505Q489 766 475 776Q461 786 448 796.5Q435 807 424 817Q413 827 399 841Q380 829 360 817.5Q340 806 318.5 795.5Q297 785 274 775Q251 765 227 757H189Q232 793 260.5 817Q289 841 317.5 866.5Q346 892 370.5 916.5Q395 941 412 961Z" glyph-name="Icircumflex" horiz-adv-x="372" unicode="&#206;" /><glyph d="M406 883Q412 862 423.5 834.5Q435 807 450 776.5Q465 746 482 716Q499 686 516 660H478Q462 670 448 681Q434 692 421.5 703.5Q409 715 397.5 727Q386 739 373 754Q354 741 333 728.5Q312 716 290 704.5Q268 693 246 681.5Q224 670 201 660H162Q193 686 225.5 716Q258 746 288 776Q318 806 344 833.5Q370 861 388 883ZM133 101 231 493Q232 498 233 503.5Q234 509 235 513.5Q236 518 236 521.5Q236 525 236 529Q236 539 234 546Q232 553 227 559Q222 565 216 570.5Q210 576 198 585L197 594H464V585Q441 572 430 565Q419 558 411 549Q403 540 397 527Q391 514 386 493L288 101Q287 95 286 90Q285 85 284 80.5Q283 76 283 72Q283 68 283 64Q283 55 285 48Q287 41 292 35Q297 29 303 23.5Q309 18 321 9V0H54V9Q77 22 88 29Q99 36 107.5 45Q116 54 122 67Q128 80 133 101Z" glyph-name="Icircumflex.sc" horiz-adv-x="371" /><glyph d="M137 118 254 582Q256 592 257 597Q258 602 259 607.5Q260 613 260.5 618Q261 623 261 627Q261 638 258.5 646Q256 654 250.5 661Q245 668 238 674Q231 680 218 691V700H499V691Q474 676 461.5 667.5Q449 659 439.5 648.5Q430 638 423 622.5Q416 607 410 582L294 118Q292 108 291 103Q290 98 289 92.5Q288 87 287.5 82Q287 77 287 73Q287 62 289.5 54Q292 46 297.5 39Q303 32 310 26Q317 20 330 9V0H49V9Q74 24 86 32.5Q98 41 107.5 51.5Q117 62 124 77.5Q131 93 137 118ZM500 764Q484 764 470 770Q456 776 445 786.5Q434 797 428 811.5Q422 826 422 841Q422 857 428 871.5Q434 886 445 897Q456 908 470 914.5Q484 921 500 921Q516 921 530 914.5Q544 908 555 897Q566 886 572 871.5Q578 857 578 841Q578 826 572 811.5Q566 797 555 786.5Q544 776 530 770Q516 764 500 764ZM291 764Q275 764 261 770Q247 776 236.5 786.5Q226 797 220 811Q214 825 214 841Q214 857 220 871.5Q226 886 236.5 897Q247 908 261 914.5Q275 921 291 921Q307 921 321 914.5Q335 908 346 897Q357 886 363 871.5Q369 857 369 841Q369 826 363 811.5Q357 797 346 786.5Q335 776 321 770Q307 764 291 764Z" glyph-name="Idieresis" horiz-adv-x="372" unicode="&#207;" /><glyph d="M267 672Q251 672 237 678Q223 684 212.5 694.5Q202 705 196 719Q190 733 190 749Q190 765 196 779.5Q202 794 212.5 805Q223 816 237 822.5Q251 829 267 829Q283 829 297.5 822.5Q312 816 322.5 805Q333 794 339 779.5Q345 765 345 749Q345 733 339 719Q333 705 322.5 694.5Q312 684 297.5 678Q283 672 267 672ZM476 672Q460 672 446 678Q432 684 421 694.5Q410 705 404 719.5Q398 734 398 749Q398 765 404 779.5Q410 794 421 805Q432 816 446 822.5Q460 829 476 829Q492 829 506.5 822.5Q521 816 531.5 805Q542 794 548 779.5Q554 765 554 749Q554 733 548 719Q542 705 531.5 694.5Q521 684 506.5 678Q492 672 476 672ZM133 101 231 493Q232 498 233 503.5Q234 509 235 513.5Q236 518 236 521.5Q236 525 236 529Q236 539 234 546Q232 553 227 559Q222 565 216 570.5Q210 576 198 585L197 594H464V585Q441 572 430 565Q419 558 411 549Q403 540 397 527Q391 514 386 493L288 101Q287 95 286 90Q285 85 284 80.5Q283 76 283 72Q283 68 283 64Q283 55 285 48Q287 41 292 35Q297 29 303 23.5Q309 18 321 9V0H54V9Q77 22 88 29Q99 36 107.5 45Q116 54 122 67Q128 80 133 101Z" glyph-name="Idieresis.sc" horiz-adv-x="371" /><glyph d="M137 118 254 582Q256 592 257 597Q258 602 259 607.5Q260 613 260.5 618Q261 623 261 627Q261 638 258.5 646Q256 654 250.5 661Q245 668 238 674Q231 680 218 691V700H499V691Q474 676 461.5 667.5Q449 659 439.5 648.5Q430 638 423 622.5Q416 607 410 582L294 118Q292 108 291 103Q290 98 289 92.5Q288 87 287.5 82Q287 77 287 73Q287 62 289.5 54Q292 46 297.5 39Q303 32 310 26Q317 20 330 9V0H49V9Q74 24 86 32.5Q98 41 107.5 51.5Q117 62 124 77.5Q131 93 137 118ZM399 766Q381 766 364.5 772.5Q348 779 336 791Q324 803 317.5 818.5Q311 834 311 852Q311 870 317.5 886.5Q324 903 336 915Q348 927 364.5 933.5Q381 940 399 940Q417 940 433.5 933.5Q450 927 462 915Q474 903 481 886.5Q488 870 488 852Q488 834 481 818.5Q474 803 462 791Q450 779 433.5 772.5Q417 766 399 766Z" glyph-name="Idotaccent" horiz-adv-x="372" unicode="&#304;" /><glyph d="M133 101 231 493Q232 498 233 503.5Q234 509 235 513.5Q236 518 236 521.5Q236 525 236 529Q236 539 234 546Q232 553 227 559Q222 565 216 570.5Q210 576 198 585L197 594H464V585Q441 572 430 565Q419 558 411 549Q403 540 397 527Q391 514 386 493L288 101Q287 95 286 90Q285 85 284 80.5Q283 76 283 72Q283 68 283 64Q283 55 285 48Q287 41 292 35Q297 29 303 23.5Q309 18 321 9V0H54V9Q77 22 88 29Q99 36 107.5 45Q116 54 122 67Q128 80 133 101ZM375 676Q357 676 340.5 682.5Q324 689 312 701Q300 713 293.5 729Q287 745 287 763Q287 781 293.5 797Q300 813 312 825Q324 837 340.5 843.5Q357 850 375 850Q393 850 409.5 843.5Q426 837 438 825Q450 813 457 797Q464 781 464 763Q464 745 457 729Q450 713 438 701Q426 689 409.5 682.5Q393 676 375 676Z" glyph-name="Idotaccent.sc" horiz-adv-x="371" /><glyph d="M137 118 254 582Q256 592 257 597Q258 602 259 607.5Q260 613 260.5 618Q261 623 261 627Q261 638 258.5 646Q256 654 250.5 661Q245 668 238 674Q231 680 218 691V700H499V691Q474 676 461.5 667.5Q449 659 439.5 648.5Q430 638 423 622.5Q416 607 410 582L294 118Q292 108 291 103Q290 98 289 92.5Q288 87 287.5 82Q287 77 287 73Q287 62 289.5 54Q292 46 297.5 39Q303 32 310 26Q317 20 330 9V0H49V9Q74 24 86 32.5Q98 41 107.5 51.5Q117 62 124 77.5Q131 93 137 118ZM226 944H388L400 763H376Z" glyph-name="Igrave" horiz-adv-x="372" unicode="&#204;" /><glyph d="M133 101 231 493Q232 498 233 503.5Q234 509 235 513.5Q236 518 236 521.5Q236 525 236 529Q236 539 234 546Q232 553 227 559Q222 565 216 570.5Q210 576 198 585L197 594H464V585Q441 572 430 565Q419 558 411 549Q403 540 397 527Q391 514 386 493L288 101Q287 95 286 90Q285 85 284 80.5Q283 76 283 72Q283 68 283 64Q283 55 285 48Q287 41 292 35Q297 29 303 23.5Q309 18 321 9V0H54V9Q77 22 88 29Q99 36 107.5 45Q116 54 122 67Q128 80 133 101ZM200 857H362L373 669H351Z" glyph-name="Igrave.sc" horiz-adv-x="371" /><glyph d="M137 118 254 582Q256 592 257 597Q258 602 259 607.5Q260 613 260.5 618Q261 623 261 627Q261 638 258.5 646Q256 654 250.5 661Q245 668 238 674Q231 680 218 691V700H499V691Q474 676 461.5 667.5Q449 659 439.5 648.5Q430 638 423 622.5Q416 607 410 582L294 118Q292 108 291 103Q290 98 289 92.5Q288 87 287.5 82Q287 77 287 73Q287 62 289.5 54Q292 46 297.5 39Q303 32 310 26Q317 20 330 9V0H49V9Q74 24 86 32.5Q98 41 107.5 51.5Q117 62 124 77.5Q131 93 137 118ZM531 783H232L252 861H551Z" glyph-name="Imacron" horiz-adv-x="372" unicode="&#298;" /><glyph d="M133 101 231 493Q232 498 233 503.5Q234 509 235 513.5Q236 518 236 521.5Q236 525 236 529Q236 539 234 546Q232 553 227 559Q222 565 216 570.5Q210 576 198 585L197 594H464V585Q441 572 430 565Q419 558 411 549Q403 540 397 527Q391 514 386 493L288 101Q287 95 286 90Q285 85 284 80.5Q283 76 283 72Q283 68 283 64Q283 55 285 48Q287 41 292 35Q297 29 303 23.5Q309 18 321 9V0H54V9Q77 22 88 29Q99 36 107.5 45Q116 54 122 67Q128 80 133 101ZM507 691H208L228 769H527Z" glyph-name="Imacron.sc" horiz-adv-x="371" /><glyph d="M25 -171Q25 -144 41 -118Q57 -92 87 -68Q117 -44 157 -21Q176 -10 197 0H49V9Q74 24 86 32.5Q98 41 107.5 51.5Q117 62 124 77.5Q131 93 137 118L254 582L257 597Q258 602 259 607.5Q260 613 260.5 618Q261 623 261 627Q261 638 258.5 646Q256 654 250.5 661Q245 668 238 674Q231 680 218 691V700H499V691Q474 676 461.5 667.5Q449 659 439.5 648.5Q430 638 423 622.5Q416 607 410 582L294 118L291 103Q290 98 289 92.5Q288 87 287.5 82Q287 77 287 73Q287 62 289.5 54Q292 46 297.5 39Q303 32 310 26Q317 20 330 9V0H254Q223 -17 199 -35Q174 -54 158.5 -71.5Q143 -89 136 -105.5Q129 -122 129 -137Q129 -146 132.5 -153Q136 -160 141.5 -164.5Q147 -169 155 -171.5Q163 -174 173 -174Q188 -174 201 -170.5Q214 -167 226.5 -159.5Q239 -152 251 -142Q263 -132 279 -117L294 -131Q277 -157 257.5 -177Q238 -197 215.5 -211.5Q193 -226 167 -233.5Q141 -241 111 -241Q92 -241 76.5 -236Q61 -231 49.5 -222Q38 -213 31.5 -200Q25 -187 25 -171Z" glyph-name="Iogonek" horiz-adv-x="372" unicode="&#302;" /><glyph d="M24 -171Q24 -144 40 -118Q56 -92 86 -68Q116 -44 156 -21Q175 -10 196 0H54V9Q77 22 88 29Q99 36 107.5 45Q116 54 122 67Q128 80 133 101L231 493Q232 498 233 503.5Q234 509 235 513.5Q236 518 236 521V529Q236 539 234 546Q232 553 227 559Q222 565 216 570.5Q210 576 198 585L197 594H464V585Q441 572 430 565Q419 558 411 549Q403 540 397 527Q391 514 386 493L288 101Q287 95 286 90Q285 85 284 80.5Q283 76 283 72V64Q283 55 285 48Q287 41 292 35Q297 29 303 23.5Q309 18 321 9V0H253Q222 -17 198 -35Q173 -54 157.5 -71.5Q142 -89 135 -105.5Q128 -122 128 -137Q128 -146 131.5 -153Q135 -160 140.5 -164.5Q146 -169 154 -171.5Q162 -174 172 -174Q187 -174 200 -170.5Q213 -167 225.5 -159.5Q238 -152 250 -142Q262 -132 278 -117L293 -131Q276 -157 256.5 -177Q237 -197 214.5 -211.5Q192 -226 166 -233.5Q140 -241 110 -241Q91 -241 75.5 -236Q60 -231 48.5 -222Q37 -213 30.5 -200Q24 -187 24 -171Z" glyph-name="Iogonek.sc" horiz-adv-x="371" /><glyph d="M137 118 254 582Q256 592 257 597Q258 602 259 607.5Q260 613 260.5 618Q261 623 261 627Q261 638 258.5 646Q256 654 250.5 661Q245 668 238 674Q231 680 218 691V700H499V691Q474 676 461.5 667.5Q449 659 439.5 648.5Q430 638 423 622.5Q416 607 410 582L294 118Q292 108 291 103Q290 98 289 92.5Q288 87 287.5 82Q287 77 287 73Q287 62 289.5 54Q292 46 297.5 39Q303 32 310 26Q317 20 330 9V0H49V9Q74 24 86 32.5Q98 41 107.5 51.5Q117 62 124 77.5Q131 93 137 118ZM219 773H191Q206 812 222.5 841.5Q239 871 257 891.5Q275 912 294 922.5Q313 933 333 933Q353 933 372.5 925Q392 917 419 901.5Q446 886 462 878.5Q478 871 495 871Q507 871 518.5 875.5Q530 880 540 888.5Q550 897 559.5 909Q569 921 579 937H607Q592 899 575.5 869.5Q559 840 541.5 819.5Q524 799 505 788.5Q486 778 466 778Q446 778 426.5 786Q407 794 380 809Q353 824 336.5 831.5Q320 839 303 839Q291 839 279.5 834.5Q268 830 258 821.5Q248 813 238.5 801Q229 789 219 773Z" glyph-name="Itilde" horiz-adv-x="372" unicode="&#296;" /><glyph d="M133 101 231 493Q232 498 233 503.5Q234 509 235 513.5Q236 518 236 521.5Q236 525 236 529Q236 539 234 546Q232 553 227 559Q222 565 216 570.5Q210 576 198 585L197 594H464V585Q441 572 430 565Q419 558 411 549Q403 540 397 527Q391 514 386 493L288 101Q287 95 286 90Q285 85 284 80.5Q283 76 283 72Q283 68 283 64Q283 55 285 48Q287 41 292 35Q297 29 303 23.5Q309 18 321 9V0H54V9Q77 22 88 29Q99 36 107.5 45Q116 54 122 67Q128 80 133 101ZM195 679H166Q181 717 197.5 747Q214 777 232 797Q250 817 269 827.5Q288 838 308 838Q328 838 347.5 830Q367 822 394 807Q421 792 437 784.5Q453 777 470 777Q483 777 494 781.5Q505 786 515 794Q525 802 534.5 814Q544 826 554 842H583Q568 804 551.5 774.5Q535 745 517 724.5Q499 704 480.5 693.5Q462 683 442 683Q422 683 402 691Q382 699 355 714.5Q328 730 312 737.5Q296 745 279 745Q266 745 255 740.5Q244 736 234 727.5Q224 719 214.5 707Q205 695 195 679Z" glyph-name="Itilde.sc" horiz-adv-x="371" /><glyph d="M418 191 516 582Q518 589 519.5 595.5Q521 602 521.5 607.5Q522 613 522.5 617.5Q523 622 523 627Q523 638 520.5 646Q518 654 513 661Q508 668 500.5 674.5Q493 681 480 691V700H761V691Q736 677 723.5 668Q711 659 701.5 648.5Q692 638 685 622.5Q678 607 672 582L579 210Q565 151 537.5 109Q510 67 472 40.5Q434 14 386.5 2Q339 -10 282 -10Q239 -10 200.5 0.5Q162 11 132 31Q102 51 85 80Q68 109 68 145Q68 175 78.5 199Q89 223 108.5 239.5Q128 256 153 264.5Q178 273 207 273Q222 273 234.5 271.5Q247 270 256.5 267.5Q266 265 273 261.5Q280 258 285 255Q265 244 249.5 229.5Q234 215 224 198Q214 181 209 161.5Q204 142 204 121Q204 102 209.5 85.5Q215 69 226 57Q237 45 251.5 38.5Q266 32 284 32Q312 32 332.5 42.5Q353 53 368.5 73Q384 93 396 122Q408 151 418 191Z" glyph-name="J" horiz-adv-x="614" unicode="J" /><glyph d="M382 161 467 493Q469 499 470 504.5Q471 510 471.5 514.5Q472 519 472.5 523Q473 527 473 530Q473 539 470.5 546Q468 553 463.5 559Q459 565 453 570Q447 575 435 585V594H700V585Q677 572 666 565Q655 558 646.5 549Q638 540 632 527Q626 514 621 493L544 180Q531 129 505.5 92.5Q480 56 445 34Q410 12 366 2Q322 -8 269 -8Q230 -8 194.5 1Q159 10 131 27Q103 44 87 69Q71 94 71 125Q71 152 81 173Q91 194 108.5 208.5Q126 223 149.5 230.5Q173 238 200 238Q214 238 226.5 236.5Q239 235 248.5 232.5Q258 230 265 227.5Q272 225 277 222Q258 212 244.5 199Q231 186 221.5 171Q212 156 207.5 139Q203 122 203 103Q203 87 208 73.5Q213 60 222 50Q231 40 243.5 34.5Q256 29 271 29Q294 29 311.5 37.5Q329 46 341.5 63Q354 80 363.5 103.5Q373 127 382 161Z" glyph-name="J.sc" horiz-adv-x="586" /><glyph d="M418 191 516 582Q518 589 519.5 595.5Q521 602 521.5 607.5Q522 613 522.5 617.5Q523 622 523 627Q523 638 520.5 646Q518 654 513 661Q508 668 500.5 674.5Q493 681 480 691V700H761V691Q736 677 723.5 668Q711 659 701.5 648.5Q692 638 685 622.5Q678 607 672 582L579 210Q565 151 537.5 109Q510 67 472 40.5Q434 14 386.5 2Q339 -10 282 -10Q239 -10 200.5 0.5Q162 11 132 31Q102 51 85 80Q68 109 68 145Q68 175 78.5 199Q89 223 108.5 239.5Q128 256 153 264.5Q178 273 207 273Q222 273 234.5 271.5Q247 270 256.5 267.5Q266 265 273 261.5Q280 258 285 255Q265 244 249.5 229.5Q234 215 224 198Q214 181 209 161.5Q204 142 204 121Q204 102 209.5 85.5Q215 69 226 57Q237 45 251.5 38.5Q266 32 284 32Q312 32 332.5 42.5Q353 53 368.5 73Q384 93 396 122Q408 151 418 191ZM695 961Q701 941 712.5 916.5Q724 892 739 866Q754 840 771 813.5Q788 787 808 757H770Q754 766 740 776Q726 786 713 796.5Q700 807 689 817Q678 827 664 841Q645 829 625 817.5Q605 806 583.5 795.5Q562 785 539 775Q516 765 492 757H454Q497 793 525.5 817Q554 841 582.5 866.5Q611 892 635.5 916.5Q660 941 677 961Z" glyph-name="Jcircumflex" horiz-adv-x="614" unicode="&#308;" /><glyph d="M640 883Q646 862 657.5 834.5Q669 807 684 776.5Q699 746 716 716Q733 686 750 660H712Q696 670 682 681Q668 692 655.5 703.5Q643 715 631.5 727Q620 739 607 754Q588 741 567 728.5Q546 716 524 704.5Q502 693 480 681.5Q458 670 435 660H396Q427 686 459.5 716Q492 746 522 776Q552 806 578 833.5Q604 861 622 883ZM382 161 467 493Q469 499 470 504.5Q471 510 471.5 514.5Q472 519 472.5 523Q473 527 473 530Q473 539 470.5 546Q468 553 463.5 559Q459 565 453 570Q447 575 435 585V594H700V585Q677 572 666 565Q655 558 646.5 549Q638 540 632 527Q626 514 621 493L544 180Q531 129 505.5 92.5Q480 56 445 34Q410 12 366 2Q322 -8 269 -8Q230 -8 194.5 1Q159 10 131 27Q103 44 87 69Q71 94 71 125Q71 152 81 173Q91 194 108.5 208.5Q126 223 149.5 230.5Q173 238 200 238Q214 238 226.5 236.5Q239 235 248.5 232.5Q258 230 265 227.5Q272 225 277 222Q258 212 244.5 199Q231 186 221.5 171Q212 156 207.5 139Q203 122 203 103Q203 87 208 73.5Q213 60 222 50Q231 40 243.5 34.5Q256 29 271 29Q294 29 311.5 37.5Q329 46 341.5 63Q354 80 363.5 103.5Q373 127 382 161Z" glyph-name="Jcircumflex.sc" horiz-adv-x="586" /><glyph d="M326 0H45L46 9Q71 23 83.5 32Q96 41 105.5 51.5Q115 62 122 77.5Q129 93 135 118L251 582Q253 589 254.5 595.5Q256 602 256.5 607.5Q257 613 257.5 618Q258 623 258 627Q258 638 255.5 646Q253 654 248 661Q243 668 236 674Q229 680 216 691L218 700H499L498 691Q473 677 460.5 668.5Q448 660 438 649Q428 638 421 622.5Q414 607 408 582L348 343L692 612Q698 617 703 622Q708 627 711 631.5Q714 636 715.5 640.5Q717 645 717 649Q717 654 715.5 659Q714 664 710.5 669Q707 674 702 679.5Q697 685 690 691V700H911V691Q884 679 861.5 668Q839 657 818.5 644.5Q798 632 777.5 618.5Q757 605 735 588L543 438L693 112Q703 91 711.5 76.5Q720 62 730 50.5Q740 39 752.5 29Q765 19 783 9V0H503V9Q513 16 519.5 22Q526 28 530 33.5Q534 39 536 45Q538 51 538 57Q538 62 537 67.5Q536 73 534 78.5Q532 84 530.5 88.5Q529 93 524 105L415 342L332 278L292 118Q290 111 288.5 104.5Q287 98 286.5 92.5Q286 87 285.5 82.5Q285 78 285 73Q285 62 287.5 54Q290 46 295 39Q300 32 307.5 25.5Q315 19 328 9Z" glyph-name="K" horiz-adv-x="777" unicode="K" /><glyph d="M320 0H51L52 9Q76 23 86.5 29.5Q97 36 105.5 45Q114 54 120 67Q126 80 131 101L229 493Q231 499 232 504.5Q233 510 233.5 514.5Q234 519 234.5 523Q235 527 235 531Q235 540 232.5 547Q230 554 225.5 559.5Q221 565 214.5 571Q208 577 197 585L198 594H465L464 585Q440 572 429.5 565Q419 558 410.5 549Q402 540 395.5 527Q389 514 384 493L336 294L627 515Q632 519 635.5 523Q639 527 641.5 530.5Q644 534 645.5 537.5Q647 541 647 544Q647 549 645 554Q643 559 639.5 564Q636 569 631 574Q626 579 619 585V594H829L830 585Q806 575 786 565.5Q766 556 748 546Q730 536 712.5 525Q695 514 675 499L515 377L649 95Q657 78 664.5 66Q672 54 681 44.5Q690 35 702 26.5Q714 18 730 9V0H461V9Q469 15 475 20Q481 25 484.5 30Q488 35 490 40Q492 45 492 51Q492 55 491 59.5Q490 64 488.5 69.5Q487 75 484.5 80.5Q482 86 479 93L390 286L322 235L290 101Q288 95 287 89.5Q286 84 285.5 79.5Q285 75 284.5 71Q284 67 284 63Q284 54 286 47Q288 40 292.5 34Q297 28 303.5 22.5Q310 17 321 9Z" glyph-name="K.sc" horiz-adv-x="720" /><glyph d="M378 -171Q374 -174 369 -176Q364 -178 359 -179.5Q354 -181 348.5 -181.5Q343 -182 337 -182Q325 -182 314.5 -178.5Q304 -175 296.5 -167.5Q289 -160 285 -150.5Q281 -141 281 -129Q281 -114 287.5 -101Q294 -88 305.5 -78.5Q317 -69 332.5 -63.5Q348 -58 366 -58Q384 -58 399 -64.5Q414 -71 425 -82.5Q436 -94 441.5 -109Q447 -124 447 -141Q447 -173 433 -199Q419 -225 392.5 -243Q366 -261 330 -270Q294 -279 250 -279L255 -248Q281 -247 302.5 -241.5Q324 -236 339.5 -226Q355 -216 365 -202Q375 -188 378 -171ZM326 0H45L46 9Q71 23 83.5 32Q96 41 105.5 51.5Q115 62 122 77.5Q129 93 135 118L251 582Q253 589 254.5 595.5Q256 602 256.5 607.5Q257 613 257.5 618Q258 623 258 627Q258 638 255.5 646Q253 654 248 661Q243 668 236 674Q229 680 216 691L218 700H499L498 691Q473 677 460.5 668.5Q448 660 438 649Q428 638 421 622.5Q414 607 408 582L348 343L692 612Q698 617 703 622Q708 627 711 631.5Q714 636 715.5 640.5Q717 645 717 649Q717 654 715.5 659Q714 664 710.5 669Q707 674 702 679.5Q697 685 690 691V700H911V691Q884 679 861.5 668Q839 657 818.5 644.5Q798 632 777.5 618.5Q757 605 735 588L543 438L693 112Q703 91 711.5 76.5Q720 62 730 50.5Q740 39 752.5 29Q765 19 783 9V0H503V9Q513 16 519.5 22Q526 28 530 33.5Q534 39 536 45Q538 51 538 57Q538 62 537 67.5Q536 73 534 78.5Q532 84 530.5 88.5Q529 93 524 105L415 342L332 278L292 118Q290 111 288.5 104.5Q287 98 286.5 92.5Q286 87 285.5 82.5Q285 78 285 73Q285 62 287.5 54Q290 46 295 39Q300 32 307.5 25.5Q315 19 328 9Z" glyph-name="Kcommaaccent" horiz-adv-x="777" unicode="&#310;" /><glyph d="M354 -171Q350 -174 345 -176Q340 -178 335 -179.5Q330 -181 324.5 -181.5Q319 -182 313 -182Q301 -182 290.5 -178.5Q280 -175 272.5 -167.5Q265 -160 261 -150.5Q257 -141 257 -129Q257 -114 263.5 -101Q270 -88 281.5 -78.5Q293 -69 308.5 -63.5Q324 -58 342 -58Q360 -58 375 -64.5Q390 -71 401 -82.5Q412 -94 417.5 -109Q423 -124 423 -141Q423 -173 409 -199Q395 -225 368.5 -243Q342 -261 306 -270Q270 -279 226 -279L231 -248Q257 -247 278.5 -241.5Q300 -236 315.5 -226Q331 -216 341 -202Q351 -188 354 -171ZM320 0H51L52 9Q76 23 86.5 29.5Q97 36 105.5 45Q114 54 120 67Q126 80 131 101L229 493Q231 499 232 504.5Q233 510 233.5 514.5Q234 519 234.5 523Q235 527 235 531Q235 540 232.5 547Q230 554 225.5 559.5Q221 565 214.5 571Q208 577 197 585L198 594H465L464 585Q440 572 429.5 565Q419 558 410.5 549Q402 540 395.5 527Q389 514 384 493L336 294L627 515Q632 519 635.5 523Q639 527 641.5 530.5Q644 534 645.5 537.5Q647 541 647 544Q647 549 645 554Q643 559 639.5 564Q636 569 631 574Q626 579 619 585V594H829L830 585Q806 575 786 565.5Q766 556 748 546Q730 536 712.5 525Q695 514 675 499L515 377L649 95Q657 78 664.5 66Q672 54 681 44.5Q690 35 702 26.5Q714 18 730 9V0H461V9Q469 15 475 20Q481 25 484.5 30Q488 35 490 40Q492 45 492 51Q492 55 491 59.5Q490 64 488.5 69.5Q487 75 484.5 80.5Q482 86 479 93L390 286L322 235L290 101Q288 95 287 89.5Q286 84 285.5 79.5Q285 75 284.5 71Q284 67 284 63Q284 54 286 47Q288 40 292.5 34Q297 28 303.5 22.5Q310 17 321 9Z" glyph-name="Kcommaaccent.sc" horiz-adv-x="720" /><glyph d="M410 582 276 45H402Q440 45 470.5 54.5Q501 64 530.5 85.5Q560 107 593 141Q626 175 676 233H690L596 0H49V9Q74 24 86 32.5Q98 41 107.5 51.5Q117 62 124 77.5Q131 93 137 118L254 582Q256 592 257 597Q258 602 259 607.5Q260 613 260.5 618Q261 623 261 627Q261 638 258.5 646Q256 654 250.5 661Q245 668 238 674Q231 680 218 691V700H499V691Q474 676 461.5 667.5Q449 659 439.5 648.5Q430 638 423 622.5Q416 607 410 582Z" glyph-name="L" horiz-adv-x="663" unicode="L" /><glyph d="M386 493 273 40H377Q411 40 437.5 48.5Q464 57 490.5 76Q517 95 547 124.5Q577 154 623 206H637L553 0H55V9Q78 22 88.5 29Q99 36 107.5 45Q116 54 122 67Q128 80 133 101L231 493Q233 499 234 504.5Q235 510 235.5 514.5Q236 519 236.5 523Q237 527 237 530Q237 539 234.5 546Q232 553 227.5 559Q223 565 216 571Q209 577 198 585L197 594H464V585Q441 572 430.5 565Q420 558 411.5 549Q403 540 397 527Q391 514 386 493Z" glyph-name="L.sc" horiz-adv-x="614" /><glyph d="M465 944H629L396 763H365ZM410 582 276 45H402Q440 45 470.5 54.5Q501 64 530.5 85.5Q560 107 593 141Q626 175 676 233H690L596 0H49V9Q74 24 86 32.5Q98 41 107.5 51.5Q117 62 124 77.5Q131 93 137 118L254 582Q256 592 257 597Q258 602 259 607.5Q260 613 260.5 618Q261 623 261 627Q261 638 258.5 646Q256 654 250.5 661Q245 668 238 674Q231 680 218 691V700H499V691Q474 676 461.5 667.5Q449 659 439.5 648.5Q430 638 423 622.5Q416 607 410 582Z" glyph-name="Lacute" horiz-adv-x="663" unicode="&#313;" /><glyph d="M386 493 273 40H377Q411 40 437.5 48.5Q464 57 490.5 76Q517 95 547 124.5Q577 154 623 206H637L553 0H55V9Q78 22 88.5 29Q99 36 107.5 45Q116 54 122 67Q128 80 133 101L231 493Q233 499 234 504.5Q235 510 235.5 514.5Q236 519 236.5 523Q237 527 237 530Q237 539 234.5 546Q232 553 227.5 559Q223 565 216 571Q209 577 198 585L197 594H464V585Q441 572 430.5 565Q420 558 411.5 549Q403 540 397 527Q391 514 386 493ZM425 857H597L359 669H330Z" glyph-name="Lacute.sc" horiz-adv-x="613" /><glyph d="M772 700 588 495H561L629 700ZM410 582 276 45H402Q440 45 470.5 54.5Q501 64 530.5 85.5Q560 107 593 141Q626 175 676 233H690L596 0H49V9Q74 24 86 32.5Q98 41 107.5 51.5Q117 62 124 77.5Q131 93 137 118L254 582Q256 592 257 597Q258 602 259 607.5Q260 613 260.5 618Q261 623 261 627Q261 638 258.5 646Q256 654 250.5 661Q245 668 238 674Q231 680 218 691V700H499V691Q474 676 461.5 667.5Q449 659 439.5 648.5Q430 638 423 622.5Q416 607 410 582Z" glyph-name="Lcaron" horiz-adv-x="663" unicode="&#317;" /><glyph d="M386 493 273 40H377Q411 40 437.5 48.5Q464 57 490.5 76Q517 95 547 124.5Q577 154 623 206H637L553 0H55V9Q78 22 88.5 29Q99 36 107.5 45Q116 54 122 67Q128 80 133 101L231 493Q233 499 234 504.5Q235 510 235.5 514.5Q236 519 236.5 523Q237 527 237 530Q237 539 234.5 546Q232 553 227.5 559Q223 565 216 571Q209 577 198 585L197 594H464V585Q441 572 430.5 565Q420 558 411.5 549Q403 540 397 527Q391 514 386 493ZM728 594 544 389H517L585 594Z" glyph-name="Lcaron.sc" horiz-adv-x="613" /><glyph d="M320 -171Q316 -174 311 -176Q306 -178 301 -179.5Q296 -181 290.5 -181.5Q285 -182 279 -182Q267 -182 256.5 -178.5Q246 -175 238.5 -167.5Q231 -160 227 -150.5Q223 -141 223 -129Q223 -114 229.5 -101Q236 -88 247.5 -78.5Q259 -69 274.5 -63.5Q290 -58 308 -58Q326 -58 341 -64.5Q356 -71 367 -82.5Q378 -94 383.5 -109Q389 -124 389 -141Q389 -173 375 -199Q361 -225 334.5 -243Q308 -261 272 -270Q236 -279 192 -279L197 -248Q223 -247 244.5 -241.5Q266 -236 281.5 -226Q297 -216 307 -202Q317 -188 320 -171ZM410 582 276 45H402Q440 45 470.5 54.5Q501 64 530.5 85.5Q560 107 593 141Q626 175 676 233H690L596 0H49V9Q74 24 86 32.5Q98 41 107.5 51.5Q117 62 124 77.5Q131 93 137 118L254 582Q256 592 257 597Q258 602 259 607.5Q260 613 260.5 618Q261 623 261 627Q261 638 258.5 646Q256 654 250.5 661Q245 668 238 674Q231 680 218 691V700H499V691Q474 676 461.5 667.5Q449 659 439.5 648.5Q430 638 423 622.5Q416 607 410 582Z" glyph-name="Lcommaaccent" horiz-adv-x="663" unicode="&#315;" /><glyph d="M386 493 273 40H377Q411 40 437.5 48.5Q464 57 490.5 76Q517 95 547 124.5Q577 154 623 206H637L553 0H55V9Q78 22 88.5 29Q99 36 107.5 45Q116 54 122 67Q128 80 133 101L231 493Q233 499 234 504.5Q235 510 235.5 514.5Q236 519 236.5 523Q237 527 237 530Q237 539 234.5 546Q232 553 227.5 559Q223 565 216 571Q209 577 198 585L197 594H464V585Q441 572 430.5 565Q420 558 411.5 549Q403 540 397 527Q391 514 386 493ZM312 -171Q308 -174 303 -176Q298 -178 293 -179.5Q288 -181 282.5 -181.5Q277 -182 271 -182Q259 -182 248.5 -178.5Q238 -175 230.5 -167.5Q223 -160 219 -150.5Q215 -141 215 -129Q215 -114 221.5 -101Q228 -88 239.5 -78.5Q251 -69 266.5 -63.5Q282 -58 300 -58Q318 -58 333 -64.5Q348 -71 359 -82.5Q370 -94 375.5 -109Q381 -124 381 -141Q381 -173 367 -199Q353 -225 326.5 -243Q300 -261 264 -270Q228 -279 184 -279L189 -248Q215 -247 236.5 -241.5Q258 -236 273.5 -226Q289 -216 299 -202Q309 -188 312 -171Z" glyph-name="Lcommaaccent.sc" horiz-adv-x="613" /><glyph d="M410 582 276 45H402Q440 45 470.5 54.5Q501 64 530.5 85.5Q560 107 593 141Q626 175 676 233H690L596 0H49V9Q74 24 86 32.5Q98 41 107.5 51.5Q117 62 124 77.5Q131 93 137 118L254 582Q256 592 257 597Q258 602 259 607.5Q260 613 260.5 618Q261 623 261 627Q261 638 258.5 646Q256 654 250.5 661Q245 668 238 674Q231 680 218 691V700H499V691Q474 676 461.5 667.5Q449 659 439.5 648.5Q430 638 423 622.5Q416 607 410 582ZM628 321Q610 321 593.5 327.5Q577 334 565 346Q553 358 546.5 374Q540 390 540 408Q540 426 546.5 442Q553 458 565 470Q577 482 593.5 488.5Q610 495 628 495Q646 495 662.5 488.5Q679 482 691 470Q703 458 710 442Q717 426 717 408Q717 390 710 374Q703 358 691 346Q679 334 662.5 327.5Q646 321 628 321Z" glyph-name="Ldot" horiz-adv-x="663" unicode="&#319;" /><glyph d="M386 493 273 40H377Q411 40 437.5 48.5Q464 57 490.5 76Q517 95 547 124.5Q577 154 623 206H637L553 0H55V9Q78 22 88.5 29Q99 36 107.5 45Q116 54 122 67Q128 80 133 101L231 493Q233 499 234 504.5Q235 510 235.5 514.5Q236 519 236.5 523Q237 527 237 530Q237 539 234.5 546Q232 553 227.5 559Q223 565 216 571Q209 577 198 585L197 594H464V585Q441 572 430.5 565Q420 558 411.5 549Q403 540 397 527Q391 514 386 493ZM590 281Q572 281 555.5 287.5Q539 294 527 306Q515 318 508.5 334Q502 350 502 368Q502 386 508.5 402Q515 418 527 430Q539 442 555.5 448.5Q572 455 590 455Q608 455 624.5 448.5Q641 442 653 430Q665 418 672 402Q679 386 679 368Q679 350 672 334Q665 318 653 306Q641 294 624.5 287.5Q608 281 590 281Z" glyph-name="Ldot.sc" horiz-adv-x="613" /><glyph d="M57 0V9Q82 24 94 32.5Q106 41 115.5 51.5Q125 62 132 77.5Q139 93 145 118L193 308L115 284L127 333L205 358L262 582Q264 592 265 597Q266 602 267 607.5Q268 613 268.5 618Q269 623 269 627Q269 638 266.5 646Q264 654 258.5 661Q253 668 246 674Q239 680 226 691V700H507V691Q482 676 469.5 667.5Q457 659 447.5 648.5Q438 638 431 622.5Q424 607 418 582L372 397L538 448L527 399L359 347L284 45H410Q448 45 478.5 54.5Q509 64 538.5 85.5Q568 107 601 141Q634 175 684 233H698L604 0Z" glyph-name="Lslash" horiz-adv-x="671" unicode="&#321;" /><glyph d="M63 0V9Q86 22 96.5 29Q107 36 115.5 45Q124 54 130 67Q136 80 141 101L181 260L102 234L113 279L192 305L239 493Q241 499 242 504.5Q243 510 243.5 514.5Q244 519 244.5 523Q245 527 245 530Q245 539 242.5 546Q240 553 235.5 559Q231 565 224 571Q217 577 206 585L205 594H472V585Q449 572 438.5 565Q428 558 419.5 549Q411 540 405 527Q399 514 394 493L357 343L501 391L491 346L345 298L281 40H385Q419 40 445.5 48.5Q472 57 498.5 76Q525 95 555 124.5Q585 154 631 206H645L561 0Z" glyph-name="Lslash.sc" horiz-adv-x="621" /><glyph d="M836 700H1072V691Q1047 676 1035 667.5Q1023 659 1013.5 648.5Q1004 638 997 622.5Q990 607 984 582L868 118Q866 111 864.5 104.5Q863 98 862.5 92.5Q862 87 861.5 82.5Q861 78 861 73Q861 62 863.5 54Q866 46 871 39Q876 32 883 26Q890 20 903 9V0H624V9Q648 23 661 31.5Q674 40 683.5 51Q693 62 700 77.5Q707 93 713 118L837 614L437 -10H433L318 614L194 118Q193 113 192 108.5Q191 104 190.5 100Q190 96 189.5 92.5Q189 89 189 86Q189 72 193.5 62Q198 52 205 44.5Q212 37 227.5 25Q243 13 247 9V0H31V9Q87 41 99.5 52Q112 63 121.5 78.5Q131 94 137 118L254 582Q256 589 257 595.5Q258 602 258.5 607.5Q259 613 259.5 618Q260 623 260 627Q260 638 257.5 646Q255 654 250 661Q245 668 238 674Q231 680 218 691V700H461L544 243Z" glyph-name="M" horiz-adv-x="946" unicode="M" /><glyph d="M744 594H972V585Q949 572 938.5 565Q928 558 920 549Q912 540 906 527Q900 514 895 493L797 101Q795 95 794 90Q793 85 792.5 80.5Q792 76 791.5 72Q791 68 791 64Q791 55 793.5 48Q796 41 800.5 35Q805 29 811.5 23.5Q818 18 830 9V0H565V9Q588 22 599 29Q610 36 618.5 45Q627 54 633 67Q639 80 644 101L748 521L402 -8H399L290 521L186 101Q185 97 184 93Q183 89 182.5 86Q182 83 181.5 80Q181 77 181 74Q181 62 185 53.5Q189 45 195.5 38.5Q202 32 216 21.5Q230 11 233 9V0H40V9Q90 37 101 45.5Q112 54 120 67.5Q128 81 133 101L231 493Q233 499 234 504.5Q235 510 235.5 514.5Q236 519 236.5 523Q237 527 237 530Q237 539 234.5 546Q232 553 227.5 559Q223 565 216 571Q209 577 197 585V594H432L505 225Z" glyph-name="M.sc" horiz-adv-x="879" /><glyph d="M675 -4H635L309 582L193 118Q192 113 191 109Q190 105 189.5 101Q189 97 189 93Q189 89 189 86Q189 72 193.5 62Q198 52 205 44.5Q212 37 227.5 25Q243 13 247 9V0H31V9Q87 41 99.5 52Q112 63 121.5 78.5Q131 94 137 118L254 582Q256 592 257 597Q258 602 259 607.5Q260 613 260.5 618Q261 623 261 627Q261 638 258.5 646Q256 654 250.5 661Q245 668 238 674Q231 680 218 691V700H419L677 227L765 582Q766 587 767 591.5Q768 596 768.5 600Q769 604 769.5 607.5Q770 611 770 614Q770 628 765.5 638Q761 648 754 655.5Q747 663 731.5 675Q716 687 712 691V700H928V691Q871 659 858.5 648Q846 637 836.5 621.5Q827 606 821 582Z" glyph-name="N" horiz-adv-x="775" unicode="N" /><glyph d="M617 -3H578L281 487L185 101Q184 97 183 93.5Q182 90 181.5 86.5Q181 83 181 80Q181 77 181 74Q181 62 185 53.5Q189 45 195.5 38.5Q202 32 233 9V0H40V9Q90 37 101 45.5Q112 54 120 67.5Q128 81 133 101L231 493Q232 499 233 504Q234 509 234.5 513.5Q235 518 235.5 522Q236 526 236 530Q236 539 233.5 546Q231 553 226.5 559Q222 565 215.5 570.5Q209 576 197 585V594H389L620 205L692 493Q693 497 693.5 500.5Q694 504 694.5 507Q695 510 695 513Q695 516 695 519Q695 531 691.5 540Q688 549 681.5 555.5Q675 562 660.5 573Q646 584 644 585V594H837V585Q787 557 776 548.5Q765 540 757 526.5Q749 513 744 493Z" glyph-name="N.sc" horiz-adv-x="720" /><glyph glyph-name="NULL" horiz-adv-x="0" /><glyph d="M649 944H813L580 763H549ZM675 -4H635L309 582L193 118Q192 113 191 109Q190 105 189.5 101Q189 97 189 93Q189 89 189 86Q189 72 193.5 62Q198 52 205 44.5Q212 37 227.5 25Q243 13 247 9V0H31V9Q87 41 99.5 52Q112 63 121.5 78.5Q131 94 137 118L254 582Q256 592 257 597Q258 602 259 607.5Q260 613 260.5 618Q261 623 261 627Q261 638 258.5 646Q256 654 250.5 661Q245 668 238 674Q231 680 218 691V700H419L677 227L765 582Q766 587 767 591.5Q768 596 768.5 600Q769 604 769.5 607.5Q770 611 770 614Q770 628 765.5 638Q761 648 754 655.5Q747 663 731.5 675Q716 687 712 691V700H928V691Q871 659 858.5 648Q846 637 836.5 621.5Q827 606 821 582Z" glyph-name="Nacute" horiz-adv-x="775" unicode="&#323;" /><glyph d="M600 857H772L534 669H505ZM617 -3H578L281 487L185 101Q184 97 183 93.5Q182 90 181.5 86.5Q181 83 181 80Q181 77 181 74Q181 62 185 53.5Q189 45 195.5 38.5Q202 32 233 9V0H40V9Q90 37 101 45.5Q112 54 120 67.5Q128 81 133 101L231 493Q232 499 233 504Q234 509 234.5 513.5Q235 518 235.5 522Q236 526 236 530Q236 539 233.5 546Q231 553 226.5 559Q222 565 215.5 570.5Q209 576 197 585V594H389L620 205L692 493Q693 497 693.5 500.5Q694 504 694.5 507Q695 510 695 513Q695 516 695 519Q695 531 691.5 540Q688 549 681.5 555.5Q675 562 660.5 573Q646 584 644 585V594H837V585Q787 557 776 548.5Q765 540 757 526.5Q749 513 744 493Z" glyph-name="Nacute.sc" horiz-adv-x="720" /><glyph d="M579 756Q573 777 561.5 801Q550 825 535 851.5Q520 878 503 904.5Q486 931 466 960H505Q521 952 535 942Q549 932 561 922Q573 912 611 877Q630 889 650 900.5Q670 912 691 922.5Q712 933 735 942.5Q758 952 782 960H820Q782 928 752 902.5Q722 877 693 851Q664 825 639 800.5Q614 776 597 756ZM675 -4H635L309 582L193 118Q192 113 191 109Q190 105 189.5 101Q189 97 189 93Q189 89 189 86Q189 72 193.5 62Q198 52 205 44.5Q212 37 227.5 25Q243 13 247 9V0H31V9Q87 41 99.5 52Q112 63 121.5 78.5Q131 94 137 118L254 582Q256 592 257 597Q258 602 259 607.5Q260 613 260.5 618Q261 623 261 627Q261 638 258.5 646Q256 654 250.5 661Q245 668 238 674Q231 680 218 691V700H419L677 227L765 582Q766 587 767 591.5Q768 596 768.5 600Q769 604 769.5 607.5Q770 611 770 614Q770 628 765.5 638Q761 648 754 655.5Q747 663 731.5 675Q716 687 712 691V700H928V691Q871 659 858.5 648Q846 637 836.5 621.5Q827 606 821 582Z" glyph-name="Ncaron" horiz-adv-x="775" unicode="&#327;" /><glyph d="M542 663H525Q518 684 506.5 711.5Q495 739 480 769.5Q465 800 448 830Q431 860 414 886H452Q467 876 481.5 865Q496 854 508.5 842.5Q521 831 532.5 819Q544 807 558 792Q577 805 597.5 817.5Q618 830 640 841.5Q662 853 684.5 864Q707 875 730 886H768Q737 860 704.5 830Q672 800 642 770Q612 740 586 712.5Q560 685 542 663ZM617 -3H578L281 487L185 101Q184 97 183 93.5Q182 90 181.5 86.5Q181 83 181 80Q181 77 181 74Q181 62 185 53.5Q189 45 195.5 38.5Q202 32 233 9V0H40V9Q90 37 101 45.5Q112 54 120 67.5Q128 81 133 101L231 493Q232 499 233 504Q234 509 234.5 513.5Q235 518 235.5 522Q236 526 236 530Q236 539 233.5 546Q231 553 226.5 559Q222 565 215.5 570.5Q209 576 197 585V594H389L620 205L692 493Q693 497 693.5 500.5Q694 504 694.5 507Q695 510 695 513Q695 516 695 519Q695 531 691.5 540Q688 549 681.5 555.5Q675 562 660.5 573Q646 584 644 585V594H837V585Q787 557 776 548.5Q765 540 757 526.5Q749 513 744 493Z" glyph-name="Ncaron.sc" horiz-adv-x="720" /><glyph d="M380 -171Q376 -174 371 -176Q366 -178 361 -179.5Q356 -181 350.5 -181.5Q345 -182 339 -182Q327 -182 316.5 -178.5Q306 -175 298.5 -167.5Q291 -160 287 -150.5Q283 -141 283 -129Q283 -114 289.5 -101Q296 -88 307.5 -78.5Q319 -69 334.5 -63.5Q350 -58 368 -58Q386 -58 401 -64.5Q416 -71 427 -82.5Q438 -94 443.5 -109Q449 -124 449 -141Q449 -173 435 -199Q421 -225 394.5 -243Q368 -261 332 -270Q296 -279 252 -279L257 -248Q283 -247 304.5 -241.5Q326 -236 341.5 -226Q357 -216 367 -202Q377 -188 380 -171ZM675 -4H635L309 582L193 118Q192 113 191 109Q190 105 189.5 101Q189 97 189 93Q189 89 189 86Q189 72 193.5 62Q198 52 205 44.5Q212 37 227.5 25Q243 13 247 9V0H31V9Q87 41 99.5 52Q112 63 121.5 78.5Q131 94 137 118L254 582Q256 592 257 597Q258 602 259 607.5Q260 613 260.5 618Q261 623 261 627Q261 638 258.5 646Q256 654 250.5 661Q245 668 238 674Q231 680 218 691V700H419L677 227L765 582Q766 587 767 591.5Q768 596 768.5 600Q769 604 769.5 607.5Q770 611 770 614Q770 628 765.5 638Q761 648 754 655.5Q747 663 731.5 675Q716 687 712 691V700H928V691Q871 659 858.5 648Q846 637 836.5 621.5Q827 606 821 582Z" glyph-name="Ncommaaccent" horiz-adv-x="775" unicode="&#325;" /><glyph d="M352 -171Q348 -174 343 -176Q338 -178 333 -179.5Q328 -181 322.5 -181.5Q317 -182 311 -182Q299 -182 288.5 -178.5Q278 -175 270.5 -167.5Q263 -160 259 -150.5Q255 -141 255 -129Q255 -114 261.5 -101Q268 -88 279.5 -78.5Q291 -69 306.5 -63.5Q322 -58 340 -58Q358 -58 373 -64.5Q388 -71 399 -82.5Q410 -94 415.5 -109Q421 -124 421 -141Q421 -173 407 -199Q393 -225 366.5 -243Q340 -261 304 -270Q268 -279 224 -279L229 -248Q255 -247 276.5 -241.5Q298 -236 313.5 -226Q329 -216 339 -202Q349 -188 352 -171ZM617 -3H578L281 487L185 101Q184 97 183 93.5Q182 90 181.5 86.5Q181 83 181 80Q181 77 181 74Q181 62 185 53.5Q189 45 195.5 38.5Q202 32 233 9V0H40V9Q90 37 101 45.5Q112 54 120 67.5Q128 81 133 101L231 493Q232 499 233 504Q234 509 234.5 513.5Q235 518 235.5 522Q236 526 236 530Q236 539 233.5 546Q231 553 226.5 559Q222 565 215.5 570.5Q209 576 197 585V594H389L620 205L692 493Q693 497 693.5 500.5Q694 504 694.5 507Q695 510 695 513Q695 516 695 519Q695 531 691.5 540Q688 549 681.5 555.5Q675 562 660.5 573Q646 584 644 585V594H837V585Q787 557 776 548.5Q765 540 757 526.5Q749 513 744 493Z" glyph-name="Ncommaaccent.sc" horiz-adv-x="720" /><glyph d="M425 773H397Q412 812 428.5 841.5Q445 871 463 891.5Q481 912 500 922.5Q519 933 539 933Q559 933 578.5 925Q598 917 625 901.5Q652 886 668 878.5Q684 871 701 871Q713 871 724.5 875.5Q736 880 746 888.5Q756 897 765.5 909Q775 921 785 937H813Q798 899 781.5 869.5Q765 840 747.5 819.5Q730 799 711 788.5Q692 778 672 778Q652 778 632.5 786Q613 794 586 809Q559 824 542.5 831.5Q526 839 509 839Q497 839 485.5 834.5Q474 830 464 821.5Q454 813 444.5 801Q435 789 425 773ZM675 -4H635L309 582L193 118Q192 113 191 109Q190 105 189.5 101Q189 97 189 93Q189 89 189 86Q189 72 193.5 62Q198 52 205 44.5Q212 37 227.5 25Q243 13 247 9V0H31V9Q87 41 99.5 52Q112 63 121.5 78.5Q131 94 137 118L254 582Q256 592 257 597Q258 602 259 607.5Q260 613 260.5 618Q261 623 261 627Q261 638 258.5 646Q256 654 250.5 661Q245 668 238 674Q231 680 218 691V700H419L677 227L765 582Q766 587 767 591.5Q768 596 768.5 600Q769 604 769.5 607.5Q770 611 770 614Q770 628 765.5 638Q761 648 754 655.5Q747 663 731.5 675Q716 687 712 691V700H928V691Q871 659 858.5 648Q846 637 836.5 621.5Q827 606 821 582Z" glyph-name="Ntilde" horiz-adv-x="775" unicode="&#209;" /><glyph d="M617 -3H578L281 487L185 101Q184 97 183 93.5Q182 90 181.5 86.5Q181 83 181 80Q181 77 181 74Q181 62 185 53.5Q189 45 195.5 38.5Q202 32 233 9V0H40V9Q90 37 101 45.5Q112 54 120 67.5Q128 81 133 101L231 493Q232 499 233 504Q234 509 234.5 513.5Q235 518 235.5 522Q236 526 236 530Q236 539 233.5 546Q231 553 226.5 559Q222 565 215.5 570.5Q209 576 197 585V594H389L620 205L692 493Q693 497 693.5 500.5Q694 504 694.5 507Q695 510 695 513Q695 516 695 519Q695 531 691.5 540Q688 549 681.5 555.5Q675 562 660.5 573Q646 584 644 585V594H837V585Q787 557 776 548.5Q765 540 757 526.5Q749 513 744 493ZM375 679H346Q361 717 377.5 747Q394 777 412 797Q430 817 449 827.5Q468 838 488 838Q508 838 527.5 830Q547 822 574 807Q601 792 617 784.5Q633 777 650 777Q663 777 674 781.5Q685 786 695 794Q705 802 714.5 814Q724 826 734 842H763Q748 804 731.5 774.5Q715 745 697 724.5Q679 704 660.5 693.5Q642 683 622 683Q602 683 582 691Q562 699 535 714.5Q508 730 492 737.5Q476 745 459 745Q446 745 435 740.5Q424 736 414 727.5Q404 719 394.5 707Q385 695 375 679Z" glyph-name="Ntilde.sc" horiz-adv-x="720" /><glyph d="M846 409Q846 317 812.5 239Q779 161 721 105.5Q663 50 589 20Q515 -10 436 -10Q368 -10 311.5 12Q255 34 214.5 74.5Q174 115 152.5 170.5Q131 226 131 291Q131 383 164.5 461Q198 539 256 594.5Q314 650 388 680Q462 710 541 710Q609 710 665 688Q721 666 762 625.5Q803 585 824.5 529.5Q846 474 846 409ZM291 251Q291 197 300.5 157Q310 117 328.5 90.5Q347 64 374 51.5Q401 39 436 39Q488 39 534 75.5Q580 112 614.5 173Q649 234 667.5 307Q686 380 686 449Q686 503 676.5 543Q667 583 648.5 609.5Q630 636 603 648.5Q576 661 541 661Q489 661 443 624.5Q397 588 362.5 527Q328 466 309.5 393Q291 320 291 251Z" glyph-name="O" horiz-adv-x="803" unicode="O" /><glyph d="M773 340Q773 262 743 197Q713 132 660.5 85.5Q608 39 541.5 14.5Q475 -10 404 -10Q343 -10 291.5 9Q240 28 202.5 62.5Q165 97 144.5 144.5Q124 192 124 248V254Q124 332 154 397Q184 462 236.5 508.5Q289 555 355.5 579.5Q422 604 493 604Q554 604 605.5 585Q657 566 694.5 531.5Q732 497 752 449.5Q772 402 773 346ZM282 209Q282 163 290.5 130Q299 97 314.5 75.5Q330 54 352.5 43.5Q375 33 404 33Q448 33 487 64.5Q526 96 555 148Q584 200 599.5 261Q615 322 615 380V385Q614 431 606 464Q598 497 582.5 518.5Q567 540 545 550Q523 560 494 560Q449 560 410 529Q371 498 342 446Q313 394 297.5 333Q282 272 282 214Z" glyph-name="O.sc" horiz-adv-x="748" /><glyph d="M549 47 700 653H606Q529 653 469 620.5Q409 588 369.5 532.5Q330 477 310 409.5Q290 342 290 273Q290 222 301.5 180.5Q313 139 336.5 109Q360 79 396.5 63Q433 47 482 47ZM461 0Q389 0 327.5 19Q266 38 221 73.5Q176 109 151.5 160Q127 211 127 274Q127 368 161 446.5Q195 525 258 582Q321 639 408.5 669.5Q496 700 599 700H1129Q1140 700 1148.5 700.5Q1157 701 1164.5 702Q1172 703 1177.5 704Q1183 705 1191 706L1178 520H1168Q1150 564 1139 585Q1128 606 1111 622.5Q1094 639 1067.5 647Q1041 655 999 655H857L789 384H890Q924 384 943 386.5Q962 389 978 398Q994 407 1010 426Q1026 445 1050 480H1061L1001 243H990Q984 279 977.5 297.5Q971 316 959.5 325Q948 334 930.5 336.5Q913 339 879 339H778L705 45H870Q909 45 940.5 54Q972 63 1000 81.5Q1028 100 1055.5 127Q1083 154 1122 197H1135L1055 0Z" glyph-name="OE" horiz-adv-x="1113" unicode="&#338;" /><glyph d="M627 552H552Q484 552 432.5 524Q381 496 347.5 449Q314 402 297.5 345.5Q281 289 281 232Q281 189 291 154Q301 119 321 94Q341 69 372 55.5Q403 42 444 42H500ZM425 0Q360 0 304 16Q248 32 206.5 62Q165 92 142.5 135.5Q120 179 120 233Q120 313 150.5 379.5Q181 446 237 494Q293 542 371.5 568Q450 594 543 594H1020Q1029 594 1037.5 594.5Q1046 595 1052 595.5Q1058 596 1076 599L1064 436H1056Q1038 475 1028 492.5Q1018 510 1003 524.5Q988 539 964 546Q940 553 902 553H781L725 326H807Q838 326 855 328Q872 330 886.5 337.5Q901 345 915.5 361Q930 377 951 407H961L911 203H901Q895 233 888 249Q881 265 870.5 272.5Q860 280 844.5 282Q829 284 798 284H714L654 41H797Q831 41 859 49Q887 57 912 73Q937 89 961.5 112.5Q986 136 1020 173H1034L963 0Z" glyph-name="OE.sc" horiz-adv-x="1024" /><glyph d="M654 944H818L585 763H554ZM846 409Q846 317 812.5 239Q779 161 721 105.5Q663 50 589 20Q515 -10 436 -10Q368 -10 311.5 12Q255 34 214.5 74.5Q174 115 152.5 170.5Q131 226 131 291Q131 383 164.5 461Q198 539 256 594.5Q314 650 388 680Q462 710 541 710Q609 710 665 688Q721 666 762 625.5Q803 585 824.5 529.5Q846 474 846 409ZM291 251Q291 197 300.5 157Q310 117 328.5 90.5Q347 64 374 51.5Q401 39 436 39Q488 39 534 75.5Q580 112 614.5 173Q649 234 667.5 307Q686 380 686 449Q686 503 676.5 543Q667 583 648.5 609.5Q630 636 603 648.5Q576 661 541 661Q489 661 443 624.5Q397 588 362.5 527Q328 466 309.5 393Q291 320 291 251Z" glyph-name="Oacute" horiz-adv-x="802" unicode="&#211;" /><glyph d="M773 340Q773 262 743 197Q713 132 660.5 85.5Q608 39 541.5 14.5Q475 -10 404 -10Q343 -10 291.5 9Q240 28 202.5 62.5Q165 97 144.5 144.5Q124 192 124 248V254Q124 332 154 397Q184 462 236.5 508.5Q289 555 355.5 579.5Q422 604 493 604Q554 604 605.5 585Q657 566 694.5 531.5Q732 497 752 449.5Q772 402 773 346ZM282 209Q282 163 290.5 130Q299 97 314.5 75.5Q330 54 352.5 43.5Q375 33 404 33Q448 33 487 64.5Q526 96 555 148Q584 200 599.5 261Q615 322 615 380V385Q614 431 606 464Q598 497 582.5 518.5Q567 540 545 550Q523 560 494 560Q449 560 410 529Q371 498 342 446Q313 394 297.5 333Q282 272 282 214ZM599 857H771L533 669H504Z" glyph-name="Oacute.sc" horiz-adv-x="748" /><glyph d="M510 949Q510 930 518 915.5Q526 901 540 892Q554 883 572 879Q590 875 610 875Q632 875 653.5 880Q675 885 694.5 895.5Q714 906 729.5 922.5Q745 939 755 961H783Q772 919 753 884Q734 849 709 823.5Q684 798 654.5 784Q625 770 592 770Q565 770 543.5 779Q522 788 507 805.5Q492 823 484 847Q476 871 476 901Q476 908 476.5 915Q477 922 477.5 929.5Q478 937 479.5 945Q481 953 483 961H510ZM846 409Q846 317 812.5 239Q779 161 721 105.5Q663 50 589 20Q515 -10 436 -10Q368 -10 311.5 12Q255 34 214.5 74.5Q174 115 152.5 170.5Q131 226 131 291Q131 383 164.5 461Q198 539 256 594.5Q314 650 388 680Q462 710 541 710Q609 710 665 688Q721 666 762 625.5Q803 585 824.5 529.5Q846 474 846 409ZM291 251Q291 197 300.5 157Q310 117 328.5 90.5Q347 64 374 51.5Q401 39 436 39Q488 39 534 75.5Q580 112 614.5 173Q649 234 667.5 307Q686 380 686 449Q686 503 676.5 543Q667 583 648.5 609.5Q630 636 603 648.5Q576 661 541 661Q489 661 443 624.5Q397 588 362.5 527Q328 466 309.5 393Q291 320 291 251Z" glyph-name="Obreve" horiz-adv-x="802" unicode="&#334;" /><glyph d="M773 340Q773 262 743 197Q713 132 660.5 85.5Q608 39 541.5 14.5Q475 -10 404 -10Q343 -10 291.5 9Q240 28 202.5 62.5Q165 97 144.5 144.5Q124 192 124 248V254Q124 332 154 397Q184 462 236.5 508.5Q289 555 355.5 579.5Q422 604 493 604Q554 604 605.5 585Q657 566 694.5 531.5Q732 497 752 449.5Q772 402 773 346ZM282 209Q282 163 290.5 130Q299 97 314.5 75.5Q330 54 352.5 43.5Q375 33 404 33Q448 33 487 64.5Q526 96 555 148Q584 200 599.5 261Q615 322 615 380V385Q614 431 606 464Q598 497 582.5 518.5Q567 540 545 550Q523 560 494 560Q449 560 410 529Q371 498 342 446Q313 394 297.5 333Q282 272 282 214ZM459 856Q459 836 467 821.5Q475 807 489 798Q503 789 521 784.5Q539 780 559 780Q581 780 602.5 785Q624 790 643.5 801Q663 812 679 829Q695 846 705 869H732Q720 827 701 791.5Q682 756 657.5 730Q633 704 603 690Q573 676 540 676Q513 676 492 685Q471 694 456 711.5Q441 729 433 753Q425 777 425 806Q425 814 425.5 821.5Q426 829 427 836.5Q428 844 429.5 852.5Q431 861 433 869H460Q460 867 459.5 865.5Q459 864 459 862.5Q459 861 459 859.5Q459 858 459 856Z" glyph-name="Obreve.sc" horiz-adv-x="748" /><glyph d="M846 409Q846 317 812.5 239Q779 161 721 105.5Q663 50 589 20Q515 -10 436 -10Q368 -10 311.5 12Q255 34 214.5 74.5Q174 115 152.5 170.5Q131 226 131 291Q131 383 164.5 461Q198 539 256 594.5Q314 650 388 680Q462 710 541 710Q609 710 665 688Q721 666 762 625.5Q803 585 824.5 529.5Q846 474 846 409ZM291 251Q291 197 300.5 157Q310 117 328.5 90.5Q347 64 374 51.5Q401 39 436 39Q488 39 534 75.5Q580 112 614.5 173Q649 234 667.5 307Q686 380 686 449Q686 503 676.5 543Q667 583 648.5 609.5Q630 636 603 648.5Q576 661 541 661Q489 661 443 624.5Q397 588 362.5 527Q328 466 309.5 393Q291 320 291 251ZM638 961Q644 941 655.5 916.5Q667 892 682 866Q697 840 714 813.5Q731 787 751 757H713Q697 766 683 776Q669 786 656 796.5Q643 807 632 817Q621 827 607 841Q588 829 568 817.5Q548 806 526.5 795.5Q505 785 482 775Q459 765 435 757H397Q440 793 468.5 817Q497 841 525.5 866.5Q554 892 578.5 916.5Q603 941 620 961Z" glyph-name="Ocircumflex" horiz-adv-x="802" unicode="&#212;" /><glyph d="M590 883Q596 862 607.5 834.5Q619 807 634 776.5Q649 746 666 716Q683 686 700 660H662Q646 670 632 681Q618 692 605.5 703.5Q593 715 581.5 727Q570 739 557 754Q538 741 517 728.5Q496 716 474 704.5Q452 693 430 681.5Q408 670 385 660H346Q377 686 409.5 716Q442 746 472 776Q502 806 528 833.5Q554 861 572 883ZM773 340Q773 262 743 197Q713 132 660.5 85.5Q608 39 541.5 14.5Q475 -10 404 -10Q343 -10 291.5 9Q240 28 202.5 62.5Q165 97 144.5 144.5Q124 192 124 248V254Q124 332 154 397Q184 462 236.5 508.5Q289 555 355.5 579.5Q422 604 493 604Q554 604 605.5 585Q657 566 694.5 531.5Q732 497 752 449.5Q772 402 773 346ZM282 209Q282 163 290.5 130Q299 97 314.5 75.5Q330 54 352.5 43.5Q375 33 404 33Q448 33 487 64.5Q526 96 555 148Q584 200 599.5 261Q615 322 615 380V385Q614 431 606 464Q598 497 582.5 518.5Q567 540 545 550Q523 560 494 560Q449 560 410 529Q371 498 342 446Q313 394 297.5 333Q282 272 282 214Z" glyph-name="Ocircumflex.sc" horiz-adv-x="748" /><glyph d="M701 764Q685 764 671 770Q657 776 646 786.5Q635 797 629 811.5Q623 826 623 841Q623 857 629 871.5Q635 886 646 897Q657 908 671 914.5Q685 921 701 921Q717 921 731 914.5Q745 908 756 897Q767 886 773 871.5Q779 857 779 841Q779 826 773 811.5Q767 797 756 786.5Q745 776 731 770Q717 764 701 764ZM492 764Q476 764 462 770Q448 776 437.5 786.5Q427 797 421 811Q415 825 415 841Q415 857 421 871.5Q427 886 437.5 897Q448 908 462 914.5Q476 921 492 921Q508 921 522 914.5Q536 908 547 897Q558 886 564 871.5Q570 857 570 841Q570 826 564 811.5Q558 797 547 786.5Q536 776 522 770Q508 764 492 764ZM846 409Q846 317 812.5 239Q779 161 721 105.5Q663 50 589 20Q515 -10 436 -10Q368 -10 311.5 12Q255 34 214.5 74.5Q174 115 152.5 170.5Q131 226 131 291Q131 383 164.5 461Q198 539 256 594.5Q314 650 388 680Q462 710 541 710Q609 710 665 688Q721 666 762 625.5Q803 585 824.5 529.5Q846 474 846 409ZM291 251Q291 197 300.5 157Q310 117 328.5 90.5Q347 64 374 51.5Q401 39 436 39Q488 39 534 75.5Q580 112 614.5 173Q649 234 667.5 307Q686 380 686 449Q686 503 676.5 543Q667 583 648.5 609.5Q630 636 603 648.5Q576 661 541 661Q489 661 443 624.5Q397 588 362.5 527Q328 466 309.5 393Q291 320 291 251Z" glyph-name="Odieresis" horiz-adv-x="802" unicode="&#214;" /><glyph d="M451 672Q435 672 421 678Q407 684 396.5 694.5Q386 705 380 719Q374 733 374 749Q374 765 380 779.5Q386 794 396.5 805Q407 816 421 822.5Q435 829 451 829Q467 829 481.5 822.5Q496 816 506.5 805Q517 794 523 779.5Q529 765 529 749Q529 733 523 719Q517 705 506.5 694.5Q496 684 481.5 678Q467 672 451 672ZM660 672Q644 672 630 678Q616 684 605 694.5Q594 705 588 719.5Q582 734 582 749Q582 765 588 779.5Q594 794 605 805Q616 816 630 822.5Q644 829 660 829Q676 829 690.5 822.5Q705 816 715.5 805Q726 794 732 779.5Q738 765 738 749Q738 733 732 719Q726 705 715.5 694.5Q705 684 690.5 678Q676 672 660 672ZM773 340Q773 262 743 197Q713 132 660.5 85.5Q608 39 541.5 14.5Q475 -10 404 -10Q343 -10 291.5 9Q240 28 202.5 62.5Q165 97 144.5 144.5Q124 192 124 248V254Q124 332 154 397Q184 462 236.5 508.5Q289 555 355.5 579.5Q422 604 493 604Q554 604 605.5 585Q657 566 694.5 531.5Q732 497 752 449.5Q772 402 773 346ZM282 209Q282 163 290.5 130Q299 97 314.5 75.5Q330 54 352.5 43.5Q375 33 404 33Q448 33 487 64.5Q526 96 555 148Q584 200 599.5 261Q615 322 615 380V385Q614 431 606 464Q598 497 582.5 518.5Q567 540 545 550Q523 560 494 560Q449 560 410 529Q371 498 342 446Q313 394 297.5 333Q282 272 282 214Z" glyph-name="Odieresis.sc" horiz-adv-x="748" /><glyph d="M434 944H596L608 763H584ZM846 409Q846 317 812.5 239Q779 161 721 105.5Q663 50 589 20Q515 -10 436 -10Q368 -10 311.5 12Q255 34 214.5 74.5Q174 115 152.5 170.5Q131 226 131 291Q131 383 164.5 461Q198 539 256 594.5Q314 650 388 680Q462 710 541 710Q609 710 665 688Q721 666 762 625.5Q803 585 824.5 529.5Q846 474 846 409ZM291 251Q291 197 300.5 157Q310 117 328.5 90.5Q347 64 374 51.5Q401 39 436 39Q488 39 534 75.5Q580 112 614.5 173Q649 234 667.5 307Q686 380 686 449Q686 503 676.5 543Q667 583 648.5 609.5Q630 636 603 648.5Q576 661 541 661Q489 661 443 624.5Q397 588 362.5 527Q328 466 309.5 393Q291 320 291 251Z" glyph-name="Ograve" horiz-adv-x="802" unicode="&#210;" /><glyph d="M773 340Q773 262 743 197Q713 132 660.5 85.5Q608 39 541.5 14.5Q475 -10 404 -10Q343 -10 291.5 9Q240 28 202.5 62.5Q165 97 144.5 144.5Q124 192 124 248V254Q124 332 154 397Q184 462 236.5 508.5Q289 555 355.5 579.5Q422 604 493 604Q554 604 605.5 585Q657 566 694.5 531.5Q732 497 752 449.5Q772 402 773 346ZM282 209Q282 163 290.5 130Q299 97 314.5 75.5Q330 54 352.5 43.5Q375 33 404 33Q448 33 487 64.5Q526 96 555 148Q584 200 599.5 261Q615 322 615 380V385Q614 431 606 464Q598 497 582.5 518.5Q567 540 545 550Q523 560 494 560Q449 560 410 529Q371 498 342 446Q313 394 297.5 333Q282 272 282 214ZM384 857H546L557 669H535Z" glyph-name="Ograve.sc" horiz-adv-x="748" /><glyph d="M846 409Q846 317 812.5 239Q779 161 721 105.5Q663 50 589 20Q515 -10 436 -10Q368 -10 311.5 12Q255 34 214.5 74.5Q174 115 152.5 170.5Q131 226 131 291Q131 383 164.5 461Q198 539 256 594.5Q314 650 388 680Q462 710 541 710Q609 710 665 688Q721 666 762 625.5Q803 585 824.5 529.5Q846 474 846 409ZM291 251Q291 197 300.5 157Q310 117 328.5 90.5Q347 64 374 51.5Q401 39 436 39Q488 39 534 75.5Q580 112 614.5 173Q649 234 667.5 307Q686 380 686 449Q686 503 676.5 543Q667 583 648.5 609.5Q630 636 603 648.5Q576 661 541 661Q489 661 443 624.5Q397 588 362.5 527Q328 466 309.5 393Q291 320 291 251ZM564 945H713L494 764H463ZM747 945H897L677 764H647Z" glyph-name="Ohungarumlaut" horiz-adv-x="802" unicode="&#336;" /><glyph d="M773 340Q773 262 743 197Q713 132 660.5 85.5Q608 39 541.5 14.5Q475 -10 404 -10Q343 -10 291.5 9Q240 28 202.5 62.5Q165 97 144.5 144.5Q124 192 124 248V254Q124 332 154 397Q184 462 236.5 508.5Q289 555 355.5 579.5Q422 604 493 604Q554 604 605.5 585Q657 566 694.5 531.5Q732 497 752 449.5Q772 402 773 346ZM282 209Q282 163 290.5 130Q299 97 314.5 75.5Q330 54 352.5 43.5Q375 33 404 33Q448 33 487 64.5Q526 96 555 148Q584 200 599.5 261Q615 322 615 380V385Q614 431 606 464Q598 497 582.5 518.5Q567 540 545 550Q523 560 494 560Q449 560 410 529Q371 498 342 446Q313 394 297.5 333Q282 272 282 214ZM509 857H658L435 669H405ZM692 857H841L618 669H588Z" glyph-name="Ohungarumlaut.sc" horiz-adv-x="748" /><glyph d="M737 783H438L458 861H757ZM846 409Q846 317 812.5 239Q779 161 721 105.5Q663 50 589 20Q515 -10 436 -10Q368 -10 311.5 12Q255 34 214.5 74.5Q174 115 152.5 170.5Q131 226 131 291Q131 383 164.5 461Q198 539 256 594.5Q314 650 388 680Q462 710 541 710Q609 710 665 688Q721 666 762 625.5Q803 585 824.5 529.5Q846 474 846 409ZM291 251Q291 197 300.5 157Q310 117 328.5 90.5Q347 64 374 51.5Q401 39 436 39Q488 39 534 75.5Q580 112 614.5 173Q649 234 667.5 307Q686 380 686 449Q686 503 676.5 543Q667 583 648.5 609.5Q630 636 603 648.5Q576 661 541 661Q489 661 443 624.5Q397 588 362.5 527Q328 466 309.5 393Q291 320 291 251Z" glyph-name="Omacron" horiz-adv-x="802" unicode="&#332;" /><glyph d="M773 340Q773 262 743 197Q713 132 660.5 85.5Q608 39 541.5 14.5Q475 -10 404 -10Q343 -10 291.5 9Q240 28 202.5 62.5Q165 97 144.5 144.5Q124 192 124 248V254Q124 332 154 397Q184 462 236.5 508.5Q289 555 355.5 579.5Q422 604 493 604Q554 604 605.5 585Q657 566 694.5 531.5Q732 497 752 449.5Q772 402 773 346ZM282 209Q282 163 290.5 130Q299 97 314.5 75.5Q330 54 352.5 43.5Q375 33 404 33Q448 33 487 64.5Q526 96 555 148Q584 200 599.5 261Q615 322 615 380V385Q614 431 606 464Q598 497 582.5 518.5Q567 540 545 550Q523 560 494 560Q449 560 410 529Q371 498 342 446Q313 394 297.5 333Q282 272 282 214ZM682 691H383L403 769H702Z" glyph-name="Omacron.sc" horiz-adv-x="748" /><glyph d="M296 251Q296 240 296.5 229Q297 218 297.5 208Q298 198 299.5 188.5Q301 179 303 170L674 569Q665 592 652.5 609.5Q640 627 624 638.5Q608 650 588.5 655.5Q569 661 546 661Q494 661 448 624.5Q402 588 367.5 527Q333 466 314.5 393Q296 320 296 251ZM441 39Q493 39 539 75.5Q585 112 619.5 173Q654 234 672.5 307Q691 380 691 449Q691 459 690.5 468Q690 477 689.5 485.5Q689 494 688 502Q687 510 686 518L317 121Q326 100 338 84.5Q350 69 365.5 59Q381 49 400 44Q419 39 441 39ZM441 -10Q413 -10 386.5 -6Q360 -2 336 5.5Q312 13 290 24Q268 35 249 49L160 -47L128 -18L217 78Q197 98 182 121.5Q167 145 157 172Q147 199 141.5 229Q136 259 136 291Q136 383 169.5 461Q203 539 261 594.5Q319 650 393 680Q467 710 546 710Q575 710 602.5 705.5Q630 701 655 693Q680 685 702.5 672.5Q725 660 744 645L824 731L857 702L776 615Q794 596 808 572.5Q822 549 831.5 523Q841 497 846 468.5Q851 440 851 409Q851 317 817.5 239Q784 161 726 105.5Q668 50 594 20Q520 -10 441 -10Z" glyph-name="Oslash" horiz-adv-x="813" unicode="&#216;" /><glyph d="M287 209Q287 203 287 196.5Q287 190 287.5 184Q288 178 288.5 172.5Q289 167 290 162L604 486Q597 505 586.5 519Q576 533 563 542Q550 551 534 555.5Q518 560 499 560Q454 560 415 529Q376 498 347 446Q318 394 302.5 333Q287 272 287 214ZM409 33Q453 33 492 64.5Q531 96 560 148Q589 200 604.5 261Q620 322 620 380V385Q620 392 619.5 398.5Q619 405 618.5 411.5Q618 418 617.5 424Q617 430 616 437L301 112Q308 92 318.5 77Q329 62 342.5 52.5Q356 43 372.5 38Q389 33 409 33ZM409 -10Q383 -10 359 -6.5Q335 -3 313 3.5Q291 10 271 20Q251 30 233 42L153 -40L121 -12L200 70Q183 87 170 107Q157 127 147.5 149.5Q138 172 133.5 197Q129 222 129 248V254Q129 332 159 397Q189 462 241.5 508.5Q294 555 360.5 579.5Q427 604 498 604Q523 604 547 600.5Q571 597 592.5 591Q614 585 634 575.5Q654 566 671 554L737 622L770 595L704 527Q721 510 734.5 490Q748 470 757.5 447Q767 424 772.5 398.5Q778 373 778 346V340Q778 262 748 197Q718 132 665.5 85.5Q613 39 546.5 14.5Q480 -10 409 -10Z" glyph-name="Oslash.sc" horiz-adv-x="758" /><glyph d="M296 251Q296 240 296.5 229Q297 218 297.5 208Q298 198 299.5 188.5Q301 179 303 170L674 569Q665 592 652.5 609.5Q640 627 624 638.5Q608 650 588.5 655.5Q569 661 546 661Q494 661 448 624.5Q402 588 367.5 527Q333 466 314.5 393Q296 320 296 251ZM441 39Q493 39 539 75.5Q585 112 619.5 173Q654 234 672.5 307Q691 380 691 449Q691 459 690.5 468Q690 477 689.5 485.5Q689 494 688 502Q687 510 686 518L317 121Q326 100 338 84.5Q350 69 365.5 59Q381 49 400 44Q419 39 441 39ZM441 -10Q413 -10 386.5 -6Q360 -2 336 5.5Q312 13 290 24Q268 35 249 49L160 -47L128 -18L217 78Q197 98 182 121.5Q167 145 157 172Q147 199 141.5 229Q136 259 136 291Q136 383 169.5 461Q203 539 261 594.5Q319 650 393 680Q467 710 546 710Q575 710 602.5 705.5Q630 701 655 693Q680 685 702.5 672.5Q725 660 744 645L824 731L857 702L776 615Q794 596 808 572.5Q822 549 831.5 523Q841 497 846 468.5Q851 440 851 409Q851 317 817.5 239Q784 161 726 105.5Q668 50 594 20Q520 -10 441 -10ZM653 944H817L584 763H553Z" glyph-name="Oslashacute" horiz-adv-x="812" unicode="&#510;" /><glyph d="M597 857H769L531 669H502ZM287 209Q287 203 287 196.5Q287 190 287.5 184Q288 178 288.5 172.5Q289 167 290 162L604 486Q597 505 586.5 519Q576 533 563 542Q550 551 534 555.5Q518 560 499 560Q454 560 415 529Q376 498 347 446Q318 394 302.5 333Q287 272 287 214ZM409 33Q453 33 492 64.5Q531 96 560 148Q589 200 604.5 261Q620 322 620 380V385Q620 392 619.5 398.5Q619 405 618.5 411.5Q618 418 617.5 424Q617 430 616 437L301 112Q308 92 318.5 77Q329 62 342.5 52.5Q356 43 372.5 38Q389 33 409 33ZM409 -10Q383 -10 359 -6.5Q335 -3 313 3.5Q291 10 271 20Q251 30 233 42L153 -40L121 -12L200 70Q183 87 170 107Q157 127 147.5 149.5Q138 172 133.5 197Q129 222 129 248V254Q129 332 159 397Q189 462 241.5 508.5Q294 555 360.5 579.5Q427 604 498 604Q523 604 547 600.5Q571 597 592.5 591Q614 585 634 575.5Q654 566 671 554L737 622L770 595L704 527Q721 510 734.5 490Q748 470 757.5 447Q767 424 772.5 398.5Q778 373 778 346V340Q778 262 748 197Q718 132 665.5 85.5Q613 39 546.5 14.5Q480 -10 409 -10Z" glyph-name="Oslashacute.sc" horiz-adv-x="758" /><glyph d="M430 773H402Q417 812 433.5 841.5Q450 871 468 891.5Q486 912 505 922.5Q524 933 544 933Q564 933 583.5 925Q603 917 630 901.5Q657 886 673 878.5Q689 871 706 871Q718 871 729.5 875.5Q741 880 751 888.5Q761 897 770.5 909Q780 921 790 937H818Q803 899 786.5 869.5Q770 840 752.5 819.5Q735 799 716 788.5Q697 778 677 778Q657 778 637.5 786Q618 794 591 809Q564 824 547.5 831.5Q531 839 514 839Q502 839 490.5 834.5Q479 830 469 821.5Q459 813 449.5 801Q440 789 430 773ZM846 409Q846 317 812.5 239Q779 161 721 105.5Q663 50 589 20Q515 -10 436 -10Q368 -10 311.5 12Q255 34 214.5 74.5Q174 115 152.5 170.5Q131 226 131 291Q131 383 164.5 461Q198 539 256 594.5Q314 650 388 680Q462 710 541 710Q609 710 665 688Q721 666 762 625.5Q803 585 824.5 529.5Q846 474 846 409ZM291 251Q291 197 300.5 157Q310 117 328.5 90.5Q347 64 374 51.5Q401 39 436 39Q488 39 534 75.5Q580 112 614.5 173Q649 234 667.5 307Q686 380 686 449Q686 503 676.5 543Q667 583 648.5 609.5Q630 636 603 648.5Q576 661 541 661Q489 661 443 624.5Q397 588 362.5 527Q328 466 309.5 393Q291 320 291 251Z" glyph-name="Otilde" horiz-adv-x="802" unicode="&#213;" /><glyph d="M773 340Q773 262 743 197Q713 132 660.5 85.5Q608 39 541.5 14.5Q475 -10 404 -10Q343 -10 291.5 9Q240 28 202.5 62.5Q165 97 144.5 144.5Q124 192 124 248V254Q124 332 154 397Q184 462 236.5 508.5Q289 555 355.5 579.5Q422 604 493 604Q554 604 605.5 585Q657 566 694.5 531.5Q732 497 752 449.5Q772 402 773 346ZM282 209Q282 163 290.5 130Q299 97 314.5 75.5Q330 54 352.5 43.5Q375 33 404 33Q448 33 487 64.5Q526 96 555 148Q584 200 599.5 261Q615 322 615 380V385Q614 431 606 464Q598 497 582.5 518.5Q567 540 545 550Q523 560 494 560Q449 560 410 529Q371 498 342 446Q313 394 297.5 333Q282 272 282 214ZM371 679H342Q357 717 373.5 747Q390 777 408 797Q426 817 445 827.5Q464 838 484 838Q504 838 523.5 830Q543 822 570 807Q597 792 613 784.5Q629 777 646 777Q659 777 670 781.5Q681 786 691 794Q701 802 710.5 814Q720 826 730 842H759Q744 804 727.5 774.5Q711 745 693 724.5Q675 704 656.5 693.5Q638 683 618 683Q598 683 578 691Q558 699 531 714.5Q504 730 488 737.5Q472 745 455 745Q442 745 431 740.5Q420 736 410 727.5Q400 719 390.5 707Q381 695 371 679Z" glyph-name="Otilde.sc" horiz-adv-x="748" /><glyph d="M333 272 294 118Q293 112 292 107.5Q291 103 290.5 99Q290 95 289.5 91Q289 87 289 84Q289 71 293.5 61Q298 51 305.5 43Q313 35 320 30Q327 25 352 9V0H49V9Q74 24 86 32.5Q98 41 107.5 51.5Q117 62 124 77.5Q131 93 137 118L254 582Q256 592 257 597Q258 602 259 607.5Q260 613 260.5 618Q261 623 261 627Q261 638 258.5 646Q256 654 250.5 661Q245 668 238 674Q231 680 218 691V700H565Q619 700 661.5 689.5Q704 679 733.5 657.5Q763 636 778.5 604Q794 572 794 530Q794 466 766.5 416.5Q739 367 692 335Q645 303 585 287.5Q525 272 459 272ZM344 317H424Q472 317 512 331Q552 345 580.5 373Q609 401 624 442Q639 483 639 535Q639 566 630 589Q621 612 603.5 626.5Q586 641 560 648Q534 655 498 655H428Z" glyph-name="P" horiz-adv-x="706" unicode="P" /><glyph d="M319 226 288 101Q287 97 286 93Q285 89 284.5 86Q284 83 284 79.5Q284 76 284 73Q284 61 287.5 52.5Q291 44 298 37.5Q305 31 312.5 26Q320 21 339 9V0H55V9Q78 22 88.5 29Q99 36 107.5 45Q116 54 122 67Q128 80 133 101L231 493Q233 499 234 504.5Q235 510 235.5 514.5Q236 519 236.5 523Q237 527 237 530Q237 539 234.5 546Q232 553 227.5 559Q223 565 216 571Q209 577 198 585L197 594H519Q568 594 606.5 584.5Q645 575 672 556.5Q699 538 713.5 511Q728 484 728 448V445Q728 390 703.5 348.5Q679 307 636.5 280Q594 253 540 239.5Q486 226 428 226ZM329 267H390Q432 267 466.5 279Q501 291 525.5 314Q550 337 563 371Q576 405 576 448V452Q576 479 567.5 498Q559 517 543.5 529.5Q528 542 504.5 547.5Q481 553 450 553H400Z" glyph-name="P.sc" horiz-adv-x="665" /><glyph d="M643 -150Q613 -150 590 -138.5Q567 -127 550.5 -107Q534 -87 523 -62Q512 -37 502 -5Q493 -6 485 -7Q477 -8 469 -8.5Q461 -9 452.5 -9.5Q444 -10 436 -10Q368 -10 311.5 12Q255 34 214.5 74.5Q174 115 152.5 170.5Q131 226 131 291Q131 383 164.5 461Q198 539 256 594.5Q314 650 388 680Q462 710 541 710Q609 710 665 688Q721 666 762 625.5Q803 585 824.5 529.5Q846 474 846 409Q846 343 828.5 283.5Q811 224 779 175.5Q747 127 704 90Q661 53 610 29Q621 8 631 -7.5Q641 -23 652.5 -35Q664 -47 678 -53.5Q692 -60 708 -60Q718 -60 728 -58Q738 -56 747.5 -51.5Q757 -47 766.5 -39.5Q776 -32 785 -21H794Q782 -54 767 -78Q752 -102 733 -118Q714 -134 691.5 -142Q669 -150 643 -150ZM439 206Q462 206 481 198.5Q500 191 515.5 177.5Q531 164 544 147Q557 130 569 108Q596 138 617.5 178Q639 218 654.5 263.5Q670 309 678 356.5Q686 404 686 449Q686 503 676.5 543Q667 583 648.5 609.5Q630 636 603 648.5Q576 661 541 661Q489 661 443 624.5Q397 588 362.5 527Q328 466 309.5 393Q291 320 291 251Q291 230 292.5 211Q294 192 297 175Q300 158 304 143.5Q308 129 314 117Q324 137 337.5 153.5Q351 170 367 182Q383 194 401.5 200Q420 206 439 206ZM436 39Q442 39 448.5 39.5Q455 40 461.5 41Q468 42 474 44Q480 46 486 48Q478 74 471 93Q464 112 454.5 126.5Q445 141 432.5 149.5Q420 158 404 158Q394 158 383.5 153.5Q373 149 363.5 140.5Q354 132 345.5 119Q337 106 329 90Q338 77 349.5 67.5Q361 58 374.5 51.5Q388 45 403.5 42Q419 39 436 39Z" glyph-name="Q" horiz-adv-x="802" unicode="Q" /><glyph d="M587 -128Q559 -128 538 -118.5Q517 -109 502.5 -92Q488 -75 478 -54Q468 -33 459 -6Q452 -7 445.5 -8Q439 -9 432 -9.5Q425 -10 418 -10Q411 -10 404 -10Q343 -10 291.5 9Q240 28 202.5 62.5Q165 97 144.5 144.5Q124 192 124 248V254Q124 332 154 397Q184 462 236.5 508.5Q289 555 355.5 579.5Q422 604 493 604Q554 604 605.5 585Q657 566 694.5 531.5Q732 497 752 449.5Q772 402 773 346V340Q773 284 757 234Q741 184 712 143Q683 102 643.5 71.5Q604 41 558 21Q567 6 576 -6Q585 -18 596 -27Q607 -36 620.5 -41Q634 -46 650 -46Q659 -46 667 -44.5Q675 -43 683 -39.5Q691 -36 699.5 -30Q708 -24 717 -15H726Q716 -44 702 -65Q688 -86 670.5 -100Q653 -114 632 -121Q611 -128 587 -128ZM407 175Q427 175 443.5 169Q460 163 473 152Q486 141 497 126.5Q508 112 518 94Q540 120 558 154Q576 188 589 226Q602 264 608.5 303.5Q615 343 615 380V385Q614 431 606 464Q598 497 582.5 518.5Q567 540 545 550Q523 560 494 560Q449 560 410 529Q371 498 342 446Q313 394 297.5 333Q282 272 282 214V209Q282 193 283 179Q284 165 286 152Q288 139 291 128Q294 117 298 107Q307 123 319.5 135.5Q332 148 346 157Q360 166 375.5 170.5Q391 175 407 175ZM404 33Q409 33 414.5 33.5Q420 34 425 35Q430 36 435 37Q440 38 445 40Q438 63 432 79Q426 95 418 108Q410 121 399 128Q388 135 374 135Q366 135 357.5 131.5Q349 128 341 121Q333 114 325.5 104Q318 94 311 81Q318 69 328 60Q338 51 349.5 45Q361 39 374.5 36Q388 33 404 33Z" glyph-name="Q.sc" horiz-adv-x="748" /><glyph d="M429 657 355 357H449Q494 357 531 370Q568 383 593 407Q618 431 631.5 464.5Q645 498 645 538Q645 567 637.5 589Q630 611 614.5 626Q599 641 575.5 649Q552 657 521 657ZM343 314 294 118Q292 111 290.5 104.5Q289 98 288.5 92.5Q288 87 287.5 82.5Q287 78 287 73Q287 62 289.5 54Q292 46 297.5 39Q303 32 310 26Q317 20 330 9V0H49V9Q74 24 86 32.5Q98 41 107.5 51.5Q117 62 124 77.5Q131 93 137 118L254 582Q256 592 257 597Q258 602 259 607.5Q260 613 260.5 618Q261 623 261 627Q261 638 258.5 646Q256 654 250.5 661Q245 668 238 674Q231 680 218 691V700H574Q628 700 671 689.5Q714 679 744 659Q774 639 789.5 608.5Q805 578 805 538Q805 490 783 452.5Q761 415 723.5 390Q686 365 640 352Q594 339 545 337V335Q576 332 598.5 323.5Q621 315 637 299.5Q653 284 662 261.5Q671 239 675 209L685 125Q688 98 693 80.5Q698 63 705.5 50.5Q713 38 724 29Q735 20 754 9V0H552Q547 14 544 26.5Q541 39 538.5 51.5Q536 64 534.5 77.5Q533 91 531 108L519 221Q517 246 511.5 263.5Q506 281 495.5 292Q485 303 468.5 308.5Q452 314 427 314Z" glyph-name="R" horiz-adv-x="753" unicode="R" /><glyph d="M401 554 339 305H415Q454 305 485.5 315.5Q517 326 538.5 346Q560 366 571 393Q582 420 582 453V455Q582 479 575.5 497.5Q569 516 555.5 528.5Q542 541 521.5 547.5Q501 554 474 554ZM329 266 287 101Q286 95 285 90Q284 85 283.5 80.5Q283 76 282.5 72Q282 68 282 64Q282 55 284 48Q286 41 291 35Q296 29 302 23.5Q308 18 320 9V0H55V9Q78 22 88.5 29Q99 36 107.5 45Q116 54 122 67Q128 80 133 101L231 493Q233 499 234 504.5Q235 510 235.5 514.5Q236 519 236.5 523Q237 527 237 530Q237 539 234.5 546Q232 553 227.5 559Q223 565 216 571Q209 577 198 585L197 594H529Q579 594 618 585Q657 576 684 558.5Q711 541 725.5 515Q740 489 740 455V453Q740 412 721 381Q702 350 669.5 329.5Q637 309 597 298.5Q557 288 514 286V284Q543 282 562.5 274.5Q582 267 595.5 254.5Q609 242 616.5 223Q624 204 627 177L637 106Q640 83 644.5 68Q649 53 655.5 43.5Q662 34 671 26Q680 18 696 9V0H504Q500 12 496.5 22.5Q493 33 491 44Q489 55 487.5 66Q486 77 484 92L473 191Q471 211 466 225Q461 239 452 248Q443 257 428.5 261.5Q414 266 392 266Z" glyph-name="R.sc" horiz-adv-x="707" /><glyph d="M429 657 355 357H449Q494 357 531 370Q568 383 593 407Q618 431 631.5 464.5Q645 498 645 538Q645 567 637.5 589Q630 611 614.5 626Q599 641 575.5 649Q552 657 521 657ZM343 314 294 118Q292 111 290.5 104.5Q289 98 288.5 92.5Q288 87 287.5 82.5Q287 78 287 73Q287 62 289.5 54Q292 46 297.5 39Q303 32 310 26Q317 20 330 9V0H49V9Q74 24 86 32.5Q98 41 107.5 51.5Q117 62 124 77.5Q131 93 137 118L254 582Q256 592 257 597Q258 602 259 607.5Q260 613 260.5 618Q261 623 261 627Q261 638 258.5 646Q256 654 250.5 661Q245 668 238 674Q231 680 218 691V700H574Q628 700 671 689.5Q714 679 744 659Q774 639 789.5 608.5Q805 578 805 538Q805 490 783 452.5Q761 415 723.5 390Q686 365 640 352Q594 339 545 337V335Q576 332 598.5 323.5Q621 315 637 299.5Q653 284 662 261.5Q671 239 675 209L685 125Q688 98 693 80.5Q698 63 705.5 50.5Q713 38 724 29Q735 20 754 9V0H552Q547 14 544 26.5Q541 39 538.5 51.5Q536 64 534.5 77.5Q533 91 531 108L519 221Q517 246 511.5 263.5Q506 281 495.5 292Q485 303 468.5 308.5Q452 314 427 314ZM597 944H761L528 763H497Z" glyph-name="Racute" horiz-adv-x="753" unicode="&#340;" /><glyph d="M559 857H731L493 669H464ZM401 554 339 305H415Q454 305 485.5 315.5Q517 326 538.5 346Q560 366 571 393Q582 420 582 453V455Q582 479 575.5 497.5Q569 516 555.5 528.5Q542 541 521.5 547.5Q501 554 474 554ZM329 266 287 101Q286 95 285 90Q284 85 283.5 80.5Q283 76 282.5 72Q282 68 282 64Q282 55 284 48Q286 41 291 35Q296 29 302 23.5Q308 18 320 9V0H55V9Q78 22 88.5 29Q99 36 107.5 45Q116 54 122 67Q128 80 133 101L231 493Q233 499 234 504.5Q235 510 235.5 514.5Q236 519 236.5 523Q237 527 237 530Q237 539 234.5 546Q232 553 227.5 559Q223 565 216 571Q209 577 198 585L197 594H529Q579 594 618 585Q657 576 684 558.5Q711 541 725.5 515Q740 489 740 455V453Q740 412 721 381Q702 350 669.5 329.5Q637 309 597 298.5Q557 288 514 286V284Q543 282 562.5 274.5Q582 267 595.5 254.5Q609 242 616.5 223Q624 204 627 177L637 106Q640 83 644.5 68Q649 53 655.5 43.5Q662 34 671 26Q680 18 696 9V0H504Q500 12 496.5 22.5Q493 33 491 44Q489 55 487.5 66Q486 77 484 92L473 191Q471 211 466 225Q461 239 452 248Q443 257 428.5 261.5Q414 266 392 266Z" glyph-name="Racute.sc" horiz-adv-x="706" /><glyph d="M525 756Q519 777 507.5 801Q496 825 481 851.5Q466 878 449 904.5Q432 931 412 960H451Q467 952 481 942Q495 932 507 922Q519 912 557 877Q576 889 596 900.5Q616 912 637 922.5Q658 933 681 942.5Q704 952 728 960H766Q728 928 698 902.5Q668 877 639 851Q610 825 585 800.5Q560 776 543 756ZM429 657 355 357H449Q494 357 531 370Q568 383 593 407Q618 431 631.5 464.5Q645 498 645 538Q645 567 637.5 589Q630 611 614.5 626Q599 641 575.5 649Q552 657 521 657ZM343 314 294 118Q292 111 290.5 104.5Q289 98 288.5 92.5Q288 87 287.5 82.5Q287 78 287 73Q287 62 289.5 54Q292 46 297.5 39Q303 32 310 26Q317 20 330 9V0H49V9Q74 24 86 32.5Q98 41 107.5 51.5Q117 62 124 77.5Q131 93 137 118L254 582Q256 592 257 597Q258 602 259 607.5Q260 613 260.5 618Q261 623 261 627Q261 638 258.5 646Q256 654 250.5 661Q245 668 238 674Q231 680 218 691V700H574Q628 700 671 689.5Q714 679 744 659Q774 639 789.5 608.5Q805 578 805 538Q805 490 783 452.5Q761 415 723.5 390Q686 365 640 352Q594 339 545 337V335Q576 332 598.5 323.5Q621 315 637 299.5Q653 284 662 261.5Q671 239 675 209L685 125Q688 98 693 80.5Q698 63 705.5 50.5Q713 38 724 29Q735 20 754 9V0H552Q547 14 544 26.5Q541 39 538.5 51.5Q536 64 534.5 77.5Q533 91 531 108L519 221Q517 246 511.5 263.5Q506 281 495.5 292Q485 303 468.5 308.5Q452 314 427 314Z" glyph-name="Rcaron" horiz-adv-x="753" unicode="&#344;" /><glyph d="M501 663H484Q477 684 465.5 711.5Q454 739 439 769.5Q424 800 407 830Q390 860 373 886H411Q426 876 440.5 865Q455 854 467.5 842.5Q480 831 491.5 819Q503 807 517 792Q536 805 556.5 817.5Q577 830 599 841.5Q621 853 643.5 864Q666 875 689 886H727Q696 860 663.5 830Q631 800 601 770Q571 740 545 712.5Q519 685 501 663ZM401 554 339 305H415Q454 305 485.5 315.5Q517 326 538.5 346Q560 366 571 393Q582 420 582 453V455Q582 479 575.5 497.5Q569 516 555.5 528.5Q542 541 521.5 547.5Q501 554 474 554ZM329 266 287 101Q286 95 285 90Q284 85 283.5 80.5Q283 76 282.5 72Q282 68 282 64Q282 55 284 48Q286 41 291 35Q296 29 302 23.5Q308 18 320 9V0H55V9Q78 22 88.5 29Q99 36 107.5 45Q116 54 122 67Q128 80 133 101L231 493Q233 499 234 504.5Q235 510 235.5 514.5Q236 519 236.5 523Q237 527 237 530Q237 539 234.5 546Q232 553 227.5 559Q223 565 216 571Q209 577 198 585L197 594H529Q579 594 618 585Q657 576 684 558.5Q711 541 725.5 515Q740 489 740 455V453Q740 412 721 381Q702 350 669.5 329.5Q637 309 597 298.5Q557 288 514 286V284Q543 282 562.5 274.5Q582 267 595.5 254.5Q609 242 616.5 223Q624 204 627 177L637 106Q640 83 644.5 68Q649 53 655.5 43.5Q662 34 671 26Q680 18 696 9V0H504Q500 12 496.5 22.5Q493 33 491 44Q489 55 487.5 66Q486 77 484 92L473 191Q471 211 466 225Q461 239 452 248Q443 257 428.5 261.5Q414 266 392 266Z" glyph-name="Rcaron.sc" horiz-adv-x="706" /><glyph d="M389 -171Q385 -174 380 -176Q375 -178 370 -179.5Q365 -181 359.5 -181.5Q354 -182 348 -182Q336 -182 325.5 -178.5Q315 -175 307.5 -167.5Q300 -160 296 -150.5Q292 -141 292 -129Q292 -114 298.5 -101Q305 -88 316.5 -78.5Q328 -69 343.5 -63.5Q359 -58 377 -58Q395 -58 410 -64.5Q425 -71 436 -82.5Q447 -94 452.5 -109Q458 -124 458 -141Q458 -173 444 -199Q430 -225 403.5 -243Q377 -261 341 -270Q305 -279 261 -279L266 -248Q292 -247 313.5 -241.5Q335 -236 350.5 -226Q366 -216 376 -202Q386 -188 389 -171ZM429 657 355 357H449Q494 357 531 370Q568 383 593 407Q618 431 631.5 464.5Q645 498 645 538Q645 567 637.5 589Q630 611 614.5 626Q599 641 575.5 649Q552 657 521 657ZM343 314 294 118Q292 111 290.5 104.5Q289 98 288.5 92.5Q288 87 287.5 82.5Q287 78 287 73Q287 62 289.5 54Q292 46 297.5 39Q303 32 310 26Q317 20 330 9V0H49V9Q74 24 86 32.5Q98 41 107.5 51.5Q117 62 124 77.5Q131 93 137 118L254 582Q256 592 257 597Q258 602 259 607.5Q260 613 260.5 618Q261 623 261 627Q261 638 258.5 646Q256 654 250.5 661Q245 668 238 674Q231 680 218 691V700H574Q628 700 671 689.5Q714 679 744 659Q774 639 789.5 608.5Q805 578 805 538Q805 490 783 452.5Q761 415 723.5 390Q686 365 640 352Q594 339 545 337V335Q576 332 598.5 323.5Q621 315 637 299.5Q653 284 662 261.5Q671 239 675 209L685 125Q688 98 693 80.5Q698 63 705.5 50.5Q713 38 724 29Q735 20 754 9V0H552Q547 14 544 26.5Q541 39 538.5 51.5Q536 64 534.5 77.5Q533 91 531 108L519 221Q517 246 511.5 263.5Q506 281 495.5 292Q485 303 468.5 308.5Q452 314 427 314Z" glyph-name="Rcommaaccent" horiz-adv-x="753" unicode="&#342;" /><glyph d="M373 -171Q369 -174 364 -176Q359 -178 354 -179.5Q349 -181 343.5 -181.5Q338 -182 332 -182Q320 -182 309.5 -178.5Q299 -175 291.5 -167.5Q284 -160 280 -150.5Q276 -141 276 -129Q276 -114 282.5 -101Q289 -88 300.5 -78.5Q312 -69 327.5 -63.5Q343 -58 361 -58Q379 -58 394 -64.5Q409 -71 420 -82.5Q431 -94 436.5 -109Q442 -124 442 -141Q442 -173 428 -199Q414 -225 387.5 -243Q361 -261 325 -270Q289 -279 245 -279L250 -248Q276 -247 297.5 -241.5Q319 -236 334.5 -226Q350 -216 360 -202Q370 -188 373 -171ZM401 554 339 305H415Q454 305 485.5 315.5Q517 326 538.5 346Q560 366 571 393Q582 420 582 453V455Q582 479 575.5 497.5Q569 516 555.5 528.5Q542 541 521.5 547.5Q501 554 474 554ZM329 266 287 101Q286 95 285 90Q284 85 283.5 80.5Q283 76 282.5 72Q282 68 282 64Q282 55 284 48Q286 41 291 35Q296 29 302 23.5Q308 18 320 9V0H55V9Q78 22 88.5 29Q99 36 107.5 45Q116 54 122 67Q128 80 133 101L231 493Q233 499 234 504.5Q235 510 235.5 514.5Q236 519 236.5 523Q237 527 237 530Q237 539 234.5 546Q232 553 227.5 559Q223 565 216 571Q209 577 198 585L197 594H529Q579 594 618 585Q657 576 684 558.5Q711 541 725.5 515Q740 489 740 455V453Q740 412 721 381Q702 350 669.5 329.5Q637 309 597 298.5Q557 288 514 286V284Q543 282 562.5 274.5Q582 267 595.5 254.5Q609 242 616.5 223Q624 204 627 177L637 106Q640 83 644.5 68Q649 53 655.5 43.5Q662 34 671 26Q680 18 696 9V0H504Q500 12 496.5 22.5Q493 33 491 44Q489 55 487.5 66Q486 77 484 92L473 191Q471 211 466 225Q461 239 452 248Q443 257 428.5 261.5Q414 266 392 266Z" glyph-name="Rcommaaccent.sc" horiz-adv-x="706" /><glyph d="M645 485Q635 526 616.5 559.5Q598 593 573 616.5Q548 640 517 652.5Q486 665 451 665Q422 665 398 656.5Q374 648 356.5 632Q339 616 330 594Q321 572 321 546Q321 525 326.5 509.5Q332 494 343 481.5Q354 469 370 459Q386 449 409 439L498 401Q529 388 554 372Q579 356 597.5 334.5Q616 313 626.5 286.5Q637 260 637 227Q637 173 614 128.5Q591 84 551 53Q511 22 459 6Q407 -10 350 -10Q316 -10 284 -4Q252 2 225.5 12.5Q199 23 178.5 35Q158 47 144 60L80 -6H62L125 247H141Q156 197 175.5 158Q195 119 220.5 91.5Q246 64 278.5 49.5Q311 35 350 35Q381 35 408 44.5Q435 54 454.5 71.5Q474 89 484.5 113Q495 137 495 165Q495 186 489.5 202.5Q484 219 472.5 232Q461 245 445.5 255.5Q430 266 408 276L324 312Q292 326 266.5 343Q241 360 222 381.5Q203 403 192.5 430.5Q182 458 182 490Q182 542 203 583.5Q224 625 261.5 653Q299 681 347.5 695.5Q396 710 451 710Q482 710 510 705Q538 700 560.5 691.5Q583 683 598.5 675.5Q614 668 635 656L692 710H706L660 485Z" glyph-name="S" horiz-adv-x="634" unicode="S" /><glyph d="M602 405Q591 440 573.5 469Q556 498 533.5 519Q511 540 483 551Q455 562 423 562Q400 562 380 555.5Q360 549 345 536Q330 523 322 505Q314 487 314 465Q314 449 319.5 436.5Q325 424 334.5 414Q344 404 358 396Q372 388 391 380L472 346Q498 335 520.5 320.5Q543 306 560 287.5Q577 269 587 245.5Q597 222 597 193Q597 147 577 109Q557 71 521.5 45Q486 19 439.5 5.5Q393 -8 341 -8Q310 -8 280.5 -2.5Q251 3 226 12Q201 21 182 31.5Q163 42 151 52L97 -6H81L127 219H140Q154 177 174 143Q194 109 219 84Q244 59 275 45.5Q306 32 341 32Q367 32 389 39.5Q411 47 427 60.5Q443 74 451.5 93Q460 112 460 135Q460 152 455 165.5Q450 179 440.5 189.5Q431 200 417 208.5Q403 217 383 225L308 257Q279 270 256 285Q233 300 216 318.5Q199 337 189.5 360.5Q180 384 180 412Q180 458 199.5 494Q219 530 253 554.5Q287 579 330.5 591Q374 603 423 603Q453 603 479 598Q505 593 526 585.5Q547 578 562.5 570.5Q578 563 594 553L643 603H658L615 405Z" glyph-name="S.sc" horiz-adv-x="614" /><glyph d="M645 485Q635 526 616.5 559.5Q598 593 573 616.5Q548 640 517 652.5Q486 665 451 665Q422 665 398 656.5Q374 648 356.5 632Q339 616 330 594Q321 572 321 546Q321 525 326.5 509.5Q332 494 343 481.5Q354 469 370 459Q386 449 409 439L498 401Q529 388 554 372Q579 356 597.5 334.5Q616 313 626.5 286.5Q637 260 637 227Q637 173 614 128.5Q591 84 551 53Q511 22 459 6Q407 -10 350 -10Q316 -10 284 -4Q252 2 225.5 12.5Q199 23 178.5 35Q158 47 144 60L80 -6H62L125 247H141Q156 197 175.5 158Q195 119 220.5 91.5Q246 64 278.5 49.5Q311 35 350 35Q381 35 408 44.5Q435 54 454.5 71.5Q474 89 484.5 113Q495 137 495 165Q495 186 489.5 202.5Q484 219 472.5 232Q461 245 445.5 255.5Q430 266 408 276L324 312Q292 326 266.5 343Q241 360 222 381.5Q203 403 192.5 430.5Q182 458 182 490Q182 542 203 583.5Q224 625 261.5 653Q299 681 347.5 695.5Q396 710 451 710Q482 710 510 705Q538 700 560.5 691.5Q583 683 598.5 675.5Q614 668 635 656L692 710H706L660 485ZM551 944H715L482 763H451Z" glyph-name="Sacute" horiz-adv-x="634" unicode="&#346;" /><glyph d="M516 857H688L450 669H421ZM602 405Q591 440 573.5 469Q556 498 533.5 519Q511 540 483 551Q455 562 423 562Q400 562 380 555.5Q360 549 345 536Q330 523 322 505Q314 487 314 465Q314 449 319.5 436.5Q325 424 334.5 414Q344 404 358 396Q372 388 391 380L472 346Q498 335 520.5 320.5Q543 306 560 287.5Q577 269 587 245.5Q597 222 597 193Q597 147 577 109Q557 71 521.5 45Q486 19 439.5 5.5Q393 -8 341 -8Q310 -8 280.5 -2.5Q251 3 226 12Q201 21 182 31.5Q163 42 151 52L97 -6H81L127 219H140Q154 177 174 143Q194 109 219 84Q244 59 275 45.5Q306 32 341 32Q367 32 389 39.5Q411 47 427 60.5Q443 74 451.5 93Q460 112 460 135Q460 152 455 165.5Q450 179 440.5 189.5Q431 200 417 208.5Q403 217 383 225L308 257Q279 270 256 285Q233 300 216 318.5Q199 337 189.5 360.5Q180 384 180 412Q180 458 199.5 494Q219 530 253 554.5Q287 579 330.5 591Q374 603 423 603Q453 603 479 598Q505 593 526 585.5Q547 578 562.5 570.5Q578 563 594 553L643 603H658L615 405Z" glyph-name="Sacute.sc" horiz-adv-x="613" /><glyph d="M645 485Q635 526 616.5 559.5Q598 593 573 616.5Q548 640 517 652.5Q486 665 451 665Q422 665 398 656.5Q374 648 356.5 632Q339 616 330 594Q321 572 321 546Q321 525 326.5 509.5Q332 494 343 481.5Q354 469 370 459Q386 449 409 439L498 401Q529 388 554 372Q579 356 597.5 334.5Q616 313 626.5 286.5Q637 260 637 227Q637 173 614 128.5Q591 84 551 53Q511 22 459 6Q407 -10 350 -10Q316 -10 284 -4Q252 2 225.5 12.5Q199 23 178.5 35Q158 47 144 60L80 -6H62L125 247H141Q156 197 175.5 158Q195 119 220.5 91.5Q246 64 278.5 49.5Q311 35 350 35Q381 35 408 44.5Q435 54 454.5 71.5Q474 89 484.5 113Q495 137 495 165Q495 186 489.5 202.5Q484 219 472.5 232Q461 245 445.5 255.5Q430 266 408 276L324 312Q292 326 266.5 343Q241 360 222 381.5Q203 403 192.5 430.5Q182 458 182 490Q182 542 203 583.5Q224 625 261.5 653Q299 681 347.5 695.5Q396 710 451 710Q482 710 510 705Q538 700 560.5 691.5Q583 683 598.5 675.5Q614 668 635 656L692 710H706L660 485ZM481 756Q475 777 463.5 801Q452 825 437 851.5Q422 878 405 904.5Q388 931 368 960H407Q423 952 437 942Q451 932 463 922Q475 912 513 877Q532 889 552 900.5Q572 912 593 922.5Q614 933 637 942.5Q660 952 684 960H722Q684 928 654 902.5Q624 877 595 851Q566 825 541 800.5Q516 776 499 756Z" glyph-name="Scaron" horiz-adv-x="634" unicode="&#352;" /><glyph d="M481 663H464Q457 684 445.5 711.5Q434 739 419 769.5Q404 800 387 830Q370 860 353 886H391Q406 876 420.5 865Q435 854 447.5 842.5Q460 831 471.5 819Q483 807 497 792Q516 805 536.5 817.5Q557 830 579 841.5Q601 853 623.5 864Q646 875 669 886H707Q676 860 643.5 830Q611 800 581 770Q551 740 525 712.5Q499 685 481 663ZM602 405Q591 440 573.5 469Q556 498 533.5 519Q511 540 483 551Q455 562 423 562Q400 562 380 555.5Q360 549 345 536Q330 523 322 505Q314 487 314 465Q314 449 319.5 436.5Q325 424 334.5 414Q344 404 358 396Q372 388 391 380L472 346Q498 335 520.5 320.5Q543 306 560 287.5Q577 269 587 245.5Q597 222 597 193Q597 147 577 109Q557 71 521.5 45Q486 19 439.5 5.5Q393 -8 341 -8Q310 -8 280.5 -2.5Q251 3 226 12Q201 21 182 31.5Q163 42 151 52L97 -6H81L127 219H140Q154 177 174 143Q194 109 219 84Q244 59 275 45.5Q306 32 341 32Q367 32 389 39.5Q411 47 427 60.5Q443 74 451.5 93Q460 112 460 135Q460 152 455 165.5Q450 179 440.5 189.5Q431 200 417 208.5Q403 217 383 225L308 257Q279 270 256 285Q233 300 216 318.5Q199 337 189.5 360.5Q180 384 180 412Q180 458 199.5 494Q219 530 253 554.5Q287 579 330.5 591Q374 603 423 603Q453 603 479 598Q505 593 526 585.5Q547 578 562.5 570.5Q578 563 594 553L643 603H658L615 405Z" glyph-name="Scaron.sc" horiz-adv-x="613" /><glyph d="M140 -160 160 -141Q165 -150 172 -157Q179 -164 188.5 -169Q198 -174 208.5 -176.5Q219 -179 230 -179Q244 -179 256.5 -175Q269 -171 278.5 -163Q288 -155 293 -144.5Q298 -134 298 -122Q298 -111 292.5 -103Q287 -95 277 -90Q267 -85 253 -82Q239 -79 221 -78L283 -4Q251 2 225 12Q199 23 178.5 35Q158 47 144 60L80 -6H62L125 247H141Q156 197 175.5 158Q195 119 220.5 91.5Q246 64 278.5 49.5Q311 35 350 35Q381 35 408 44.5Q435 54 454.5 71.5Q474 89 484.5 113Q495 137 495 165Q495 186 489.5 202.5Q484 219 472.5 232Q461 245 445.5 255.5Q430 266 408 276L324 312Q292 326 266.5 343Q241 360 222 381.5Q203 403 192.5 430.5Q182 458 182 490Q182 542 203 583.5Q224 625 261.5 653Q299 681 347.5 695.5Q396 710 451 710Q482 710 510 705Q538 700 560.5 691.5Q583 683 598.5 675.5Q614 668 635 656L692 710H706L660 485H645Q635 526 616.5 559.5Q598 593 573 616.5Q548 640 517 652.5Q486 665 451 665Q422 665 398 656.5Q374 648 356.5 632Q339 616 330 594Q321 572 321 546Q321 525 326.5 509.5Q332 494 343 481.5Q354 469 370 459Q386 449 409 439L498 401Q529 388 554 372Q579 356 597.5 334.5Q616 313 626.5 286.5Q637 260 637 227Q637 173 614 128.5Q591 84 551 53Q511 22 459 6Q407 -10 350 -10Q335 -10 320 -9L284 -53Q309 -54 329.5 -59Q350 -64 365 -72.5Q380 -81 388 -94Q396 -107 396 -124Q396 -148 384 -167Q372 -186 352 -199Q332 -212 308 -218Q284 -224 259 -224Q234 -224 213.5 -218.5Q193 -213 178.5 -204Q164 -195 154.5 -184Q145 -173 140 -160Z" glyph-name="Scedilla" horiz-adv-x="634" unicode="&#350;" /><glyph d="M125 -160 145 -141Q150 -150 157 -157Q164 -164 173.5 -169Q183 -174 193.5 -176.5Q204 -179 215 -179Q229 -179 241.5 -175Q254 -171 263.5 -163Q273 -155 278 -144.5Q283 -134 283 -122Q283 -111 277.5 -103Q272 -95 262 -90Q252 -85 238 -82Q224 -79 206 -78L270 -1Q247 4 226 12Q201 21 182 31.5Q163 42 151 52L97 -6H81L127 219H140Q154 177 174 143Q194 109 219 84Q244 59 275 45.5Q306 32 341 32Q367 32 389 39.5Q411 47 427 60.5Q443 74 451.5 93Q460 112 460 135Q460 152 455 165.5Q450 179 440.5 189.5Q431 200 417 208.5Q403 217 383 225L308 257Q279 270 256 285Q233 300 216 318.5Q199 337 189.5 360.5Q180 384 180 412Q180 458 199.5 494Q219 530 253 554.5Q287 579 330.5 591Q374 603 423 603Q453 603 479 598Q505 593 526 585.5Q547 578 562.5 570.5Q578 563 594 553L643 603H658L615 405H602Q591 440 573.5 469Q556 498 533.5 519Q511 540 483 551Q455 562 423 562Q400 562 380 555.5Q360 549 345 536Q330 523 322 505Q314 487 314 465Q314 449 319.5 436.5Q325 424 334.5 414Q344 404 358 396Q372 388 391 380L472 346Q498 335 520.5 320.5Q543 306 560 287.5Q577 269 587 245.5Q597 222 597 193Q597 147 577 109Q557 71 521.5 45Q486 19 439.5 5.5Q393 -8 341 -8Q324 -8 307 -6L269 -53Q294 -54 314.5 -59Q335 -64 350 -72.5Q365 -81 373 -94Q381 -107 381 -124Q381 -148 369 -167Q357 -186 337 -199Q317 -212 293 -218Q269 -224 244 -224Q219 -224 198.5 -218.5Q178 -213 163.5 -204Q149 -195 139.5 -184Q130 -173 125 -160Z" glyph-name="Scedilla.sc" horiz-adv-x="613" /><glyph d="M645 485Q635 526 616.5 559.5Q598 593 573 616.5Q548 640 517 652.5Q486 665 451 665Q422 665 398 656.5Q374 648 356.5 632Q339 616 330 594Q321 572 321 546Q321 525 326.5 509.5Q332 494 343 481.5Q354 469 370 459Q386 449 409 439L498 401Q529 388 554 372Q579 356 597.5 334.5Q616 313 626.5 286.5Q637 260 637 227Q637 173 614 128.5Q591 84 551 53Q511 22 459 6Q407 -10 350 -10Q316 -10 284 -4Q252 2 225.5 12.5Q199 23 178.5 35Q158 47 144 60L80 -6H62L125 247H141Q156 197 175.5 158Q195 119 220.5 91.5Q246 64 278.5 49.5Q311 35 350 35Q381 35 408 44.5Q435 54 454.5 71.5Q474 89 484.5 113Q495 137 495 165Q495 186 489.5 202.5Q484 219 472.5 232Q461 245 445.5 255.5Q430 266 408 276L324 312Q292 326 266.5 343Q241 360 222 381.5Q203 403 192.5 430.5Q182 458 182 490Q182 542 203 583.5Q224 625 261.5 653Q299 681 347.5 695.5Q396 710 451 710Q482 710 510 705Q538 700 560.5 691.5Q583 683 598.5 675.5Q614 668 635 656L692 710H706L660 485ZM538 961Q544 941 555.5 916.5Q567 892 582 866Q597 840 614 813.5Q631 787 651 757H613Q597 766 583 776Q569 786 556 796.5Q543 807 532 817Q521 827 507 841Q488 829 468 817.5Q448 806 426.5 795.5Q405 785 382 775Q359 765 335 757H297Q340 793 368.5 817Q397 841 425.5 866.5Q454 892 478.5 916.5Q503 941 520 961Z" glyph-name="Scircumflex" horiz-adv-x="634" unicode="&#348;" /><glyph d="M525 883Q531 862 542.5 834.5Q554 807 569 776.5Q584 746 601 716Q618 686 635 660H597Q581 670 567 681Q553 692 540.5 703.5Q528 715 516.5 727Q505 739 492 754Q473 741 452 728.5Q431 716 409 704.5Q387 693 365 681.5Q343 670 320 660H281Q312 686 344.5 716Q377 746 407 776Q437 806 463 833.5Q489 861 507 883ZM602 405Q591 440 573.5 469Q556 498 533.5 519Q511 540 483 551Q455 562 423 562Q400 562 380 555.5Q360 549 345 536Q330 523 322 505Q314 487 314 465Q314 449 319.5 436.5Q325 424 334.5 414Q344 404 358 396Q372 388 391 380L472 346Q498 335 520.5 320.5Q543 306 560 287.5Q577 269 587 245.5Q597 222 597 193Q597 147 577 109Q557 71 521.5 45Q486 19 439.5 5.5Q393 -8 341 -8Q310 -8 280.5 -2.5Q251 3 226 12Q201 21 182 31.5Q163 42 151 52L97 -6H81L127 219H140Q154 177 174 143Q194 109 219 84Q244 59 275 45.5Q306 32 341 32Q367 32 389 39.5Q411 47 427 60.5Q443 74 451.5 93Q460 112 460 135Q460 152 455 165.5Q450 179 440.5 189.5Q431 200 417 208.5Q403 217 383 225L308 257Q279 270 256 285Q233 300 216 318.5Q199 337 189.5 360.5Q180 384 180 412Q180 458 199.5 494Q219 530 253 554.5Q287 579 330.5 591Q374 603 423 603Q453 603 479 598Q505 593 526 585.5Q547 578 562.5 570.5Q578 563 594 553L643 603H658L615 405Z" glyph-name="Scircumflex.sc" horiz-adv-x="613" /><glyph d="M282 -171Q278 -174 273 -176Q268 -178 263 -179.5Q258 -181 252.5 -181.5Q247 -182 241 -182Q229 -182 218.5 -178.5Q208 -175 200.5 -167.5Q193 -160 189 -150.5Q185 -141 185 -129Q185 -114 191.5 -101Q198 -88 209.5 -78.5Q221 -69 236.5 -63.5Q252 -58 270 -58Q288 -58 303 -64.5Q318 -71 329 -82.5Q340 -94 345.5 -109Q351 -124 351 -141Q351 -173 337 -199Q323 -225 296.5 -243Q270 -261 234 -270Q198 -279 154 -279L159 -248Q185 -247 206.5 -241.5Q228 -236 243.5 -226Q259 -216 269 -202Q279 -188 282 -171ZM645 485Q635 526 616.5 559.5Q598 593 573 616.5Q548 640 517 652.5Q486 665 451 665Q422 665 398 656.5Q374 648 356.5 632Q339 616 330 594Q321 572 321 546Q321 525 326.5 509.5Q332 494 343 481.5Q354 469 370 459Q386 449 409 439L498 401Q529 388 554 372Q579 356 597.5 334.5Q616 313 626.5 286.5Q637 260 637 227Q637 173 614 128.5Q591 84 551 53Q511 22 459 6Q407 -10 350 -10Q316 -10 284 -4Q252 2 225.5 12.5Q199 23 178.5 35Q158 47 144 60L80 -6H62L125 247H141Q156 197 175.5 158Q195 119 220.5 91.5Q246 64 278.5 49.5Q311 35 350 35Q381 35 408 44.5Q435 54 454.5 71.5Q474 89 484.5 113Q495 137 495 165Q495 186 489.5 202.5Q484 219 472.5 232Q461 245 445.5 255.5Q430 266 408 276L324 312Q292 326 266.5 343Q241 360 222 381.5Q203 403 192.5 430.5Q182 458 182 490Q182 542 203 583.5Q224 625 261.5 653Q299 681 347.5 695.5Q396 710 451 710Q482 710 510 705Q538 700 560.5 691.5Q583 683 598.5 675.5Q614 668 635 656L692 710H706L660 485Z" glyph-name="Scommaaccent" horiz-adv-x="634" unicode="&#536;" /><glyph d="M268 -171Q264 -174 259 -176Q254 -178 249 -179.5Q244 -181 238.5 -181.5Q233 -182 227 -182Q215 -182 204.5 -178.5Q194 -175 186.5 -167.5Q179 -160 175 -150.5Q171 -141 171 -129Q171 -114 177.5 -101Q184 -88 195.5 -78.5Q207 -69 222.5 -63.5Q238 -58 256 -58Q274 -58 289 -64.5Q304 -71 315 -82.5Q326 -94 331.5 -109Q337 -124 337 -141Q337 -173 323 -199Q309 -225 282.5 -243Q256 -261 220 -270Q184 -279 140 -279L145 -248Q171 -247 192.5 -241.5Q214 -236 229.5 -226Q245 -216 255 -202Q265 -188 268 -171ZM602 405Q591 440 573.5 469Q556 498 533.5 519Q511 540 483 551Q455 562 423 562Q400 562 380 555.5Q360 549 345 536Q330 523 322 505Q314 487 314 465Q314 449 319.5 436.5Q325 424 334.5 414Q344 404 358 396Q372 388 391 380L472 346Q498 335 520.5 320.5Q543 306 560 287.5Q577 269 587 245.5Q597 222 597 193Q597 147 577 109Q557 71 521.5 45Q486 19 439.5 5.5Q393 -8 341 -8Q310 -8 280.5 -2.5Q251 3 226 12Q201 21 182 31.5Q163 42 151 52L97 -6H81L127 219H140Q154 177 174 143Q194 109 219 84Q244 59 275 45.5Q306 32 341 32Q367 32 389 39.5Q411 47 427 60.5Q443 74 451.5 93Q460 112 460 135Q460 152 455 165.5Q450 179 440.5 189.5Q431 200 417 208.5Q403 217 383 225L308 257Q279 270 256 285Q233 300 216 318.5Q199 337 189.5 360.5Q180 384 180 412Q180 458 199.5 494Q219 530 253 554.5Q287 579 330.5 591Q374 603 423 603Q453 603 479 598Q505 593 526 585.5Q547 578 562.5 570.5Q578 563 594 553L643 603H658L615 405Z" glyph-name="Scommaaccent.sc" horiz-adv-x="613" /><glyph d="M291 700H830Q841 700 849.5 700.5Q858 701 865.5 702Q873 703 878.5 704Q884 705 892 706L867 486H855Q839 535 828 562Q817 589 800.5 610.5Q784 632 759.5 644Q735 656 698 656H628L494 120Q493 114 491.5 108Q490 102 489.5 97Q489 92 488.5 87Q488 82 488 78Q488 66 491 57Q494 48 499.5 40.5Q505 33 513 26Q521 19 535 9V0H242V9Q267 23 281 32Q295 41 305.5 52Q316 63 324 79Q332 95 338 120L471 656H412Q375 656 344 644Q313 632 284.5 610.5Q256 589 230 562Q204 535 161 486H147L233 706Q240 705 245 704Q250 703 256.5 702Q263 701 271.5 700.5Q280 700 291 700Z" glyph-name="T" horiz-adv-x="776" unicode="T" /><glyph d="M264 594H759Q768 594 776 594.5Q784 595 790 595.5Q796 596 814 599L792 405H781Q766 447 755.5 471Q745 495 729.5 514Q714 533 691 543.5Q668 554 635 554H579L466 103Q465 98 464 93Q463 88 462.5 83.5Q462 79 461.5 75Q461 71 461 68Q461 58 463.5 50Q466 42 471.5 35.5Q477 29 484 23Q491 17 503 9V0H227V9Q249 21 261 28.5Q273 36 282.5 45.5Q292 55 299 68.5Q306 82 311 103L424 554H377Q344 554 315 543.5Q286 533 260 513.5Q234 494 210 469.5Q186 445 150 405H136L212 599Q213 599 220.5 597.5Q228 596 233.5 595.5Q239 595 247 594.5Q255 594 264 594Z" glyph-name="T.sc" horiz-adv-x="727" /><glyph d="M242 0V9Q267 23 281 32Q295 41 305.5 52Q316 63 324 79Q332 95 338 120L392 338H259L271 384H404L471 656H412Q375 656 344 644Q313 632 284.5 610.5Q256 589 230 562Q204 535 161 486H147L233 706Q240 705 245 704Q250 703 256.5 702Q263 701 271.5 700.5Q280 700 291 700H830Q841 700 849.5 700.5Q858 701 865.5 702Q873 703 878.5 704Q884 705 892 706L867 486H855Q839 535 828 562Q817 589 800.5 610.5Q784 632 759.5 644Q735 656 698 656H628L560 384H693L681 338H549L494 120Q493 114 491.5 108Q490 102 489.5 97Q489 92 488.5 87Q488 82 488 78Q488 66 491 57Q494 48 499.5 40.5Q505 33 513 26Q521 19 535 9V0Z" glyph-name="Tbar" horiz-adv-x="776" unicode="&#358;" /><glyph d="M227 0V9Q249 21 261 28.5Q273 36 282.5 45.5Q292 55 299 68.5Q306 82 311 103L357 287H235L244 328H367L424 554H377Q344 554 315 543.5Q286 533 260 513.5Q234 494 210 469.5Q186 445 150 405H136L212 599Q213 599 220.5 597.5Q228 596 233.5 595.5Q239 595 247 594.5Q255 594 264 594H759Q768 594 776 594.5Q784 595 790 595.5Q796 596 814 599L792 405H781Q766 447 755.5 471Q745 495 729.5 514Q714 533 691 543.5Q668 554 635 554H579L522 328H644L634 287H512L466 103Q465 98 464 93Q463 88 462.5 83.5Q462 79 461.5 75Q461 71 461 68Q461 58 463.5 50Q466 42 471.5 35.5Q477 29 484 23Q491 17 503 9V0Z" glyph-name="Tbar.sc" horiz-adv-x="727" /><glyph d="M566 756Q560 777 548.5 801Q537 825 522 851.5Q507 878 490 904.5Q473 931 453 960H492Q508 952 522 942Q536 932 548 922Q560 912 598 877Q617 889 637 900.5Q657 912 678 922.5Q699 933 722 942.5Q745 952 769 960H807Q769 928 739 902.5Q709 877 680 851Q651 825 626 800.5Q601 776 584 756ZM291 700H830Q841 700 849.5 700.5Q858 701 865.5 702Q873 703 878.5 704Q884 705 892 706L867 486H855Q839 535 828 562Q817 589 800.5 610.5Q784 632 759.5 644Q735 656 698 656H628L494 120Q493 114 491.5 108Q490 102 489.5 97Q489 92 488.5 87Q488 82 488 78Q488 66 491 57Q494 48 499.5 40.5Q505 33 513 26Q521 19 535 9V0H242V9Q267 23 281 32Q295 41 305.5 52Q316 63 324 79Q332 95 338 120L471 656H412Q375 656 344 644Q313 632 284.5 610.5Q256 589 230 562Q204 535 161 486H147L233 706Q240 705 245 704Q250 703 256.5 702Q263 701 271.5 700.5Q280 700 291 700Z" glyph-name="Tcaron" horiz-adv-x="776" unicode="&#356;" /><glyph d="M264 594H759Q768 594 776 594.5Q784 595 790 595.5Q796 596 814 599L792 405H781Q766 447 755.5 471Q745 495 729.5 514Q714 533 691 543.5Q668 554 635 554H579L466 103Q465 98 464 93Q463 88 462.5 83.5Q462 79 461.5 75Q461 71 461 68Q461 58 463.5 50Q466 42 471.5 35.5Q477 29 484 23Q491 17 503 9V0H227V9Q249 21 261 28.5Q273 36 282.5 45.5Q292 55 299 68.5Q306 82 311 103L424 554H377Q344 554 315 543.5Q286 533 260 513.5Q234 494 210 469.5Q186 445 150 405H136L212 599Q213 599 220.5 597.5Q228 596 233.5 595.5Q239 595 247 594.5Q255 594 264 594ZM533 663H516Q509 684 497.5 711.5Q486 739 471 769.5Q456 800 439 830Q422 860 405 886H443Q458 876 472.5 865Q487 854 499.5 842.5Q512 831 523.5 819Q535 807 549 792Q568 805 588.5 817.5Q609 830 631 841.5Q653 853 675.5 864Q698 875 721 886H759Q728 860 695.5 830Q663 800 633 770Q603 740 577 712.5Q551 685 533 663Z" glyph-name="Tcaron.sc" horiz-adv-x="727" /><glyph d="M367 -171Q363 -174 358 -176Q353 -178 348 -179.5Q343 -181 337.5 -181.5Q332 -182 326 -182Q314 -182 303.5 -178.5Q293 -175 285.5 -167.5Q278 -160 274 -150.5Q270 -141 270 -129Q270 -114 276.5 -101Q283 -88 294.5 -78.5Q306 -69 321.5 -63.5Q337 -58 355 -58Q373 -58 388 -64.5Q403 -71 414 -82.5Q425 -94 430.5 -109Q436 -124 436 -141Q436 -173 422 -199Q408 -225 381.5 -243Q355 -261 319 -270Q283 -279 239 -279L244 -248Q270 -247 291.5 -241.5Q313 -236 328.5 -226Q344 -216 354 -202Q364 -188 367 -171ZM291 700H830Q841 700 849.5 700.5Q858 701 865.5 702Q873 703 878.5 704Q884 705 892 706L867 486H855Q839 535 828 562Q817 589 800.5 610.5Q784 632 759.5 644Q735 656 698 656H628L494 120Q493 114 491.5 108Q490 102 489.5 97Q489 92 488.5 87Q488 82 488 78Q488 66 491 57Q494 48 499.5 40.5Q505 33 513 26Q521 19 535 9V0H242V9Q267 23 281 32Q295 41 305.5 52Q316 63 324 79Q332 95 338 120L471 656H412Q375 656 344 644Q313 632 284.5 610.5Q256 589 230 562Q204 535 161 486H147L233 706Q240 705 245 704Q250 703 256.5 702Q263 701 271.5 700.5Q280 700 291 700Z" glyph-name="Tcommaaccent" horiz-adv-x="776" unicode="&#354;" /><glyph d="M264 594H759Q768 594 776 594.5Q784 595 790 595.5Q796 596 814 599L792 405H781Q766 447 755.5 471Q745 495 729.5 514Q714 533 691 543.5Q668 554 635 554H579L466 103Q465 98 464 93Q463 88 462.5 83.5Q462 79 461.5 75Q461 71 461 68Q461 58 463.5 50Q466 42 471.5 35.5Q477 29 484 23Q491 17 503 9V0H227V9Q249 21 261 28.5Q273 36 282.5 45.5Q292 55 299 68.5Q306 82 311 103L424 554H377Q344 554 315 543.5Q286 533 260 513.5Q234 494 210 469.5Q186 445 150 405H136L212 599Q213 599 220.5 597.5Q228 596 233.5 595.5Q239 595 247 594.5Q255 594 264 594ZM345 -171Q341 -174 336 -176Q331 -178 326 -179.5Q321 -181 315.5 -181.5Q310 -182 304 -182Q292 -182 281.5 -178.5Q271 -175 263.5 -167.5Q256 -160 252 -150.5Q248 -141 248 -129Q248 -114 254.5 -101Q261 -88 272.5 -78.5Q284 -69 299.5 -63.5Q315 -58 333 -58Q351 -58 366 -64.5Q381 -71 392 -82.5Q403 -94 408.5 -109Q414 -124 414 -141Q414 -173 400 -199Q386 -225 359.5 -243Q333 -261 297 -270Q261 -279 217 -279L222 -248Q248 -247 269.5 -241.5Q291 -236 306.5 -226Q322 -216 332 -202Q342 -188 345 -171Z" glyph-name="Tcommaaccent.sc" horiz-adv-x="727" /><glyph d="M408 582 405 570H533Q587 570 629 559.5Q671 549 700.5 527.5Q730 506 745.5 474Q761 442 761 400Q761 336 733.5 286.5Q706 237 659 205Q612 173 552 157.5Q492 142 426 142H300L294 118Q293 112 292 107.5Q291 103 290.5 99Q290 95 289.5 91Q289 87 289 84Q289 71 293.5 61Q298 51 305.5 43Q313 35 320 30Q327 25 352 9V0H49V9Q74 24 86 32.5Q98 41 107.5 51.5Q117 62 124 77.5Q131 93 137 118L254 582Q256 590 257 595.5Q258 601 259 606.5Q260 612 260.5 616.5Q261 621 261 625Q261 636 258 644.5Q255 653 249.5 660Q244 667 238.5 671.5Q233 676 216 691V700H497V691Q473 677 460.5 668Q448 659 438.5 648.5Q429 638 422 622.5Q415 607 408 582ZM312 187H392Q440 187 479.5 201.5Q519 216 547.5 244Q576 272 591.5 312.5Q607 353 607 405Q607 436 598 459Q589 482 571.5 497Q554 512 527.5 519Q501 526 466 526H396Z" glyph-name="Thorn" horiz-adv-x="706" unicode="&#222;" /><glyph d="M385 493 381 479H488Q536 479 575 469Q614 459 641.5 439.5Q669 420 684 393Q699 366 699 333V330Q699 276 675 236.5Q651 197 609.5 173Q568 149 515 138Q462 127 402 127H294L288 101Q287 97 286 93Q285 89 284.5 85.5Q284 82 284 79Q284 76 284 73Q284 61 287.5 52.5Q291 44 298 37.5Q305 31 312.5 26Q320 21 339 9V0H55V9Q78 22 88.5 29Q99 36 107.5 45Q116 54 122 67Q128 80 133 101L230 493Q232 499 233 504Q234 509 234.5 513.5Q235 518 235.5 522Q236 526 236 530Q236 539 233.5 546Q231 553 226.5 559Q222 565 215.5 570.5Q209 576 197 585V594H464V585Q442 573 431 565.5Q420 558 412 549Q404 540 397.5 527Q391 514 385 493ZM304 168H364Q407 168 441 177.5Q475 187 498.5 207Q522 227 534.5 258.5Q547 290 547 333V338Q547 362 538.5 380.5Q530 399 513.5 412Q497 425 473.5 431.5Q450 438 419 438H371Z" glyph-name="Thorn.sc" horiz-adv-x="665" /><glyph d="M400 582 324 280Q321 269 319.5 258.5Q318 248 316.5 238Q315 228 314.5 219Q314 210 314 201Q314 167 323.5 141.5Q333 116 352 98.5Q371 81 397.5 72.5Q424 64 458 64Q501 64 537 76.5Q573 89 603 115.5Q633 142 656 184Q679 226 693 283L768 582Q769 587 770 591Q771 595 771.5 599Q772 603 772 607Q772 611 772 614Q772 628 767.5 638Q763 648 756 655.5Q749 663 733.5 675Q718 687 714 691V700H931V691Q874 659 861.5 648Q849 637 839.5 621.5Q830 606 824 582L747 274Q729 203 700 150Q671 97 630 61.5Q589 26 536 8Q483 -10 417 -10Q360 -10 312.5 3.5Q265 17 230 43.5Q195 70 176 109.5Q157 149 157 200Q157 209 157.5 219Q158 229 159.5 238.5Q161 248 162.5 258.5Q164 269 167 279L243 582Q245 589 246.5 595.5Q248 602 248.5 607.5Q249 613 249.5 617.5Q250 622 250 627Q250 638 247.5 646Q245 654 240 661Q235 668 227.5 674.5Q220 681 207 691V700H489V691Q464 677 451.5 668Q439 659 429.5 648.5Q420 638 413 622.5Q406 607 400 582Z" glyph-name="U" horiz-adv-x="773" unicode="U" /><glyph d="M372 493 311 245Q309 236 307 227Q305 218 304 209.5Q303 201 302.5 193Q302 185 302 177Q302 148 310 126Q318 104 334 89Q350 74 373 66.5Q396 59 425 59Q461 59 493 70.5Q525 82 552 105Q579 128 599 163.5Q619 199 631 247L692 493Q693 497 694 501Q695 505 695.5 508.5Q696 512 696 515.5Q696 519 696 522Q696 533 692.5 541.5Q689 550 683 556Q677 562 647 585V594H835V585Q786 557 775.5 548.5Q765 540 757 526.5Q749 513 744 493L681 239Q666 179 640 132.5Q614 86 577 55Q540 24 491 8Q442 -8 383 -8Q331 -8 287.5 4Q244 16 212.5 39.5Q181 63 163.5 98Q146 133 146 178Q146 186 146.5 194Q147 202 148 210.5Q149 219 151 227Q153 235 155 244L217 493Q219 499 220 504.5Q221 510 221.5 514.5Q222 519 222.5 523Q223 527 223 530Q223 539 220.5 546Q218 553 213.5 559Q209 565 202.5 570.5Q196 576 184 585V594H450V585Q427 572 416.5 565Q406 558 397.5 549Q389 540 383 527Q377 514 372 493Z" glyph-name="U.sc" horiz-adv-x="712" /><glyph d="M671 944H835L602 763H571ZM400 582 324 280Q321 269 319.5 258.5Q318 248 316.5 238Q315 228 314.5 219Q314 210 314 201Q314 167 323.5 141.5Q333 116 352 98.5Q371 81 397.5 72.5Q424 64 458 64Q501 64 537 76.5Q573 89 603 115.5Q633 142 656 184Q679 226 693 283L768 582Q769 587 770 591Q771 595 771.5 599Q772 603 772 607Q772 611 772 614Q772 628 767.5 638Q763 648 756 655.5Q749 663 733.5 675Q718 687 714 691V700H931V691Q874 659 861.5 648Q849 637 839.5 621.5Q830 606 824 582L747 274Q729 203 700 150Q671 97 630 61.5Q589 26 536 8Q483 -10 417 -10Q360 -10 312.5 3.5Q265 17 230 43.5Q195 70 176 109.5Q157 149 157 200Q157 209 157.5 219Q158 229 159.5 238.5Q161 248 162.5 258.5Q164 269 167 279L243 582Q245 589 246.5 595.5Q248 602 248.5 607.5Q249 613 249.5 617.5Q250 622 250 627Q250 638 247.5 646Q245 654 240 661Q235 668 227.5 674.5Q220 681 207 691V700H489V691Q464 677 451.5 668Q439 659 429.5 648.5Q420 638 413 622.5Q406 607 400 582Z" glyph-name="Uacute" horiz-adv-x="773" unicode="&#218;" /><glyph d="M616 857H788L550 669H521ZM372 493 311 245Q309 236 307 227Q305 218 304 209.5Q303 201 302.5 193Q302 185 302 177Q302 148 310 126Q318 104 334 89Q350 74 373 66.5Q396 59 425 59Q461 59 493 70.5Q525 82 552 105Q579 128 599 163.5Q619 199 631 247L692 493Q693 497 694 501Q695 505 695.5 508.5Q696 512 696 515.5Q696 519 696 522Q696 533 692.5 541.5Q689 550 683 556Q677 562 647 585V594H835V585Q786 557 775.5 548.5Q765 540 757 526.5Q749 513 744 493L681 239Q666 179 640 132.5Q614 86 577 55Q540 24 491 8Q442 -8 383 -8Q331 -8 287.5 4Q244 16 212.5 39.5Q181 63 163.5 98Q146 133 146 178Q146 186 146.5 194Q147 202 148 210.5Q149 219 151 227Q153 235 155 244L217 493Q219 499 220 504.5Q221 510 221.5 514.5Q222 519 222.5 523Q223 527 223 530Q223 539 220.5 546Q218 553 213.5 559Q209 565 202.5 570.5Q196 576 184 585V594H450V585Q427 572 416.5 565Q406 558 397.5 549Q389 540 383 527Q377 514 372 493Z" glyph-name="Uacute.sc" horiz-adv-x="712" /><glyph d="M528 949Q528 930 536 915.5Q544 901 558 892Q572 883 590 879Q608 875 628 875Q650 875 671.5 880Q693 885 712.5 895.5Q732 906 747.5 922.5Q763 939 773 961H801Q790 919 771 884Q752 849 727 823.5Q702 798 672.5 784Q643 770 610 770Q583 770 561.5 779Q540 788 525 805.5Q510 823 502 847Q494 871 494 901Q494 908 494.5 915Q495 922 495.5 929.5Q496 937 497.5 945Q499 953 501 961H528ZM400 582 324 280Q321 269 319.5 258.5Q318 248 316.5 238Q315 228 314.5 219Q314 210 314 201Q314 167 323.5 141.5Q333 116 352 98.5Q371 81 397.5 72.5Q424 64 458 64Q501 64 537 76.5Q573 89 603 115.5Q633 142 656 184Q679 226 693 283L768 582Q769 587 770 591Q771 595 771.5 599Q772 603 772 607Q772 611 772 614Q772 628 767.5 638Q763 648 756 655.5Q749 663 733.5 675Q718 687 714 691V700H931V691Q874 659 861.5 648Q849 637 839.5 621.5Q830 606 824 582L747 274Q729 203 700 150Q671 97 630 61.5Q589 26 536 8Q483 -10 417 -10Q360 -10 312.5 3.5Q265 17 230 43.5Q195 70 176 109.5Q157 149 157 200Q157 209 157.5 219Q158 229 159.5 238.5Q161 248 162.5 258.5Q164 269 167 279L243 582Q245 589 246.5 595.5Q248 602 248.5 607.5Q249 613 249.5 617.5Q250 622 250 627Q250 638 247.5 646Q245 654 240 661Q235 668 227.5 674.5Q220 681 207 691V700H489V691Q464 677 451.5 668Q439 659 429.5 648.5Q420 638 413 622.5Q406 607 400 582Z" glyph-name="Ubreve" horiz-adv-x="773" unicode="&#364;" /><glyph d="M372 493 311 245Q309 236 307 227Q305 218 304 209.5Q303 201 302.5 193Q302 185 302 177Q302 148 310 126Q318 104 334 89Q350 74 373 66.5Q396 59 425 59Q461 59 493 70.5Q525 82 552 105Q579 128 599 163.5Q619 199 631 247L692 493Q693 497 694 501Q695 505 695.5 508.5Q696 512 696 515.5Q696 519 696 522Q696 533 692.5 541.5Q689 550 683 556Q677 562 647 585V594H835V585Q786 557 775.5 548.5Q765 540 757 526.5Q749 513 744 493L681 239Q666 179 640 132.5Q614 86 577 55Q540 24 491 8Q442 -8 383 -8Q331 -8 287.5 4Q244 16 212.5 39.5Q181 63 163.5 98Q146 133 146 178Q146 186 146.5 194Q147 202 148 210.5Q149 219 151 227Q153 235 155 244L217 493Q219 499 220 504.5Q221 510 221.5 514.5Q222 519 222.5 523Q223 527 223 530Q223 539 220.5 546Q218 553 213.5 559Q209 565 202.5 570.5Q196 576 184 585V594H450V585Q427 572 416.5 565Q406 558 397.5 549Q389 540 383 527Q377 514 372 493ZM469 856Q469 836 477 821.5Q485 807 499 798Q513 789 531 784.5Q549 780 569 780Q591 780 612.5 785Q634 790 653.5 801Q673 812 689 829Q705 846 715 869H742Q730 827 711 791.5Q692 756 667.5 730Q643 704 613 690Q583 676 550 676Q523 676 502 685Q481 694 466 711.5Q451 729 443 753Q435 777 435 806Q435 814 435.5 821.5Q436 829 437 836.5Q438 844 439.5 852.5Q441 861 443 869H470Q470 867 469.5 865.5Q469 864 469 862.5Q469 861 469 859.5Q469 858 469 856Z" glyph-name="Ubreve.sc" horiz-adv-x="712" /><glyph d="M400 582 324 280Q321 269 319.5 258.5Q318 248 316.5 238Q315 228 314.5 219Q314 210 314 201Q314 167 323.5 141.5Q333 116 352 98.5Q371 81 397.5 72.5Q424 64 458 64Q501 64 537 76.5Q573 89 603 115.5Q633 142 656 184Q679 226 693 283L768 582Q769 587 770 591Q771 595 771.5 599Q772 603 772 607Q772 611 772 614Q772 628 767.5 638Q763 648 756 655.5Q749 663 733.5 675Q718 687 714 691V700H931V691Q874 659 861.5 648Q849 637 839.5 621.5Q830 606 824 582L747 274Q729 203 700 150Q671 97 630 61.5Q589 26 536 8Q483 -10 417 -10Q360 -10 312.5 3.5Q265 17 230 43.5Q195 70 176 109.5Q157 149 157 200Q157 209 157.5 219Q158 229 159.5 238.5Q161 248 162.5 258.5Q164 269 167 279L243 582Q245 589 246.5 595.5Q248 602 248.5 607.5Q249 613 249.5 617.5Q250 622 250 627Q250 638 247.5 646Q245 654 240 661Q235 668 227.5 674.5Q220 681 207 691V700H489V691Q464 677 451.5 668Q439 659 429.5 648.5Q420 638 413 622.5Q406 607 400 582ZM657 961Q663 941 674.5 916.5Q686 892 701 866Q716 840 733 813.5Q750 787 770 757H732Q716 766 702 776Q688 786 675 796.5Q662 807 651 817Q640 827 626 841Q607 829 587 817.5Q567 806 545.5 795.5Q524 785 501 775Q478 765 454 757H416Q459 793 487.5 817Q516 841 544.5 866.5Q573 892 597.5 916.5Q622 941 639 961Z" glyph-name="Ucircumflex" horiz-adv-x="773" unicode="&#219;" /><glyph d="M602 883Q608 862 619.5 834.5Q631 807 646 776.5Q661 746 678 716Q695 686 712 660H674Q658 670 644 681Q630 692 617.5 703.5Q605 715 593.5 727Q582 739 569 754Q550 741 529 728.5Q508 716 486 704.5Q464 693 442 681.5Q420 670 397 660H358Q389 686 421.5 716Q454 746 484 776Q514 806 540 833.5Q566 861 584 883ZM372 493 311 245Q309 236 307 227Q305 218 304 209.5Q303 201 302.5 193Q302 185 302 177Q302 148 310 126Q318 104 334 89Q350 74 373 66.5Q396 59 425 59Q461 59 493 70.5Q525 82 552 105Q579 128 599 163.5Q619 199 631 247L692 493Q693 497 694 501Q695 505 695.5 508.5Q696 512 696 515.5Q696 519 696 522Q696 533 692.5 541.5Q689 550 683 556Q677 562 647 585V594H835V585Q786 557 775.5 548.5Q765 540 757 526.5Q749 513 744 493L681 239Q666 179 640 132.5Q614 86 577 55Q540 24 491 8Q442 -8 383 -8Q331 -8 287.5 4Q244 16 212.5 39.5Q181 63 163.5 98Q146 133 146 178Q146 186 146.5 194Q147 202 148 210.5Q149 219 151 227Q153 235 155 244L217 493Q219 499 220 504.5Q221 510 221.5 514.5Q222 519 222.5 523Q223 527 223 530Q223 539 220.5 546Q218 553 213.5 559Q209 565 202.5 570.5Q196 576 184 585V594H450V585Q427 572 416.5 565Q406 558 397.5 549Q389 540 383 527Q377 514 372 493Z" glyph-name="Ucircumflex.sc" horiz-adv-x="712" /><glyph d="M728 764Q712 764 698 770Q684 776 673 786.5Q662 797 656 811.5Q650 826 650 841Q650 857 656 871.5Q662 886 673 897Q684 908 698 914.5Q712 921 728 921Q744 921 758 914.5Q772 908 783 897Q794 886 800 871.5Q806 857 806 841Q806 826 800 811.5Q794 797 783 786.5Q772 776 758 770Q744 764 728 764ZM519 764Q503 764 489 770Q475 776 464.5 786.5Q454 797 448 811Q442 825 442 841Q442 857 448 871.5Q454 886 464.5 897Q475 908 489 914.5Q503 921 519 921Q535 921 549 914.5Q563 908 574 897Q585 886 591 871.5Q597 857 597 841Q597 826 591 811.5Q585 797 574 786.5Q563 776 549 770Q535 764 519 764ZM400 582 324 280Q321 269 319.5 258.5Q318 248 316.5 238Q315 228 314.5 219Q314 210 314 201Q314 167 323.5 141.5Q333 116 352 98.5Q371 81 397.5 72.5Q424 64 458 64Q501 64 537 76.5Q573 89 603 115.5Q633 142 656 184Q679 226 693 283L768 582Q769 587 770 591Q771 595 771.5 599Q772 603 772 607Q772 611 772 614Q772 628 767.5 638Q763 648 756 655.5Q749 663 733.5 675Q718 687 714 691V700H931V691Q874 659 861.5 648Q849 637 839.5 621.5Q830 606 824 582L747 274Q729 203 700 150Q671 97 630 61.5Q589 26 536 8Q483 -10 417 -10Q360 -10 312.5 3.5Q265 17 230 43.5Q195 70 176 109.5Q157 149 157 200Q157 209 157.5 219Q158 229 159.5 238.5Q161 248 162.5 258.5Q164 269 167 279L243 582Q245 589 246.5 595.5Q248 602 248.5 607.5Q249 613 249.5 617.5Q250 622 250 627Q250 638 247.5 646Q245 654 240 661Q235 668 227.5 674.5Q220 681 207 691V700H489V691Q464 677 451.5 668Q439 659 429.5 648.5Q420 638 413 622.5Q406 607 400 582Z" glyph-name="Udieresis" horiz-adv-x="773" unicode="&#220;" /><glyph d="M463 672Q447 672 433 678Q419 684 408.5 694.5Q398 705 392 719Q386 733 386 749Q386 765 392 779.5Q398 794 408.5 805Q419 816 433 822.5Q447 829 463 829Q479 829 493.5 822.5Q508 816 518.5 805Q529 794 535 779.5Q541 765 541 749Q541 733 535 719Q529 705 518.5 694.5Q508 684 493.5 678Q479 672 463 672ZM672 672Q656 672 642 678Q628 684 617 694.5Q606 705 600 719.5Q594 734 594 749Q594 765 600 779.5Q606 794 617 805Q628 816 642 822.5Q656 829 672 829Q688 829 702.5 822.5Q717 816 727.5 805Q738 794 744 779.5Q750 765 750 749Q750 733 744 719Q738 705 727.5 694.5Q717 684 702.5 678Q688 672 672 672ZM372 493 311 245Q309 236 307 227Q305 218 304 209.5Q303 201 302.5 193Q302 185 302 177Q302 148 310 126Q318 104 334 89Q350 74 373 66.5Q396 59 425 59Q461 59 493 70.5Q525 82 552 105Q579 128 599 163.5Q619 199 631 247L692 493Q693 497 694 501Q695 505 695.5 508.5Q696 512 696 515.5Q696 519 696 522Q696 533 692.5 541.5Q689 550 683 556Q677 562 647 585V594H835V585Q786 557 775.5 548.5Q765 540 757 526.5Q749 513 744 493L681 239Q666 179 640 132.5Q614 86 577 55Q540 24 491 8Q442 -8 383 -8Q331 -8 287.5 4Q244 16 212.5 39.5Q181 63 163.5 98Q146 133 146 178Q146 186 146.5 194Q147 202 148 210.5Q149 219 151 227Q153 235 155 244L217 493Q219 499 220 504.5Q221 510 221.5 514.5Q222 519 222.5 523Q223 527 223 530Q223 539 220.5 546Q218 553 213.5 559Q209 565 202.5 570.5Q196 576 184 585V594H450V585Q427 572 416.5 565Q406 558 397.5 549Q389 540 383 527Q377 514 372 493Z" glyph-name="Udieresis.sc" horiz-adv-x="712" /><glyph d="M453 944H615L627 763H603ZM400 582 324 280Q321 269 319.5 258.5Q318 248 316.5 238Q315 228 314.5 219Q314 210 314 201Q314 167 323.5 141.5Q333 116 352 98.5Q371 81 397.5 72.5Q424 64 458 64Q501 64 537 76.5Q573 89 603 115.5Q633 142 656 184Q679 226 693 283L768 582Q769 587 770 591Q771 595 771.5 599Q772 603 772 607Q772 611 772 614Q772 628 767.5 638Q763 648 756 655.5Q749 663 733.5 675Q718 687 714 691V700H931V691Q874 659 861.5 648Q849 637 839.5 621.5Q830 606 824 582L747 274Q729 203 700 150Q671 97 630 61.5Q589 26 536 8Q483 -10 417 -10Q360 -10 312.5 3.5Q265 17 230 43.5Q195 70 176 109.5Q157 149 157 200Q157 209 157.5 219Q158 229 159.5 238.5Q161 248 162.5 258.5Q164 269 167 279L243 582Q245 589 246.5 595.5Q248 602 248.5 607.5Q249 613 249.5 617.5Q250 622 250 627Q250 638 247.5 646Q245 654 240 661Q235 668 227.5 674.5Q220 681 207 691V700H489V691Q464 677 451.5 668Q439 659 429.5 648.5Q420 638 413 622.5Q406 607 400 582Z" glyph-name="Ugrave" horiz-adv-x="773" unicode="&#217;" /><glyph d="M396 857H558L569 669H547ZM372 493 311 245Q309 236 307 227Q305 218 304 209.5Q303 201 302.5 193Q302 185 302 177Q302 148 310 126Q318 104 334 89Q350 74 373 66.5Q396 59 425 59Q461 59 493 70.5Q525 82 552 105Q579 128 599 163.5Q619 199 631 247L692 493Q693 497 694 501Q695 505 695.5 508.5Q696 512 696 515.5Q696 519 696 522Q696 533 692.5 541.5Q689 550 683 556Q677 562 647 585V594H835V585Q786 557 775.5 548.5Q765 540 757 526.5Q749 513 744 493L681 239Q666 179 640 132.5Q614 86 577 55Q540 24 491 8Q442 -8 383 -8Q331 -8 287.5 4Q244 16 212.5 39.5Q181 63 163.5 98Q146 133 146 178Q146 186 146.5 194Q147 202 148 210.5Q149 219 151 227Q153 235 155 244L217 493Q219 499 220 504.5Q221 510 221.5 514.5Q222 519 222.5 523Q223 527 223 530Q223 539 220.5 546Q218 553 213.5 559Q209 565 202.5 570.5Q196 576 184 585V594H450V585Q427 572 416.5 565Q406 558 397.5 549Q389 540 383 527Q377 514 372 493Z" glyph-name="Ugrave.sc" horiz-adv-x="712" /><glyph d="M400 582 324 280Q321 269 319.5 258.5Q318 248 316.5 238Q315 228 314.5 219Q314 210 314 201Q314 167 323.5 141.5Q333 116 352 98.5Q371 81 397.5 72.5Q424 64 458 64Q501 64 537 76.5Q573 89 603 115.5Q633 142 656 184Q679 226 693 283L768 582Q769 587 770 591Q771 595 771.5 599Q772 603 772 607Q772 611 772 614Q772 628 767.5 638Q763 648 756 655.5Q749 663 733.5 675Q718 687 714 691V700H931V691Q874 659 861.5 648Q849 637 839.5 621.5Q830 606 824 582L747 274Q729 203 700 150Q671 97 630 61.5Q589 26 536 8Q483 -10 417 -10Q360 -10 312.5 3.5Q265 17 230 43.5Q195 70 176 109.5Q157 149 157 200Q157 209 157.5 219Q158 229 159.5 238.5Q161 248 162.5 258.5Q164 269 167 279L243 582Q245 589 246.5 595.5Q248 602 248.5 607.5Q249 613 249.5 617.5Q250 622 250 627Q250 638 247.5 646Q245 654 240 661Q235 668 227.5 674.5Q220 681 207 691V700H489V691Q464 677 451.5 668Q439 659 429.5 648.5Q420 638 413 622.5Q406 607 400 582ZM583 945H732L513 764H482ZM766 945H916L696 764H666Z" glyph-name="Uhungarumlaut" horiz-adv-x="773" unicode="&#368;" /></font>
</defs>
</svg>
